STARTFONT 2.2
FONT -FontForge-KH Dot Hibiya 24-Book-R-Normal--24-240-75-75-P-231-ISO10646-1
SIZE 24 75 75
FONTBOUNDINGBOX 24 24 0 -3
METRICSSET 2
SWIDTH 1000 0
DWIDTH 24 0
SWIDTH1 1000 0
DWIDTH1 24 0
VVECTOR 12,21
COMMENT "Generated by fontforge, http://fontforge.sourceforge.net"
COMMENT "Copyright (c) Keitarou Hiraki, Font Silo. 1990-2015"
STARTPROPERTIES 40
FOUNDRY "FontForge"
FAMILY_NAME "KH Dot Hibiya 24"
WEIGHT_NAME "Book"
SLANT "R"
SETWIDTH_NAME "Normal"
ADD_STYLE_NAME ""
PIXEL_SIZE 24
POINT_SIZE 240
RESOLUTION_X 75
RESOLUTION_Y 75
SPACING "P"
AVERAGE_WIDTH 231
CHARSET_REGISTRY "ISO10646"
CHARSET_ENCODING "1"
FONTNAME_REGISTRY ""
CHARSET_COLLECTIONS "ISO8859-5 JISX0208.1997 BIG5 ISO10646-1"
FONT_NAME "KH-Dot-Hibiya-24"
FACE_NAME "KH Dot Hibiya 24"
COPYRIGHT "Copyright (c) Keitarou Hiraki, Font Silo. 1990-2015"
FONT_VERSION "1.00.20150527"
FONT_ASCENT 21
FONT_DESCENT 3
UNDERLINE_POSITION -3
UNDERLINE_THICKNESS 2
X_HEIGHT 11
CAP_HEIGHT 17
RAW_ASCENT 859
RAW_DESCENT 140
NORM_SPACE 12
RELATIVE_WEIGHT 40
RELATIVE_SETWIDTH 50
SUPERSCRIPT_X 0
SUPERSCRIPT_Y 10
SUPERSCRIPT_SIZE 12
SUBSCRIPT_X 0
SUBSCRIPT_Y 8
SUBSCRIPT_SIZE 12
FIGURE_WIDTH 12
AVG_LOWERCASE_WIDTH 211
AVG_UPPERCASE_WIDTH 214
ENDPROPERTIES
CHARS 8048
STARTCHAR space
ENCODING 32
SWIDTH 500 0
DWIDTH 12 0
BBX 1 1 11 -3
BITMAP
00
ENDCHAR
STARTCHAR exclam
ENCODING 33
SWIDTH 500 0
DWIDTH 12 0
BBX 4 19 4 0
BITMAP
60
60
60
60
60
60
60
60
60
60
60
60
60
00
00
00
60
F0
60
ENDCHAR
STARTCHAR quotedbl
ENCODING 34
SWIDTH 500 0
DWIDTH 12 0
BBX 9 7 1 13
BITMAP
2100
7380
7380
3180
2100
4200
8400
ENDCHAR
STARTCHAR numbersign
ENCODING 35
SWIDTH 500 0
DWIDTH 12 0
BBX 10 18 1 0
BITMAP
3300
3300
3300
3300
33C0
3FC0
FF00
F300
3300
3300
33C0
3FC0
FF00
F300
3300
3300
3300
3300
ENDCHAR
STARTCHAR dollar
ENCODING 36
SWIDTH 500 0
DWIDTH 12 0
BBX 10 22 1 -2
BITMAP
0800
0800
0800
3F00
6980
C980
C800
C800
6800
7C00
1F00
0B80
08C0
08C0
08C0
08C0
C980
EB00
3C00
0800
0800
0800
ENDCHAR
STARTCHAR percent
ENCODING 37
SWIDTH 500 0
DWIDTH 12 0
BBX 10 16 1 1
BITMAP
70C0
C980
C980
9B00
9B00
7600
0600
0C00
0C00
1800
1B80
3640
3640
64C0
64C0
C380
ENDCHAR
STARTCHAR ampersand
ENCODING 38
SWIDTH 500 0
DWIDTH 12 0
BBX 12 18 0 0
BITMAP
1C00
2200
6300
6300
6300
3300
3600
1C00
19E0
3840
6C40
4C40
C680
C680
C300
C300
6D90
38E0
ENDCHAR
STARTCHAR quotesingle
ENCODING 39
SWIDTH 500 0
DWIDTH 12 0
BBX 4 7 3 13
BITMAP
20
70
70
30
20
40
80
ENDCHAR
STARTCHAR parenleft
ENCODING 40
SWIDTH 500 0
DWIDTH 12 0
BBX 6 21 4 -1
BITMAP
04
08
10
30
20
60
60
60
C0
C0
C0
C0
C0
40
60
60
20
30
10
08
04
ENDCHAR
STARTCHAR parenright
ENCODING 41
SWIDTH 500 0
DWIDTH 12 0
BBX 6 21 2 -1
BITMAP
80
40
20
30
10
18
18
18
0C
0C
0C
0C
0C
08
18
18
10
30
20
40
80
ENDCHAR
STARTCHAR asterisk
ENCODING 42
SWIDTH 500 0
DWIDTH 12 0
BBX 10 14 1 2
BITMAP
0C00
0C00
0C00
CCC0
EDC0
6D80
1E00
1E00
6D80
EDC0
CCC0
0C00
0C00
0C00
ENDCHAR
STARTCHAR plus
ENCODING 43
SWIDTH 500 0
DWIDTH 12 0
BBX 10 10 1 4
BITMAP
0C00
0C00
0C00
0C00
FFC0
FFC0
0C00
0C00
0C00
0C00
ENDCHAR
STARTCHAR comma
ENCODING 44
SWIDTH 500 0
DWIDTH 12 0
BBX 4 7 2 -2
BITMAP
20
70
70
30
20
40
80
ENDCHAR
STARTCHAR hyphen
ENCODING 45
SWIDTH 500 0
DWIDTH 12 0
BBX 8 2 2 8
BITMAP
FF
FF
ENDCHAR
STARTCHAR period
ENCODING 46
SWIDTH 500 0
DWIDTH 12 0
BBX 3 4 2 0
BITMAP
40
E0
E0
40
ENDCHAR
STARTCHAR slash
ENCODING 47
SWIDTH 500 0
DWIDTH 12 0
BBX 10 22 1 -2
BITMAP
0040
0040
0080
0080
0100
0100
0200
0200
0200
0400
0400
0800
0800
1000
1000
2000
2000
2000
4000
4000
8000
8000
ENDCHAR
STARTCHAR zero
ENCODING 48
SWIDTH 500 0
DWIDTH 12 0
BBX 10 18 1 0
BITMAP
1E00
6180
4080
C0C0
C0C0
C0C0
C0C0
C0C0
C0C0
C0C0
C0C0
C0C0
C0C0
C0C0
C0C0
4080
6180
1E00
ENDCHAR
STARTCHAR one
ENCODING 49
SWIDTH 500 0
DWIDTH 12 0
BBX 7 18 2 0
BITMAP
08
18
38
F8
18
18
18
18
18
18
18
18
18
18
18
18
18
7E
ENDCHAR
STARTCHAR two
ENCODING 50
SWIDTH 500 0
DWIDTH 12 0
BBX 10 18 1 0
BITMAP
1E00
6180
4080
C0C0
C0C0
00C0
0180
0180
0300
0E00
1800
3000
2000
4000
4040
8040
FFC0
FFC0
ENDCHAR
STARTCHAR three
ENCODING 51
SWIDTH 500 0
DWIDTH 12 0
BBX 10 18 1 0
BITMAP
1E00
6180
4080
C0C0
C0C0
00C0
0080
0100
3E00
0180
00C0
00C0
00C0
C0C0
C0C0
C080
6180
3E00
ENDCHAR
STARTCHAR four
ENCODING 52
SWIDTH 500 0
DWIDTH 12 0
BBX 10 18 1 0
BITMAP
0700
0700
0B00
0B00
1300
1300
1300
2300
2300
4300
4300
8300
8300
FFC0
0300
0300
0300
0780
ENDCHAR
STARTCHAR five
ENCODING 53
SWIDTH 500 0
DWIDTH 12 0
BBX 10 18 1 0
BITMAP
7F80
7F80
4000
4000
4000
4000
5E00
6180
4080
00C0
00C0
00C0
C0C0
C0C0
C0C0
4080
6180
1E00
ENDCHAR
STARTCHAR six
ENCODING 54
SWIDTH 500 0
DWIDTH 12 0
BBX 10 18 1 0
BITMAP
1E00
6180
40C0
C0C0
C000
C000
C000
DE00
E180
C080
C0C0
C0C0
C0C0
C0C0
C0C0
4080
6180
1E00
ENDCHAR
STARTCHAR seven
ENCODING 55
SWIDTH 500 0
DWIDTH 12 0
BBX 10 18 1 0
BITMAP
FFC0
FFC0
8080
8080
0100
0100
0200
0200
0600
0400
0400
0C00
0C00
0800
1800
1800
1800
1800
ENDCHAR
STARTCHAR eight
ENCODING 56
SWIDTH 500 0
DWIDTH 12 0
BBX 10 18 1 0
BITMAP
1E00
6180
4080
C0C0
C0C0
C0C0
4080
6180
3F00
2100
4080
C0C0
C0C0
C0C0
C0C0
4080
6180
1E00
ENDCHAR
STARTCHAR nine
ENCODING 57
SWIDTH 500 0
DWIDTH 12 0
BBX 10 18 1 0
BITMAP
1E00
6180
4080
C0C0
C0C0
C0C0
C0C0
C0C0
40C0
61C0
1EC0
00C0
00C0
00C0
C0C0
C080
6180
1E00
ENDCHAR
STARTCHAR colon
ENCODING 58
SWIDTH 500 0
DWIDTH 12 0
BBX 3 14 4 2
BITMAP
40
E0
E0
40
00
00
00
00
00
00
40
E0
E0
40
ENDCHAR
STARTCHAR semicolon
ENCODING 59
SWIDTH 500 0
DWIDTH 12 0
BBX 4 16 3 0
BITMAP
20
70
70
20
00
00
00
00
00
20
70
70
30
20
40
80
ENDCHAR
STARTCHAR less
ENCODING 60
SWIDTH 500 0
DWIDTH 12 0
BBX 9 18 1 0
BITMAP
0080
0180
0300
0600
0C00
1800
3000
6000
C000
C000
6000
3000
1800
0C00
0600
0300
0180
0080
ENDCHAR
STARTCHAR equal
ENCODING 61
SWIDTH 500 0
DWIDTH 12 0
BBX 10 8 1 5
BITMAP
FFC0
FFC0
0000
0000
0000
0000
FFC0
FFC0
ENDCHAR
STARTCHAR greater
ENCODING 62
SWIDTH 500 0
DWIDTH 12 0
BBX 9 18 1 0
BITMAP
8000
C000
6000
3000
1800
0C00
0600
0300
0180
0180
0300
0600
0C00
1800
3000
6000
C000
8000
ENDCHAR
STARTCHAR question
ENCODING 63
SWIDTH 500 0
DWIDTH 12 0
BBX 10 18 1 0
BITMAP
1E00
6180
4080
C0C0
C0C0
00C0
00C0
0180
0380
0E00
0800
0800
0000
0000
0800
1C00
1C00
0800
ENDCHAR
STARTCHAR at
ENCODING 64
SWIDTH 500 0
DWIDTH 12 0
BBX 11 18 0 0
BITMAP
0E00
3180
60C0
60C0
C360
CF60
DB60
DB60
DB60
DB60
DB60
DB60
CBC0
CE00
6020
6040
3180
0F00
ENDCHAR
STARTCHAR A
ENCODING 65
SWIDTH 500 0
DWIDTH 12 0
BBX 10 18 1 0
BITMAP
0C00
0C00
0C00
0C00
1600
1600
1600
1600
2300
2300
2300
3F00
2300
4180
4180
4180
4180
F3C0
ENDCHAR
STARTCHAR B
ENCODING 66
SWIDTH 500 0
DWIDTH 12 0
BBX 10 18 1 0
BITMAP
FE00
6100
6180
6180
6180
6180
6300
7E00
6100
6180
60C0
60C0
60C0
60C0
60C0
6080
6180
FE00
ENDCHAR
STARTCHAR C
ENCODING 67
SWIDTH 500 0
DWIDTH 12 0
BBX 10 18 1 0
BITMAP
0E40
31C0
60C0
6040
C040
C000
C000
C000
C000
C000
C000
C000
C040
C040
6080
6080
3300
0E00
ENDCHAR
STARTCHAR D
ENCODING 68
SWIDTH 500 0
DWIDTH 12 0
BBX 11 18 0 0
BITMAP
FE00
6180
60C0
60C0
6060
6060
6060
6060
6060
6060
6060
6060
6060
6060
60C0
60C0
6180
FE00
ENDCHAR
STARTCHAR E
ENCODING 69
SWIDTH 500 0
DWIDTH 12 0
BBX 10 18 1 0
BITMAP
FF80
6080
6080
6040
6000
6100
6100
7F00
6100
6100
6000
6000
6000
6000
6040
6080
6080
FF80
ENDCHAR
STARTCHAR F
ENCODING 70
SWIDTH 500 0
DWIDTH 12 0
BBX 10 18 1 0
BITMAP
FF80
6080
6080
6040
6000
6100
6100
7F00
6100
6100
6000
6000
6000
6000
6000
6000
6000
F800
ENDCHAR
STARTCHAR G
ENCODING 71
SWIDTH 500 0
DWIDTH 12 0
BBX 11 18 1 0
BITMAP
1E40
31C0
60C0
6040
C040
C000
C000
C000
CFE0
C0C0
C0C0
C0C0
C0C0
C0C0
60C0
61C0
3640
1C40
ENDCHAR
STARTCHAR H
ENCODING 72
SWIDTH 500 0
DWIDTH 12 0
BBX 12 18 0 0
BITMAP
F0F0
6060
6060
6060
6060
6060
6060
7FE0
6060
6060
6060
6060
6060
6060
6060
6060
6060
F0F0
ENDCHAR
STARTCHAR I
ENCODING 73
SWIDTH 500 0
DWIDTH 12 0
BBX 6 18 3 0
BITMAP
FC
30
30
30
30
30
30
30
30
30
30
30
30
30
30
30
30
FC
ENDCHAR
STARTCHAR J
ENCODING 74
SWIDTH 500 0
DWIDTH 12 0
BBX 9 20 1 -2
BITMAP
0F80
0300
0300
0300
0300
0300
0300
0300
0300
0300
0300
0300
0300
0300
0300
6300
E300
C300
4600
3C00
ENDCHAR
STARTCHAR K
ENCODING 75
SWIDTH 500 0
DWIDTH 12 0
BBX 11 18 0 0
BITMAP
F0E0
6040
6080
6080
6100
6200
6200
6400
6E00
7600
6300
6300
6300
6180
6180
60C0
60C0
F1E0
ENDCHAR
STARTCHAR L
ENCODING 76
SWIDTH 500 0
DWIDTH 12 0
BBX 10 18 1 0
BITMAP
F800
6000
6000
6000
6000
6000
6000
6000
6000
6000
6000
6000
6000
6000
6040
6080
6080
FF80
ENDCHAR
STARTCHAR M
ENCODING 77
SWIDTH 500 0
DWIDTH 12 0
BBX 12 18 0 0
BITMAP
C070
6060
60E0
60E0
70E0
7160
7160
5960
5A60
5A60
5A60
4C60
4C60
4C60
4460
4060
4060
E0F0
ENDCHAR
STARTCHAR N
ENCODING 78
SWIDTH 500 0
DWIDTH 12 0
BBX 12 18 0 0
BITMAP
E070
6020
7020
5020
5820
5820
4C20
4C20
4620
4620
4320
4320
41A0
41A0
40A0
40E0
4060
E060
ENDCHAR
STARTCHAR O
ENCODING 79
SWIDTH 500 0
DWIDTH 12 0
BBX 10 18 1 0
BITMAP
1E00
2100
6180
4080
C0C0
C0C0
C0C0
C0C0
C0C0
C0C0
C0C0
C0C0
C0C0
C0C0
4080
6180
2100
1E00
ENDCHAR
STARTCHAR P
ENCODING 80
SWIDTH 500 0
DWIDTH 12 0
BBX 10 18 1 0
BITMAP
FE00
6180
6080
60C0
60C0
60C0
60C0
6080
6180
7E00
6000
6000
6000
6000
6000
6000
6000
F000
ENDCHAR
STARTCHAR Q
ENCODING 81
SWIDTH 500 0
DWIDTH 12 0
BBX 10 20 1 -2
BITMAP
1E00
2100
6180
4080
C0C0
C0C0
C0C0
C0C0
C0C0
C0C0
C0C0
C0C0
C0C0
C0C0
5C80
6580
2300
1E00
01C0
00C0
ENDCHAR
STARTCHAR R
ENCODING 82
SWIDTH 500 0
DWIDTH 12 0
BBX 11 18 0 0
BITMAP
FF00
6180
60C0
60C0
60C0
60C0
6180
7E00
6300
6180
6180
6180
60C0
60C0
60C0
60C0
60C0
F1E0
ENDCHAR
STARTCHAR S
ENCODING 83
SWIDTH 500 0
DWIDTH 12 0
BBX 10 18 1 0
BITMAP
1C80
6280
4180
C080
C080
C000
7000
3C00
0F00
0380
0180
00C0
00C0
80C0
80C0
C180
E300
9C00
ENDCHAR
STARTCHAR T
ENCODING 84
SWIDTH 500 0
DWIDTH 12 0
BBX 12 18 0 0
BITMAP
7FE0
4620
4620
8610
0600
0600
0600
0600
0600
0600
0600
0600
0600
0600
0600
0600
0600
0F00
ENDCHAR
STARTCHAR U
ENCODING 85
SWIDTH 500 0
DWIDTH 12 0
BBX 12 18 0 0
BITMAP
F070
6020
6020
6020
6020
6020
6020
6020
6020
6020
6020
6020
6020
6020
6020
3040
38C0
0F00
ENDCHAR
STARTCHAR V
ENCODING 86
SWIDTH 500 0
DWIDTH 12 0
BBX 11 18 0 0
BITMAP
F0E0
6040
6040
6040
3080
3080
3080
3080
1900
1900
1900
0A00
0E00
0E00
0E00
0400
0400
0400
ENDCHAR
STARTCHAR W
ENCODING 87
SWIDTH 500 0
DWIDTH 12 0
BBX 12 18 0 0
BITMAP
F770
6620
6620
6620
6620
6620
6340
3340
3340
3340
3340
3740
1980
1980
1980
1980
1980
1980
ENDCHAR
STARTCHAR X
ENCODING 88
SWIDTH 500 0
DWIDTH 12 0
BBX 11 18 0 0
BITMAP
F0E0
6040
6080
3080
3100
1900
1A00
0E00
0C00
0600
0E00
0B00
1300
1180
2180
20C0
40C0
E1E0
ENDCHAR
STARTCHAR Y
ENCODING 89
SWIDTH 500 0
DWIDTH 12 0
BBX 12 18 0 0
BITMAP
F070
6020
3020
3040
3040
1880
1880
0D00
0D00
0600
0600
0600
0600
0600
0600
0600
0600
0F00
ENDCHAR
STARTCHAR Z
ENCODING 90
SWIDTH 500 0
DWIDTH 12 0
BBX 11 18 1 0
BITMAP
7FC0
40C0
8180
0180
0300
0300
0600
0600
0C00
0C00
1800
1800
3000
3000
6020
6040
C040
FFC0
ENDCHAR
STARTCHAR bracketleft
ENCODING 91
SWIDTH 500 0
DWIDTH 12 0
BBX 8 21 3 -1
BITMAP
FF
C0
C0
C0
C0
C0
C0
C0
C0
C0
C0
C0
C0
C0
C0
C0
C0
C0
C0
C0
FF
ENDCHAR
STARTCHAR backslash
ENCODING 92
SWIDTH 500 0
DWIDTH 12 0
BBX 12 18 0 0
BITMAP
F070
6020
3040
3040
1880
1880
0D00
7FE0
0600
0600
0600
7FE0
0600
0600
0600
0600
0600
0F00
ENDCHAR
STARTCHAR bracketright
ENCODING 93
SWIDTH 500 0
DWIDTH 12 0
BBX 8 21 1 -1
BITMAP
FF
03
03
03
03
03
03
03
03
03
03
03
03
03
03
03
03
03
03
03
FF
ENDCHAR
STARTCHAR asciicircum
ENCODING 94
SWIDTH 500 0
DWIDTH 12 0
BBX 11 6 0 15
BITMAP
0400
0E00
1B00
3180
4040
8020
ENDCHAR
STARTCHAR underscore
ENCODING 95
SWIDTH 500 0
DWIDTH 12 0
BBX 10 1 1 -2
BITMAP
FFC0
ENDCHAR
STARTCHAR grave
ENCODING 96
SWIDTH 500 0
DWIDTH 12 0
BBX 4 7 5 13
BITMAP
40
E0
E0
C0
40
20
10
ENDCHAR
STARTCHAR a
ENCODING 97
SWIDTH 500 0
DWIDTH 12 0
BBX 11 12 1 0
BITMAP
1F00
7180
6180
0180
0180
1F80
6180
C180
C180
C380
CDA0
70C0
ENDCHAR
STARTCHAR b
ENCODING 98
SWIDTH 500 0
DWIDTH 12 0
BBX 11 20 0 0
BITMAP
2000
E000
6000
6000
6000
6000
6000
6000
6700
78C0
7060
6060
6060
6060
6060
6060
6060
7040
68C0
4700
ENDCHAR
STARTCHAR c
ENCODING 99
SWIDTH 500 0
DWIDTH 12 0
BBX 10 12 1 0
BITMAP
1E00
6380
4180
C000
C000
C000
C000
C000
C040
6080
7300
1E00
ENDCHAR
STARTCHAR d
ENCODING 100
SWIDTH 500 0
DWIDTH 12 0
BBX 10 20 1 0
BITMAP
0080
0380
0180
0180
0180
0180
0180
0180
1D80
6380
4180
C180
C180
C180
C180
C180
C180
4180
6380
1DC0
ENDCHAR
STARTCHAR e
ENCODING 101
SWIDTH 500 0
DWIDTH 12 0
BBX 10 12 1 0
BITMAP
1E00
6180
4080
C0C0
C0C0
FFC0
C000
C000
C040
6080
7300
1E00
ENDCHAR
STARTCHAR f
ENCODING 102
SWIDTH 500 0
DWIDTH 12 0
BBX 9 20 1 0
BITMAP
0F00
1180
3180
3000
3000
3000
3000
3000
FF00
3000
3000
3000
3000
3000
3000
3000
3000
3000
3000
7800
ENDCHAR
STARTCHAR g
ENCODING 103
SWIDTH 500 0
DWIDTH 12 0
BBX 10 15 1 -2
BITMAP
00C0
1DC0
6300
C180
C180
C180
6300
5C00
C000
7F00
5F80
C0C0
C0C0
6180
3E00
ENDCHAR
STARTCHAR h
ENCODING 104
SWIDTH 500 0
DWIDTH 12 0
BBX 11 20 0 0
BITMAP
2000
E000
6000
6000
6000
6000
6000
6000
6F00
7180
6080
60C0
60C0
60C0
60C0
60C0
60C0
60C0
60C0
F1E0
ENDCHAR
STARTCHAR i
ENCODING 105
SWIDTH 500 0
DWIDTH 12 0
BBX 4 18 4 0
BITMAP
60
60
00
00
00
00
20
E0
60
60
60
60
60
60
60
60
60
F0
ENDCHAR
STARTCHAR j
ENCODING 106
SWIDTH 500 0
DWIDTH 12 0
BBX 8 21 1 -3
BITMAP
03
03
00
00
00
00
01
07
03
03
03
03
03
03
03
03
C3
C3
C3
46
38
ENDCHAR
STARTCHAR k
ENCODING 107
SWIDTH 500 0
DWIDTH 12 0
BBX 11 20 0 0
BITMAP
2000
E000
6000
6000
6000
6000
6000
6000
61C0
6080
6100
6200
6400
6C00
7600
6300
6300
6180
60C0
F1E0
ENDCHAR
STARTCHAR l
ENCODING 108
SWIDTH 500 0
DWIDTH 12 0
BBX 4 20 4 0
BITMAP
20
E0
60
60
60
60
60
60
60
60
60
60
60
60
60
60
60
60
60
F0
ENDCHAR
STARTCHAR m
ENCODING 109
SWIDTH 500 0
DWIDTH 12 0
BBX 12 12 0 0
BITMAP
2CC0
FFE0
6660
6660
6660
6660
6660
6660
6660
6660
6660
F770
ENDCHAR
STARTCHAR n
ENCODING 110
SWIDTH 500 0
DWIDTH 12 0
BBX 11 12 0 0
BITMAP
2F00
F180
6080
60C0
60C0
60C0
60C0
60C0
60C0
60C0
60C0
F1E0
ENDCHAR
STARTCHAR o
ENCODING 111
SWIDTH 500 0
DWIDTH 12 0
BBX 10 12 1 0
BITMAP
1E00
6180
4080
C0C0
C0C0
C0C0
C0C0
C0C0
C0C0
4080
6180
1E00
ENDCHAR
STARTCHAR p
ENCODING 112
SWIDTH 500 0
DWIDTH 12 0
BBX 11 14 0 -2
BITMAP
2700
E9C0
70C0
6060
6060
6060
6060
6060
6060
70C0
69C0
6700
6000
F000
ENDCHAR
STARTCHAR q
ENCODING 113
SWIDTH 500 0
DWIDTH 12 0
BBX 10 14 1 -2
BITMAP
1C80
7380
6180
C180
C180
C180
C180
C180
C180
6180
7380
1D80
0180
01C0
ENDCHAR
STARTCHAR r
ENCODING 114
SWIDTH 500 0
DWIDTH 12 0
BBX 9 12 2 0
BITMAP
2300
E780
6980
7000
6000
6000
6000
6000
6000
6000
6000
F000
ENDCHAR
STARTCHAR s
ENCODING 115
SWIDTH 500 0
DWIDTH 12 0
BBX 9 12 2 0
BITMAP
3C00
4700
C300
C000
E000
7C00
1F00
0380
0180
C180
E100
3E00
ENDCHAR
STARTCHAR t
ENCODING 116
SWIDTH 500 0
DWIDTH 12 0
BBX 9 18 2 0
BITMAP
1000
3000
3000
3000
3000
3000
FF00
3000
3000
3000
3000
3000
3000
3000
3080
3080
3300
1E00
ENDCHAR
STARTCHAR u
ENCODING 117
SWIDTH 500 0
DWIDTH 12 0
BBX 11 12 0 0
BITMAP
2040
E1C0
60C0
60C0
60C0
60C0
60C0
60C0
60C0
61C0
32C0
1CE0
ENDCHAR
STARTCHAR v
ENCODING 118
SWIDTH 500 0
DWIDTH 12 0
BBX 11 12 0 0
BITMAP
F0E0
6040
6040
3080
3080
3080
1900
1900
0E00
0E00
0400
0400
ENDCHAR
STARTCHAR w
ENCODING 119
SWIDTH 500 0
DWIDTH 12 0
BBX 11 12 0 0
BITMAP
EEE0
6640
6640
6640
6B40
6B40
6B40
3180
3180
3180
3180
3180
ENDCHAR
STARTCHAR x
ENCODING 120
SWIDTH 500 0
DWIDTH 12 0
BBX 10 12 1 0
BITMAP
F1C0
6080
3100
3200
1A00
0C00
0C00
1600
1300
2300
4180
E3C0
ENDCHAR
STARTCHAR y
ENCODING 121
SWIDTH 500 0
DWIDTH 12 0
BBX 11 15 0 -3
BITMAP
F0E0
6040
3040
3080
1880
1900
0D00
0E00
0600
0400
0400
0800
C800
D000
6000
ENDCHAR
STARTCHAR z
ENCODING 122
SWIDTH 500 0
DWIDTH 12 0
BBX 10 12 1 0
BITMAP
7FC0
4180
8300
0600
0600
0C00
1800
1800
3040
6080
6080
FF80
ENDCHAR
STARTCHAR braceleft
ENCODING 123
SWIDTH 500 0
DWIDTH 12 0
BBX 10 21 1 -1
BITMAP
03C0
0400
0400
0C00
0C00
0C00
0C00
0C00
1800
1000
E000
1000
1800
0C00
0C00
0C00
0C00
0C00
0400
0400
03C0
ENDCHAR
STARTCHAR bar
ENCODING 124
SWIDTH 500 0
DWIDTH 12 0
BBX 2 22 5 -2
BITMAP
C0
C0
C0
C0
C0
C0
C0
C0
C0
C0
C0
C0
C0
C0
C0
C0
C0
C0
C0
C0
C0
C0
ENDCHAR
STARTCHAR braceright
ENCODING 125
SWIDTH 500 0
DWIDTH 12 0
BBX 10 21 1 -1
BITMAP
F000
0800
0800
0C00
0C00
0C00
0C00
0C00
0600
0200
01C0
0200
0600
0C00
0C00
0C00
0C00
0C00
0800
0800
F000
ENDCHAR
STARTCHAR uni00A0
ENCODING 160
SWIDTH 500 0
DWIDTH 12 0
BBX 1 1 11 -3
BITMAP
00
ENDCHAR
STARTCHAR cent
ENCODING 162
BBX 13 16 6 -2
BITMAP
0040
0040
0380
1CE0
3130
6130
6200
C200
C400
C408
6810
6820
31C0
1F00
2000
2000
ENDCHAR
STARTCHAR sterling
ENCODING 163
BBX 20 19 2 -1
BITMAP
007C00
018300
030180
0600C0
0600C0
060080
060000
030000
030000
7FFE00
030000
018000
018000
3D8000
478010
818020
8360C0
4E3F80
381E00
ENDCHAR
STARTCHAR yen
ENCODING 165
SWIDTH 500 0
DWIDTH 12 0
BBX 12 18 0 0
BITMAP
F070
6020
3040
3040
1880
1880
0D00
7FE0
0600
0600
0600
7FE0
0600
0600
0600
0600
0600
0F00
ENDCHAR
STARTCHAR section
ENCODING 167
BBX 11 20 6 -1
BITMAP
3F00
40C0
C060
C060
6000
3800
0F00
3780
40C0
C060
C060
7060
3EC0
0F00
01C0
0060
C060
C060
6040
1F80
ENDCHAR
STARTCHAR dieresis
ENCODING 168
BBX 6 2 9 18
BITMAP
CC
CC
ENDCHAR
STARTCHAR logicalnot
ENCODING 172
BBX 19 8 2 4
BITMAP
FFFFE0
000020
000020
000020
000020
000020
000020
000020
ENDCHAR
STARTCHAR degree
ENCODING 176
BBX 6 6 2 13
BITMAP
30
48
84
84
48
30
ENDCHAR
STARTCHAR plusminus
ENCODING 177
BBX 17 18 3 0
BITMAP
008000
008000
008000
008000
008000
008000
008000
FFFF80
008000
008000
008000
008000
008000
008000
008000
000000
000000
FFFF80
ENDCHAR
STARTCHAR acute
ENCODING 180
BBX 7 3 8 18
BITMAP
0C
3E
C0
ENDCHAR
STARTCHAR paragraph
ENCODING 182
BBX 11 23 5 -3
BITMAP
1FE0
7E20
7E20
FE20
FE20
FE20
7E20
7E20
1E20
0220
0220
0220
0220
0220
0220
0220
0220
0220
0220
0220
0220
0220
0220
ENDCHAR
STARTCHAR multiply
ENCODING 215
BBX 16 16 4 1
BITMAP
8001
4002
2004
1008
0810
0420
0240
0180
0180
0240
0420
0810
1008
2004
4002
8001
ENDCHAR
STARTCHAR divide
ENCODING 247
BBX 17 15 3 2
BITMAP
01C000
01C000
01C000
000000
000000
000000
000000
FFFF80
000000
000000
000000
000000
01C000
01C000
01C000
ENDCHAR
STARTCHAR Alpha
ENCODING 913
BBX 20 18 2 0
BITMAP
004000
004000
006000
00E000
00B000
013000
011800
021800
020C00
040C00
040600
0FFE00
080300
100300
100180
200180
2000C0
F803F0
ENDCHAR
STARTCHAR Beta
ENCODING 914
BBX 16 18 4 0
BITMAP
FFE0
3018
300C
300C
300C
300C
300C
3018
3FE0
301C
3006
3003
3003
3003
3003
3006
301C
FFE0
ENDCHAR
STARTCHAR Gamma
ENCODING 915
BBX 15 18 4 0
BITMAP
FFFE
3006
3002
3002
3002
3000
3000
3000
3000
3000
3000
3000
3000
3000
3000
3000
3000
FE00
ENDCHAR
STARTCHAR uni0394
ENCODING 916
BBX 18 18 3 0
BITMAP
008000
008000
00C000
01C000
016000
026000
023000
043000
041800
081800
080C00
100C00
100600
200600
200300
400300
7FFF80
FFFFC0
ENDCHAR
STARTCHAR Epsilon
ENCODING 917
BBX 16 18 3 0
BITMAP
FFFE
3006
3002
3002
3002
3010
3010
3030
3FF0
3030
3010
3010
3010
3001
3001
3001
3003
FFFF
ENDCHAR
STARTCHAR Zeta
ENCODING 918
BBX 16 18 4 0
BITMAP
FFFC
C018
8018
8030
8060
0060
00C0
0180
0180
0300
0600
0600
0C01
1801
3001
3001
6003
FFFF
ENDCHAR
STARTCHAR Eta
ENCODING 919
BBX 18 18 3 0
BITMAP
FC0FC0
300300
300300
300300
300300
300300
300300
3FFF00
300300
300300
300300
300300
300300
300300
300300
300300
300300
FC0FC0
ENDCHAR
STARTCHAR Theta
ENCODING 920
BBX 18 18 3 0
BITMAP
03F000
0C0C00
100200
300300
600180
600180
C000C0
C408C0
C7F8C0
C7F8C0
C408C0
C000C0
600180
600180
300300
100200
0C0C00
03F000
ENDCHAR
STARTCHAR Iota
ENCODING 921
BBX 8 18 8 0
BITMAP
FF
18
18
18
18
18
18
18
18
18
18
18
18
18
18
18
18
FF
ENDCHAR
STARTCHAR Kappa
ENCODING 922
BBX 18 18 3 0
BITMAP
FC3F00
300800
301000
302000
304000
308000
310000
320000
370000
398000
30C000
306000
303000
301800
300C00
300600
300700
FC1FC0
ENDCHAR
STARTCHAR Lambda
ENCODING 923
BBX 20 18 2 0
BITMAP
004000
004000
006000
00E000
00B000
013000
011800
021800
020C00
040C00
040600
080600
080300
100300
100180
200180
2000C0
F803F0
ENDCHAR
STARTCHAR Mu
ENCODING 924
BBX 20 18 2 0
BITMAP
FC03F0
2C02C0
2C02C0
2604C0
2604C0
2604C0
2604C0
2308C0
2308C0
2308C0
2190C0
2190C0
2190C0
20E0C0
20E0C0
20E0C0
2040C0
F843F0
ENDCHAR
STARTCHAR Nu
ENCODING 925
BBX 18 18 3 0
BITMAP
FC07C0
2C0100
260100
260100
230100
218100
218100
20C100
20C100
206100
203100
203100
201900
200D00
200D00
200700
200700
F80300
ENDCHAR
STARTCHAR Xi
ENCODING 926
BBX 16 18 4 0
BITMAP
7FFF
7FFF
4001
8002
8002
0000
1004
1FFC
3FF8
2008
0000
0000
0000
4001
4001
8002
FFFE
FFFE
ENDCHAR
STARTCHAR Omicron
ENCODING 927
BBX 18 18 3 0
BITMAP
03F000
0C0C00
100200
300300
600180
600180
C000C0
C000C0
C000C0
C000C0
C000C0
C000C0
600180
600180
300300
100200
0C0C00
03F000
ENDCHAR
STARTCHAR Pi
ENCODING 928
BBX 18 18 3 0
BITMAP
FFFFC0
180600
180600
180600
180600
180600
180600
180600
180600
180600
180600
180600
180600
180600
180600
180600
180600
7E1F80
ENDCHAR
STARTCHAR Rho
ENCODING 929
BBX 16 18 4 0
BITMAP
FFF0
300C
3006
3003
3003
3003
3003
3006
300C
3FF0
3000
3000
3000
3000
3000
3000
3000
FE00
ENDCHAR
STARTCHAR Sigma
ENCODING 931
BBX 17 18 3 0
BITMAP
FFFF00
700300
380100
1C0100
0E0100
070000
038000
01C000
00E000
00C000
018000
030000
060080
0C0080
180080
300180
7FFF80
FFFF80
ENDCHAR
STARTCHAR Tau
ENCODING 932
BBX 18 18 3 0
BITMAP
FFFFC0
C0C0C0
80C040
80C040
80C040
00C000
00C000
00C000
00C000
00C000
00C000
00C000
00C000
00C000
00C000
00C000
00C000
07F800
ENDCHAR
STARTCHAR Upsilon
ENCODING 933
BBX 20 18 2 0
BITMAP
1E0780
330CC0
419820
80F010
80F010
006000
006000
006000
006000
006000
006000
006000
006000
006000
006000
006000
006000
03FC00
ENDCHAR
STARTCHAR Phi
ENCODING 934
BBX 18 18 3 0
BITMAP
07F800
00C000
00C000
07F800
18C600
30C300
60C180
60C180
C0C0C0
C0C0C0
60C180
60C180
30C300
18C600
07F800
00C000
00C000
07F800
ENDCHAR
STARTCHAR Chi
ENCODING 935
BBX 19 18 3 0
BITMAP
7E0FC0
180200
0C0400
060800
060800
031000
01A000
01C000
00C000
00E000
013000
013800
021C00
040C00
080600
080700
100380
FC0FE0
ENDCHAR
STARTCHAR Psi
ENCODING 936
BBX 20 18 2 0
BITMAP
01F800
006000
7060E0
F861F0
986190
986190
186180
186180
186180
0C6300
0C6300
066600
036C00
00F000
006000
006000
006000
01F800
ENDCHAR
STARTCHAR uni03A9
ENCODING 937
BBX 18 18 3 0
BITMAP
03F000
0C0C00
100200
300300
600180
600180
C000C0
C000C0
C000C0
600180
600180
300300
180600
861840
821040
821040
FE1FC0
FE1FC0
ENDCHAR
STARTCHAR alpha
ENCODING 945
BBX 15 12 4 0
BITMAP
0786
1C4E
302C
6038
6030
C020
C060
C0C0
C1C4
C348
6678
3830
ENDCHAR
STARTCHAR beta
ENCODING 946
BBX 16 21 3 -3
BITMAP
0078
0086
0182
0103
0303
0203
0606
046C
0CF0
080C
0806
1806
1806
1006
340C
320C
61B8
60E0
6000
C000
C000
ENDCHAR
STARTCHAR gamma
ENCODING 947
BBX 16 15 4 -3
BITMAP
0E03
330F
4198
81A0
01C0
0180
0300
0300
0600
0600
0C00
0C00
1C00
1800
1800
ENDCHAR
STARTCHAR delta
ENCODING 948
BBX 15 18 5 0
BITMAP
0780
0860
0818
040C
0206
0106
00C0
0760
1830
3030
6030
6030
C060
C060
C0C0
4180
6300
1C00
ENDCHAR
STARTCHAR epsilon
ENCODING 949
BBX 13 12 5 0
BITMAP
07E0
1830
3008
3000
3700
1E00
6000
C008
C010
C060
7FC0
3F00
ENDCHAR
STARTCHAR zeta
ENCODING 950
BBX 14 21 5 -3
BITMAP
0700
0800
101C
107C
0FC0
0080
0300
0600
0C00
1800
3000
6000
6000
C000
F000
7F00
0FC0
00E0
3060
38C0
0F00
ENDCHAR
STARTCHAR eta
ENCODING 951
BBX 17 15 3 -3
BITMAP
0E1E00
336100
438180
830180
060180
060300
0C0300
0C0600
180600
380C00
300C00
001800
003000
007000
006000
ENDCHAR
STARTCHAR theta
ENCODING 952
BBX 16 18 4 0
BITMAP
0078
0186
0303
0603
0C03
1803
1806
3FFE
3006
600C
600C
C018
C030
C030
C060
40C0
6300
1C00
ENDCHAR
STARTCHAR iota
ENCODING 953
BBX 12 12 6 0
BITMAP
1800
1800
3000
3000
6000
6000
C010
C020
C0C0
C780
7E00
3800
ENDCHAR
STARTCHAR kappa
ENCODING 954
BBX 16 12 3 0
BITMAP
060E
063F
0C63
0CC0
1900
1BC0
34C0
38C0
6182
618C
C1F8
C0E0
ENDCHAR
STARTCHAR lambda
ENCODING 955
BBX 15 18 4 0
BITMAP
0700
0780
0080
0080
0040
0040
0040
00C0
0140
0240
0640
0C40
1840
3060
3020
6038
E01E
C00E
ENDCHAR
STARTCHAR uni03BC
ENCODING 956
BBX 19 15 2 -3
BITMAP
030180
030180
030380
060300
060300
060600
0C0600
0C0400
0C0C20
1C1440
166780
338300
600000
E00000
C00000
ENDCHAR
STARTCHAR nu
ENCODING 957
BBX 14 12 5 0
BITMAP
6000
7004
3008
3010
2030
2060
40C0
4380
4F00
FC00
F000
8000
ENDCHAR
STARTCHAR xi
ENCODING 958
BBX 14 21 4 -3
BITMAP
03F0
0400
0400
03FC
07F8
1800
2000
2000
1800
0FFC
1FF8
2000
4000
8000
FC00
7F80
03E0
0030
3030
3860
0F80
ENDCHAR
STARTCHAR omicron
ENCODING 959
BBX 13 12 5 0
BITMAP
03C0
0C30
1810
3018
6018
6018
C030
C030
C060
40C0
6180
1E00
ENDCHAR
STARTCHAR pi
ENCODING 960
BBX 16 13 4 0
BITMAP
0001
3FFE
3FFC
4C60
8C60
18C0
18C0
3180
3182
6304
6318
E3F0
C1C0
ENDCHAR
STARTCHAR rho
ENCODING 961
BBX 15 15 4 -3
BITMAP
00F0
030C
060C
0C06
0806
1806
100C
300C
2818
6470
6380
6000
C000
C000
C000
ENDCHAR
STARTCHAR sigma
ENCODING 963
BBX 15 15 5 0
BITMAP
0008
0004
0006
03FE
0FFC
1820
3010
6018
6018
C030
C030
C060
40C0
6380
1C00
ENDCHAR
STARTCHAR tau
ENCODING 964
BBX 16 13 4 0
BITMAP
0001
1FFE
3FFC
4300
8600
0600
0C00
0C00
1810
1820
18C0
1F80
0E00
ENDCHAR
STARTCHAR upsilon
ENCODING 965
BBX 14 12 5 0
BITMAP
3000
3038
300C
300C
6018
6018
C030
C060
C0C0
C180
4600
3800
ENDCHAR
STARTCHAR phi
ENCODING 966
BBX 16 21 4 -3
BITMAP
0030
0030
0030
0060
0060
0040
03F0
1C4C
30C6
6083
6083
C183
C106
C106
630C
3238
0FC0
0600
0600
0C00
0C00
ENDCHAR
STARTCHAR chi
ENCODING 967
BBX 16 15 3 -3
BITMAP
0603
0F07
118E
2098
00B0
00E0
00C0
0180
0380
0700
0D02
3904
7198
E1F0
C0E0
ENDCHAR
STARTCHAR psi
ENCODING 968
BBX 16 21 4 -3
BITMAP
0030
0030
0030
0020
0060
0060
7046
9847
18C3
3083
3083
6186
6106
610C
6318
2260
1F80
0600
0600
0C00
0C00
ENDCHAR
STARTCHAR omega
ENCODING 969
BBX 18 12 3 0
BITMAP
030200
0C0100
180180
306080
6060C0
60C0C0
C0C0C0
C1C180
C14180
C34300
464600
383800
ENDCHAR
STARTCHAR uni0401
ENCODING 1025
BBX 16 21 4 0
BITMAP
0E70
0E70
0000
FFFE
3006
3002
3002
300A
3008
3018
3FF8
3018
3008
3008
3008
3000
3001
3001
3001
3003
FFFF
ENDCHAR
STARTCHAR uni0410
ENCODING 1040
BBX 20 18 2 0
BITMAP
004000
004000
006000
00E000
00B000
013000
011800
021800
020C00
040C00
040600
0FFE00
080300
100300
100180
200180
2000C0
F803F0
ENDCHAR
STARTCHAR uni0411
ENCODING 1041
BBX 16 18 4 0
BITMAP
FFFE
3006
3002
3002
3002
3000
3000
3FE0
301C
3006
3003
3003
3003
3003
3003
3006
301C
FFE0
ENDCHAR
STARTCHAR uni0412
ENCODING 1042
BBX 16 18 4 0
BITMAP
FFE0
3018
300C
3006
3006
3006
300C
3018
3FE0
301C
3006
3003
3003
3003
3003
3006
301C
FFE0
ENDCHAR
STARTCHAR uni0413
ENCODING 1043
BBX 15 18 4 0
BITMAP
FFFE
3006
3002
3002
3002
3000
3000
3000
3000
3000
3000
3000
3000
3000
3000
3000
3000
FE00
ENDCHAR
STARTCHAR uni0414
ENCODING 1044
BBX 18 21 3 -3
BITMAP
0FFF80
010600
010600
010600
010600
010600
010600
010600
010600
010600
020600
020600
020600
040600
040600
080600
100600
FFFFC0
C000C0
800040
800040
ENDCHAR
STARTCHAR uni0415
ENCODING 1045
BBX 16 18 4 0
BITMAP
FFFE
3006
3002
3002
300A
3008
3018
3FF8
3018
3008
3008
3008
3000
3001
3001
3001
3003
FFFF
ENDCHAR
STARTCHAR uni0416
ENCODING 1046
BBX 24 18 0 0
BITMAP
307E0C
78181E
58181A
0C1830
041820
061860
021840
011880
00FF00
0318C0
061860
0C1830
0C1830
181818
181818
30180C
30180C
FC7E3F
ENDCHAR
STARTCHAR uni0417
ENCODING 1047
BBX 15 18 5 0
BITMAP
07C0
3830
E018
C00C
800C
000C
0018
0030
03E0
0018
000C
0006
0006
8006
C00E
E00C
3838
0FE0
ENDCHAR
STARTCHAR uni0418
ENCODING 1048
BBX 18 18 3 0
BITMAP
FC0FC0
300300
300300
300300
300700
300B00
301300
302300
304300
308300
310300
320300
340300
380300
300300
300300
300300
FC0FC0
ENDCHAR
STARTCHAR uni0419
ENCODING 1049
BBX 18 21 3 0
BITMAP
073800
061800
033000
F8C7C0
300300
300300
300300
300700
300B00
301300
302300
304300
308300
310300
320300
340300
380300
300300
300300
300300
FC0FC0
ENDCHAR
STARTCHAR uni041A
ENCODING 1050
BBX 18 18 3 0
BITMAP
FC0E00
301F00
303300
302000
304000
304000
308000
3F0000
31C000
30E000
306000
303000
303800
301C00
300C00
300E00
300700
FC1FC0
ENDCHAR
STARTCHAR uni041B
ENCODING 1051
BBX 18 18 2 0
BITMAP
07FFC0
008300
008300
008300
008300
008300
008300
008300
008300
008300
010300
010300
010300
620300
E20300
C40300
C80300
700FC0
ENDCHAR
STARTCHAR uni041C
ENCODING 1052
BBX 20 18 2 0
BITMAP
FC03F0
2C02C0
2C02C0
2604C0
2604C0
2604C0
2604C0
2308C0
2308C0
2308C0
2190C0
2190C0
2190C0
20E0C0
20E0C0
20E0C0
2040C0
F843F0
ENDCHAR
STARTCHAR uni041D
ENCODING 1053
BBX 18 18 3 0
BITMAP
FC0FC0
300300
300300
300300
300300
300300
300300
3FFF00
300300
300300
300300
300300
300300
300300
300300
300300
300300
FC0FC0
ENDCHAR
STARTCHAR uni041E
ENCODING 1054
BBX 18 18 3 0
BITMAP
03F000
0C0C00
180600
300300
600180
600180
C000C0
C000C0
C000C0
C000C0
C000C0
C000C0
600180
600180
300300
180600
0C0C00
03F000
ENDCHAR
STARTCHAR uni041F
ENCODING 1055
BBX 17 18 3 0
BITMAP
FFFF80
300600
300600
300600
300600
300600
300600
300600
300600
300600
300600
300600
300600
300600
300600
300600
300600
FC1F80
ENDCHAR
STARTCHAR uni0420
ENCODING 1056
BBX 15 18 5 0
BITMAP
FFC0
3038
300C
3006
3006
3006
3006
3006
300C
3038
3FC0
3000
3000
3000
3000
3000
3000
FE00
ENDCHAR
STARTCHAR uni0421
ENCODING 1057
BBX 16 18 3 0
BITMAP
01F0
060F
1803
3001
6001
6001
C000
C000
C000
C000
C000
C000
6001
6001
3003
1806
061C
01F0
ENDCHAR
STARTCHAR uni0422
ENCODING 1058
BBX 16 18 4 0
BITMAP
FFFF
C183
8181
8181
8181
0180
0180
0180
0180
0180
0180
0180
0180
0180
0180
0180
0180
07E0
ENDCHAR
STARTCHAR uni0423
ENCODING 1059
BBX 18 18 3 0
BITMAP
FC07C0
300100
300200
180200
180400
0C0400
0C0800
060800
061000
031000
032000
01A000
01C000
00C000
308000
710000
620000
3C0000
ENDCHAR
STARTCHAR uni0424
ENCODING 1060
BBX 18 18 3 0
BITMAP
03F000
00C000
00C000
07F800
18C600
30C300
60C180
60C180
C0C0C0
C0C0C0
60C180
60C180
30C300
18C600
07F800
00C000
00C000
03F000
ENDCHAR
STARTCHAR uni0425
ENCODING 1061
BBX 19 18 3 0
BITMAP
FC0FC0
380200
180400
0C0800
060800
031000
03A000
01A000
00C000
00E000
013000
023800
021800
040C00
080600
100700
200380
F80FE0
ENDCHAR
STARTCHAR uni0426
ENCODING 1062
BBX 17 21 4 -3
BITMAP
FC3F00
300C00
300C00
300C00
300C00
300C00
300C00
300C00
300C00
300C00
300C00
300C00
300C00
300C00
300C00
300C00
300C00
FFFF80
000180
000080
000080
ENDCHAR
STARTCHAR uni0427
ENCODING 1063
BBX 18 18 3 0
BITMAP
FC0FC0
300300
300300
300300
300300
300300
300300
300300
300700
180B00
1C3300
07C300
000300
000300
000300
000300
000300
000FC0
ENDCHAR
STARTCHAR uni0428
ENCODING 1064
BBX 22 18 1 0
BITMAP
FCFCFC
303030
303030
303030
303030
303030
303030
303030
303030
303030
303030
303030
303030
303030
303030
303030
303030
FFFFFC
ENDCHAR
STARTCHAR uni0429
ENCODING 1065
BBX 22 21 1 -3
BITMAP
FCFCFC
303030
303030
303030
303030
303030
303030
303030
303030
303030
303030
303030
303030
303030
303030
303030
303030
FFFFFC
00000C
000004
000004
ENDCHAR
STARTCHAR uni042A
ENCODING 1066
BBX 20 18 2 0
BITMAP
FFE000
C18000
818000
818000
818000
018000
018000
01FE00
0181C0
018060
018030
018030
018030
018030
018030
018060
0181C0
07FE00
ENDCHAR
STARTCHAR uni042B
ENCODING 1067
BBX 21 18 1 0
BITMAP
FC01F8
300060
300060
300060
300060
300060
300060
3F8060
307060
301860
300C60
300C60
300C60
300C60
300C60
301860
307060
FF81F8
ENDCHAR
STARTCHAR uni042C
ENCODING 1068
BBX 15 18 5 0
BITMAP
FC00
3000
3000
3000
3000
3000
3000
3FC0
3038
300C
3006
3006
3006
3006
3006
300C
3038
FFC0
ENDCHAR
STARTCHAR uni042D
ENCODING 1069
BBX 16 18 4 0
BITMAP
0F80
3870
E018
C00C
8006
0006
0003
0707
1FFB
20F3
0003
0003
8006
8006
C00C
E018
3860
0F80
ENDCHAR
STARTCHAR uni042E
ENCODING 1070
BBX 21 18 1 0
BITMAP
FC0F00
3030C0
306060
30C030
30C030
318018
318018
3F8018
318018
318018
318018
318018
318018
30C030
30C030
306060
3030C0
FC0F00
ENDCHAR
STARTCHAR uni042F
ENCODING 1071
BBX 17 18 3 0
BITMAP
03FF80
1C0600
300600
600600
600600
600600
600600
300600
1C0600
03FE00
018600
030600
030600
060600
0C0600
180600
300600
C01F80
ENDCHAR
STARTCHAR uni0430
ENCODING 1072
BBX 15 12 5 0
BITMAP
1F80
7860
6030
0030
0030
1FF0
6030
C030
C030
C072
61B2
1E1C
ENDCHAR
STARTCHAR uni0431
ENCODING 1073
BBX 14 18 5 0
BITMAP
0008
07F0
1FE0
3000
6000
4000
4780
9860
B030
A018
E018
C00C
C00C
6018
6018
3030
1860
0780
ENDCHAR
STARTCHAR uni0432
ENCODING 1074
BBX 13 12 5 0
BITMAP
FF80
3060
3030
3030
3060
3F80
3070
3018
3018
3018
3070
FF80
ENDCHAR
STARTCHAR uni0433
ENCODING 1075
BBX 13 12 5 0
BITMAP
FFF8
3018
3008
3008
3008
3000
3000
3000
3000
3000
3000
FE00
ENDCHAR
STARTCHAR uni0434
ENCODING 1076
BBX 14 15 4 -3
BITMAP
3FFC
0430
0430
0430
0430
0430
0430
0830
0830
1030
2030
FFFC
C00C
8004
8004
ENDCHAR
STARTCHAR uni0435
ENCODING 1077
BBX 13 12 5 0
BITMAP
0780
1860
3030
6030
6018
FFF8
C000
6000
6000
3008
1C30
07C0
ENDCHAR
STARTCHAR uni0436
ENCODING 1078
BBX 20 13 2 -1
BITMAP
21F840
7060E0
5861A0
086100
066600
01F800
026400
066600
0C6300
186180
3060C0
3060C0
F9F9F0
ENDCHAR
STARTCHAR uni0437
ENCODING 1079
BBX 12 12 6 0
BITMAP
1F80
E060
C030
8030
0060
0F80
0060
0030
8030
C030
F060
1F80
ENDCHAR
STARTCHAR uni0438
ENCODING 1080
BBX 16 12 4 0
BITMAP
FC3F
300C
301C
302C
304C
308C
310C
320C
340C
380C
300C
FC3F
ENDCHAR
STARTCHAR uni0439
ENCODING 1081
BBX 16 16 4 0
BITMAP
0E70
0C30
0660
0180
FC3F
300C
301C
302C
304C
308C
310C
320C
340C
380C
300C
FC3F
ENDCHAR
STARTCHAR uni043A
ENCODING 1082
BBX 15 12 5 0
BITMAP
FC70
3098
3118
3200
3E00
3300
3180
30C0
3060
3030
3038
FCFE
ENDCHAR
STARTCHAR uni043B
ENCODING 1083
BBX 16 12 3 0
BITMAP
0FFF
010C
010C
010C
010C
010C
010C
620C
E20C
C20C
640C
383F
ENDCHAR
STARTCHAR uni043C
ENCODING 1084
BBX 18 12 3 0
BITMAP
F807C0
380700
2C0B00
2C0B00
261300
261300
232300
232300
21C300
21C300
208300
F88FC0
ENDCHAR
STARTCHAR uni043D
ENCODING 1085
BBX 16 12 4 0
BITMAP
FC3F
300C
300C
300C
300C
3FFC
300C
300C
300C
300C
300C
FC3F
ENDCHAR
STARTCHAR uni043E
ENCODING 1086
BBX 14 12 5 0
BITMAP
0780
1860
3030
6018
6018
C00C
C00C
6018
6018
3030
1860
0780
ENDCHAR
STARTCHAR uni043F
ENCODING 1087
BBX 14 12 5 0
BITMAP
FFFC
3030
3030
3030
3030
3030
3030
3030
3030
3030
3030
FCFC
ENDCHAR
STARTCHAR uni0440
ENCODING 1088
BBX 15 15 4 -3
BITMAP
11E0
F618
380C
300C
3006
3006
300C
380C
3618
31E0
3000
3000
3000
3000
FC00
ENDCHAR
STARTCHAR uni0441
ENCODING 1089
BBX 13 12 5 0
BITMAP
0780
1860
3030
6030
6000
C000
C000
6000
6008
3010
1860
0780
ENDCHAR
STARTCHAR uni0442
ENCODING 1090
BBX 12 12 6 0
BITMAP
FFF0
C630
8610
8610
0600
0600
0600
0600
0600
0600
0600
1F80
ENDCHAR
STARTCHAR uni0443
ENCODING 1091
BBX 15 15 5 -3
BITMAP
FC3E
3008
1810
1810
0C20
0C40
0640
0680
0300
0300
0200
6400
E400
C800
7000
ENDCHAR
STARTCHAR uni0444
ENCODING 1092
BBX 16 21 4 -3
BITMAP
0080
0780
0180
0180
0180
0180
1DB8
23C4
63C6
C183
C183
C183
C183
C183
C183
63C6
23C4
1DB8
0180
0180
07E0
ENDCHAR
STARTCHAR uni0445
ENCODING 1093
BBX 16 12 4 0
BITMAP
FE7E
3810
1C20
0E40
0780
0380
03C0
04E0
0870
1038
201C
F87F
ENDCHAR
STARTCHAR uni0446
ENCODING 1094
BBX 14 15 5 -3
BITMAP
FCFC
3030
3030
3030
3030
3030
3030
3030
3030
3030
3030
FFFC
000C
0004
0004
ENDCHAR
STARTCHAR uni0447
ENCODING 1095
BBX 14 12 5 0
BITMAP
FCFC
3030
3030
3030
3030
3070
18B0
0730
0030
0030
0030
00FC
ENDCHAR
STARTCHAR uni0448
ENCODING 1096
BBX 18 12 3 0
BITMAP
FBEFC0
30C300
30C300
30C300
30C300
30C300
30C300
30C300
30C300
30C300
30C300
FFFFC0
ENDCHAR
STARTCHAR uni0449
ENCODING 1097
BBX 18 15 3 -3
BITMAP
FBEFC0
30C300
30C300
30C300
30C300
30C300
30C300
30C300
30C300
30C300
30C300
FFFFC0
0000C0
000040
000040
ENDCHAR
STARTCHAR uni044A
ENCODING 1098
BBX 16 12 4 0
BITMAP
FFC0
C300
8300
8300
03F8
0306
0303
0303
0303
0303
0306
0FF8
ENDCHAR
STARTCHAR uni044B
ENCODING 1099
BBX 18 12 3 0
BITMAP
FC0FC0
300300
300300
300300
3F0300
30C300
306300
306300
306300
306300
30C300
FF0FC0
ENDCHAR
STARTCHAR uni044C
ENCODING 1100
BBX 12 12 6 0
BITMAP
FC00
3000
3000
3000
3F80
3060
3030
3030
3030
3030
3060
FF80
ENDCHAR
STARTCHAR uni044D
ENCODING 1101
BBX 13 12 6 0
BITMAP
0F00
30C0
6060
4030
0C30
1FD8
2198
0030
8030
4060
30C0
0F00
ENDCHAR
STARTCHAR uni044E
ENCODING 1102
BBX 18 12 3 0
BITMAP
FC1C00
306300
30C180
30C180
3180C0
3F80C0
3180C0
3180C0
30C180
30C180
306300
FC1C00
ENDCHAR
STARTCHAR uni044F
ENCODING 1103
BBX 15 12 4 0
BITMAP
07FE
1818
3018
3018
3018
1818
07F8
0618
0C18
1818
3018
FC7E
ENDCHAR
STARTCHAR uni0451
ENCODING 1105
BBX 13 17 5 0
BITMAP
1CE0
1CE0
0000
0000
0000
0780
1860
3030
6030
6018
FFF8
C000
6000
6000
3008
1C30
07C0
ENDCHAR
STARTCHAR uni2000
ENCODING 8192
BBX 1 1 23 -3
BITMAP
00
ENDCHAR
STARTCHAR uni2001
ENCODING 8193
BBX 1 1 23 -3
BITMAP
00
ENDCHAR
STARTCHAR uni2002
ENCODING 8194
BBX 1 1 23 -3
BITMAP
00
ENDCHAR
STARTCHAR uni2003
ENCODING 8195
BBX 1 1 23 -3
BITMAP
00
ENDCHAR
STARTCHAR uni2004
ENCODING 8196
BBX 1 1 23 -3
BITMAP
00
ENDCHAR
STARTCHAR uni2005
ENCODING 8197
BBX 1 1 23 -3
BITMAP
00
ENDCHAR
STARTCHAR uni2006
ENCODING 8198
BBX 1 1 23 -3
BITMAP
00
ENDCHAR
STARTCHAR uni2007
ENCODING 8199
BBX 1 1 23 -3
BITMAP
00
ENDCHAR
STARTCHAR uni2008
ENCODING 8200
BBX 1 1 23 -3
BITMAP
00
ENDCHAR
STARTCHAR uni2009
ENCODING 8201
BBX 1 1 23 -3
BITMAP
00
ENDCHAR
STARTCHAR uni200A
ENCODING 8202
BBX 1 1 23 -3
BITMAP
00
ENDCHAR
STARTCHAR uni200B
ENCODING 8203
SWIDTH 500 0
DWIDTH 12 0
BBX 1 1 0 0
BITMAP
00
ENDCHAR
STARTCHAR uni200C
ENCODING 8204
SWIDTH 500 0
DWIDTH 12 0
BBX 1 1 0 0
BITMAP
00
ENDCHAR
STARTCHAR uni200D
ENCODING 8205
SWIDTH 500 0
DWIDTH 12 0
BBX 1 1 0 0
BITMAP
00
ENDCHAR
STARTCHAR uni200E
ENCODING 8206
SWIDTH 500 0
DWIDTH 12 0
BBX 1 1 0 0
BITMAP
00
ENDCHAR
STARTCHAR uni200F
ENCODING 8207
SWIDTH 500 0
DWIDTH 12 0
BBX 1 1 0 0
BITMAP
00
ENDCHAR
STARTCHAR uni2010
ENCODING 8208
BBX 8 1 8 9
BITMAP
FF
ENDCHAR
STARTCHAR uni2015
ENCODING 8213
BBX 24 1 0 9
BITMAP
FFFFFF
ENDCHAR
STARTCHAR uni2016
ENCODING 8214
BBX 5 24 9 -3
BITMAP
88
88
88
88
88
88
88
88
88
88
88
88
88
88
88
88
88
88
88
88
88
88
88
88
ENDCHAR
STARTCHAR quoteleft
ENCODING 8216
BBX 4 7 17 14
BITMAP
10
20
40
C0
E0
E0
40
ENDCHAR
STARTCHAR quoteright
ENCODING 8217
BBX 4 7 3 14
BITMAP
20
70
70
30
20
40
80
ENDCHAR
STARTCHAR quotedblleft
ENCODING 8220
BBX 9 7 14 14
BITMAP
1080
2100
4200
C600
E700
E700
4200
ENDCHAR
STARTCHAR quotedblright
ENCODING 8221
BBX 9 7 1 14
BITMAP
2100
7380
7380
3180
2100
4200
8400
ENDCHAR
STARTCHAR dagger
ENCODING 8224
BBX 11 24 6 -3
BITMAP
0400
0E00
0E00
0400
64C0
FFE0
64C0
0400
0400
0E00
1F00
0E00
0E00
0E00
0E00
0E00
0E00
0400
0400
0400
0400
0400
0400
0400
ENDCHAR
STARTCHAR daggerdbl
ENCODING 8225
BBX 11 24 6 -3
BITMAP
0400
0E00
0E00
0400
64C0
FFE0
64C0
0400
1F00
0E00
0400
0400
0400
0400
0E00
1F00
0400
64C0
FFE0
64C0
0400
0E00
0E00
0400
ENDCHAR
STARTCHAR twodotenleader
ENCODING 8229
BBX 16 3 4 8
BITMAP
E007
E007
E007
ENDCHAR
STARTCHAR ellipsis
ENCODING 8230
BBX 21 3 1 8
BITMAP
E07038
E07038
E07038
ENDCHAR
STARTCHAR perthousand
ENCODING 8240
BBX 23 22 0 -2
BITMAP
180000
660400
420800
C31000
C31000
C32000
C34000
424000
668000
190000
010000
020000
046030
0598CC
090884
130D86
130D86
230D86
430D86
410884
8198CC
006030
ENDCHAR
STARTCHAR minute
ENCODING 8242
BBX 5 6 3 14
BITMAP
20
38
30
60
40
80
ENDCHAR
STARTCHAR second
ENCODING 8243
BBX 10 6 1 14
BITMAP
2100
39C0
3180
6300
4200
8400
ENDCHAR
STARTCHAR uni203B
ENCODING 8251
BBX 19 19 2 0
BITMAP
800020
40E040
20E080
10E100
080200
040400
020800
011000
70A1C0
7041C0
70A1C0
011000
020800
040400
080200
10E100
20E080
40E040
800020
ENDCHAR
STARTCHAR uni203E
ENCODING 8254
SWIDTH 500 0
DWIDTH 12 0
BBX 10 1 1 18
BITMAP
FFC0
ENDCHAR
STARTCHAR uni2103
ENCODING 8451
BBX 23 20 0 -1
BITMAP
300000
4807C0
841834
84601C
48C00C
318004
018004
030004
030000
030000
030000
030000
030000
030000
018002
018004
00C008
006010
003060
000F80
ENDCHAR
STARTCHAR uni2116
ENCODING 8470
BBX 23 18 1 0
BITMAP
E1C000
708000
708000
508000
588000
588000
588380
4C8C60
4C8830
4C9830
469830
469830
469830
439830
439830
438820
418C66
E18386
ENDCHAR
STARTCHAR uni2121
ENCODING 8481
BBX 23 18 0 0
BITMAP
FFE000
CC6000
8C2000
8C2000
0C0000
0C0000
0CFEF0
0C6660
0C6260
0C6460
0C6460
0C7C60
0C6460
0C6460
0C6262
0C6262
0C6666
3FFEFE
ENDCHAR
STARTCHAR uni212B
ENCODING 8491
BBX 20 22 2 -1
BITMAP
006000
009000
010800
010800
009000
006000
000000
006000
006000
00B000
00B000
011800
011800
020C00
020C00
040600
040600
0FFF00
080300
100180
100180
FC07F0
ENDCHAR
STARTCHAR uni2160
ENCODING 8544
BBX 8 20 8 -1
BITMAP
FF
18
18
18
18
18
18
18
18
18
18
18
18
18
18
18
18
18
18
FF
ENDCHAR
STARTCHAR uni2161
ENCODING 8545
BBX 12 20 6 -1
BITMAP
FFF0
30C0
30C0
30C0
30C0
30C0
30C0
30C0
30C0
30C0
30C0
30C0
30C0
30C0
30C0
30C0
30C0
30C0
30C0
FFF0
ENDCHAR
STARTCHAR uni2162
ENCODING 8546
BBX 16 20 4 -1
BITMAP
FFFF
318C
318C
318C
318C
318C
318C
318C
318C
318C
318C
318C
318C
318C
318C
318C
318C
318C
318C
FFFF
ENDCHAR
STARTCHAR uni2163
ENCODING 8547
BBX 20 20 2 -1
BITMAP
FFE1F0
1B0040
1B0040
198080
198080
198080
198080
18C100
18C100
18C100
186200
186200
186200
186200
183400
183400
183400
181800
181800
FF1800
ENDCHAR
STARTCHAR uni2164
ENCODING 8548
BBX 18 20 3 -1
BITMAP
FC07C0
300100
300100
180200
180200
180200
0C0400
0C0400
0C0400
060800
060800
060800
031000
031000
031000
01A000
01A000
00C000
00C000
00C000
ENDCHAR
STARTCHAR uni2165
ENCODING 8549
BBX 20 20 1 -1
BITMAP
FC3FF0
300580
300580
180980
180980
180980
180980
0C1180
0C1180
0C1180
062180
062180
062180
062180
034180
034180
034180
018180
018180
018FF0
ENDCHAR
STARTCHAR uni2166
ENCODING 8550
BBX 21 20 1 -1
BITMAP
FC7FF8
301660
301660
301660
182660
182660
182660
182660
0C4660
0C4660
0C4660
0C4660
068660
068660
068660
068660
030660
030660
030660
031FF8
ENDCHAR
STARTCHAR uni2167
ENCODING 8551
BBX 23 20 0 -1
BITMAP
F8FFFE
602CCC
602CCC
602CCC
304CCC
304CCC
304CCC
304CCC
188CCC
188CCC
188CCC
188CCC
0D0CCC
0D0CCC
0D0CCC
0D0CCC
060CCC
060CCC
060CCC
063FFE
ENDCHAR
STARTCHAR uni2168
ENCODING 8552
BBX 20 20 2 -1
BITMAP
FFE3F0
1B0080
198080
198100
18C100
18C200
186200
186400
183400
183800
181800
181C00
182C00
182600
184600
184300
188180
188180
1900C0
FFE7F0
ENDCHAR
STARTCHAR uni2169
ENCODING 8553
BBX 18 20 3 -1
BITMAP
FE1FC0
300200
180400
0C0400
0C0800
060800
031000
032000
01A000
00C000
00E000
016000
013000
021800
021800
040C00
080600
080600
100300
FE1FC0
ENDCHAR
STARTCHAR arrowleft
ENCODING 8592
BBX 24 9 0 5
BITMAP
020000
040000
080000
300000
FFFFFF
300000
080000
040000
020000
ENDCHAR
STARTCHAR arrowup
ENCODING 8593
BBX 9 24 7 -3
BITMAP
0800
0800
1C00
1C00
2A00
4900
8880
0800
0800
0800
0800
0800
0800
0800
0800
0800
0800
0800
0800
0800
0800
0800
0800
0800
ENDCHAR
STARTCHAR arrowright
ENCODING 8594
BBX 24 9 0 5
BITMAP
000040
000020
000010
00000C
FFFFFF
00000C
000010
000020
000040
ENDCHAR
STARTCHAR arrowdown
ENCODING 8595
BBX 9 24 7 -3
BITMAP
0800
0800
0800
0800
0800
0800
0800
0800
0800
0800
0800
0800
0800
0800
0800
0800
0800
8880
4900
2A00
1C00
1C00
0800
0800
ENDCHAR
STARTCHAR arrowdblright
ENCODING 8658
BBX 24 14 0 2
BITMAP
000040
000020
000010
000008
FFFFFC
000002
000001
000001
000002
FFFFFC
000008
000010
000020
000040
ENDCHAR
STARTCHAR arrowdblboth
ENCODING 8660
BBX 24 14 0 2
BITMAP
020040
040020
080010
100008
3FFFFC
400002
800001
800001
400002
3FFFFC
100008
080010
040020
020040
ENDCHAR
STARTCHAR universal
ENCODING 8704
BBX 19 20 2 -1
BITMAP
800020
800020
400040
400040
200080
200080
1FFF00
100100
080200
080200
040400
040400
020800
020800
011000
011000
00A000
00A000
004000
004000
ENDCHAR
STARTCHAR partialdiff
ENCODING 8706
BBX 14 18 5 0
BITMAP
00F0
01F8
060C
0804
0004
000C
000C
078C
1858
3038
6018
6030
C030
C060
C060
40C0
6180
1E00
ENDCHAR
STARTCHAR existential
ENCODING 8707
BBX 14 15 5 2
BITMAP
FFFC
0004
0004
0004
0004
0004
0004
FFFC
0004
0004
0004
0004
0004
0004
FFFC
ENDCHAR
STARTCHAR gradient
ENCODING 8711
BBX 20 18 2 0
BITMAP
FFFFF0
7FFFE0
300040
300040
180080
180080
0C0100
0C0100
060200
060200
030400
030400
018800
018800
00D000
00D000
006000
006000
ENDCHAR
STARTCHAR element
ENCODING 8712
BBX 14 13 5 3
BITMAP
0FFC
3000
4000
4000
8000
8000
FFFC
8000
8000
4000
4000
3000
0FFC
ENDCHAR
STARTCHAR suchthat
ENCODING 8715
BBX 14 13 5 3
BITMAP
FFC0
0030
0008
0008
0004
0004
FFFC
0004
0004
0008
0008
0030
FFC0
ENDCHAR
STARTCHAR summation
ENCODING 8721
BBX 16 18 3 0
BITMAP
FFFE
3006
1802
0C02
0600
0300
0180
00C0
0060
00C0
0180
0300
0600
0C01
1801
3003
7FFF
FFFF
ENDCHAR
STARTCHAR minus
ENCODING 8722
BBX 17 1 3 9
BITMAP
FFFF80
ENDCHAR
STARTCHAR radical
ENCODING 8730
BBX 22 21 0 -2
BITMAP
0007FC
000400
000C00
000800
000800
001800
001000
003000
002000
002000
206000
304000
70C000
588000
988000
0D8000
0D0000
070000
060000
020000
020000
ENDCHAR
STARTCHAR proportional
ENCODING 8733
BBX 21 12 1 3
BITMAP
0E01C0
318630
404808
404808
803000
802000
801000
803000
404808
404808
318630
0E01C0
ENDCHAR
STARTCHAR infinity
ENCODING 8734
BBX 22 12 1 3
BITMAP
0E01C0
318630
404808
404808
803004
802004
801004
803004
404808
404808
318630
0E01C0
ENDCHAR
STARTCHAR orthogonal
ENCODING 8735
BBX 18 18 3 2
BITMAP
800000
800000
800000
800000
800000
800000
800000
800000
800000
800000
800000
800000
800000
800000
800000
800000
800000
FFFFC0
ENDCHAR
STARTCHAR angle
ENCODING 8736
BBX 17 16 4 2
BITMAP
000100
000200
000400
000800
001000
002000
004000
008000
010000
020000
040000
080000
100000
200000
400000
FFFF80
ENDCHAR
STARTCHAR logicaland
ENCODING 8743
BBX 19 20 2 -1
BITMAP
004000
004000
00A000
00A000
011000
011000
020800
020800
040400
040400
080200
080200
100100
100100
200080
200080
400040
400040
800020
800020
ENDCHAR
STARTCHAR logicalor
ENCODING 8744
BBX 19 20 2 -1
BITMAP
800020
800020
400040
400040
200080
200080
100100
100100
080200
080200
040400
040400
020800
020800
011000
011000
00A000
00A000
004000
004000
ENDCHAR
STARTCHAR intersection
ENCODING 8745
BBX 13 20 5 -1
BITMAP
0700
18C0
2020
4010
4010
8008
8008
8008
8008
8008
8008
8008
8008
8008
8008
8008
8008
8008
8008
8008
ENDCHAR
STARTCHAR union
ENCODING 8746
BBX 13 20 5 -1
BITMAP
8008
8008
8008
8008
8008
8008
8008
8008
8008
8008
8008
8008
8008
8008
8008
4010
4010
2020
18C0
0700
ENDCHAR
STARTCHAR integral
ENCODING 8747
BBX 14 24 5 -3
BITMAP
0070
00C8
018C
019C
0198
0300
0300
0300
0300
0300
0300
0300
0300
0300
0300
0300
0300
0300
0300
6600
E600
C600
4C00
3800
ENDCHAR
STARTCHAR uni222C
ENCODING 8748
BBX 16 24 4 -3
BITMAP
0C0C
1E1E
2323
2727
2626
2020
3030
3030
3030
3838
1818
1818
1818
1C1C
0C0C
0C0C
0C0C
0C0C
0404
6464
E4E4
C4C4
7878
3030
ENDCHAR
STARTCHAR uni222E
ENCODING 8750
BBX 14 24 5 -3
BITMAP
0070
00C8
018C
019C
0198
0300
0300
0FC0
1320
2310
2310
2310
2310
2310
1320
0FC0
0300
0300
0300
6600
E600
C600
4C00
3800
ENDCHAR
STARTCHAR therefore
ENCODING 8756
BBX 17 15 3 2
BITMAP
01C000
01C000
01C000
000000
000000
000000
000000
000000
000000
000000
000000
000000
E00380
E00380
E00380
ENDCHAR
STARTCHAR uni2235
ENCODING 8757
BBX 16 16 4 1
BITMAP
6006
F00F
F00F
6006
0000
0000
0000
0000
0000
0000
0000
0000
0180
03C0
03C0
0180
ENDCHAR
STARTCHAR uni223D
ENCODING 8765
BBX 22 12 1 3
BITMAP
0E01C0
310630
408808
401008
801004
802004
802004
802004
404008
404408
318230
0E01C0
ENDCHAR
STARTCHAR uni2252
ENCODING 8786
BBX 18 19 3 0
BITMAP
0C0000
1E0000
0C0000
000000
000000
000000
FFFFC0
FFFFC0
000000
000000
000000
FFFFC0
FFFFC0
000000
000000
000000
000C00
001E00
000C00
ENDCHAR
STARTCHAR notequal
ENCODING 8800
BBX 17 16 3 1
BITMAP
001000
001000
002000
002000
004000
FFFF80
004000
008000
008000
010000
FFFF80
010000
020000
020000
040000
040000
ENDCHAR
STARTCHAR equivalence
ENCODING 8801
BBX 18 12 3 3
BITMAP
FFFFC0
FFFFC0
000000
000000
000000
FFFFC0
FFFFC0
000000
000000
000000
FFFFC0
FFFFC0
ENDCHAR
STARTCHAR uni2266
ENCODING 8806
BBX 17 19 3 0
BITMAP
000180
000E00
003000
01C000
060000
380000
C00000
380000
060000
01C000
003000
000E00
000180
000000
FFFF80
000000
000000
000000
FFFF80
ENDCHAR
STARTCHAR uni2267
ENCODING 8807
BBX 17 19 3 0
BITMAP
C00000
380000
060000
01C000
003000
000E00
000180
000E00
003000
01C000
060000
380000
C00000
000000
FFFF80
000000
000000
000000
FFFF80
ENDCHAR
STARTCHAR uni226A
ENCODING 8810
BBX 20 19 2 0
BITMAP
000C30
001040
006180
008200
010400
061800
082000
104000
618000
820000
618000
104000
082000
061800
010400
008200
006180
001040
000C30
ENDCHAR
STARTCHAR uni226B
ENCODING 8811
BBX 20 19 2 0
BITMAP
C30000
208000
186000
041000
020800
018600
004100
002080
001860
000410
001860
002080
004100
018600
020800
041000
186000
208000
C30000
ENDCHAR
STARTCHAR propersubset
ENCODING 8834
BBX 18 14 3 2
BITMAP
07FFC0
180000
200000
400000
400000
800000
800000
800000
800000
400000
400000
200000
180000
07FFC0
ENDCHAR
STARTCHAR propersuperset
ENCODING 8835
BBX 18 14 3 2
BITMAP
FFF800
000600
000100
000080
000080
000040
000040
000040
000040
000080
000080
000100
000600
FFF800
ENDCHAR
STARTCHAR reflexsubset
ENCODING 8838
BBX 18 16 3 1
BITMAP
0FFFC0
300000
400000
400000
800000
800000
800000
800000
400000
400000
300000
0FFFC0
000000
000000
000000
FFFFC0
ENDCHAR
STARTCHAR reflexsuperset
ENCODING 8839
BBX 18 16 3 1
BITMAP
FFFC00
000300
000080
000080
000040
000040
000040
000040
000080
000080
000300
FFFC00
000000
000000
000000
FFFFC0
ENDCHAR
STARTCHAR perpendicular
ENCODING 8869
BBX 19 18 2 2
BITMAP
004000
004000
004000
004000
004000
004000
004000
004000
004000
004000
004000
004000
004000
004000
004000
004000
004000
FFFFE0
ENDCHAR
STARTCHAR uni22BF
ENCODING 8895
BBX 16 16 3 2
BITMAP
0001
0003
0005
0009
0011
0021
0041
0081
0101
0201
0401
0801
1001
2001
4001
FFFF
ENDCHAR
STARTCHAR uni2312
ENCODING 8978
BBX 24 4 0 17
BITMAP
01FF80
1FFFF8
70000E
800001
ENDCHAR
STARTCHAR uni2460
ENCODING 9312
BBX 22 22 1 -2
BITMAP
00FC00
030300
0C00C0
103020
207010
21F010
403008
403008
803004
803004
803004
803004
803004
803004
403008
403008
203010
21FE10
100020
0C00C0
030300
00FC00
ENDCHAR
STARTCHAR uni2461
ENCODING 9313
BBX 22 22 1 -2
BITMAP
00FC00
030300
0C00C0
107820
218610
230610
430308
400308
800304
800604
800C04
801004
802004
804004
408108
410108
23FF10
23FF10
100020
0C00C0
030300
00FC00
ENDCHAR
STARTCHAR uni2462
ENCODING 9314
BBX 22 22 1 -2
BITMAP
00FC00
030300
0C00C0
10F020
218C10
230610
430608
400608
800C04
80FC04
800604
800304
800304
830304
430308
430308
218610
207810
100020
0C00C0
030300
00FC00
ENDCHAR
STARTCHAR uni2463
ENCODING 9315
BBX 22 22 1 -2
BITMAP
00FC00
030300
0C00C0
101820
203810
203810
405808
405808
809804
809804
811804
811804
821804
87FF04
401808
401808
201810
207E10
100020
0C00C0
030300
00FC00
ENDCHAR
STARTCHAR uni2464
ENCODING 9316
BBX 22 22 1 -2
BITMAP
00FC00
030300
0C00C0
100020
21FE10
21FE10
410008
410008
810004
81F804
818604
810304
800304
800304
430308
430308
218610
207810
100020
0C00C0
030300
00FC00
ENDCHAR
STARTCHAR uni2465
ENCODING 9317
BBX 22 22 1 -2
BITMAP
00FC00
030300
0C00C0
100020
207810
218610
410308
430308
830004
830004
837C04
838604
830304
830304
430308
410308
218610
207810
100020
0C00C0
030300
00FC00
ENDCHAR
STARTCHAR uni2466
ENCODING 9318
BBX 22 22 1 -2
BITMAP
00FC00
030300
0C00C0
100020
23FF10
23FF10
420208
420408
800404
800804
801804
801004
803004
802004
406008
406008
20C010
20C010
100020
0C00C0
030300
00FC00
ENDCHAR
STARTCHAR uni2467
ENCODING 9319
BBX 22 22 1 -2
BITMAP
00FC00
030300
0C00C0
107820
208410
218610
418608
418608
808404
807804
818604
810204
830304
830304
430308
410208
218610
207810
100020
0C00C0
030300
00FC00
ENDCHAR
STARTCHAR uni2468
ENCODING 9320
BBX 22 22 1 -2
BITMAP
00FC00
030300
0C00C0
100020
207810
218610
430208
430308
830304
830304
818704
80FB04
800304
800304
430308
430208
218610
207810
100020
0C00C0
030300
00FC00
ENDCHAR
STARTCHAR uni2469
ENCODING 9321
BBX 22 22 1 -2
BITMAP
00FC00
030300
0C00C0
100020
210E10
231110
4F3188
433188
833184
833184
833184
833184
833184
833184
433188
433188
231110
2FCE10
100020
0C00C0
030300
00FC00
ENDCHAR
STARTCHAR uni246A
ENCODING 9322
BBX 22 22 1 -2
BITMAP
00FC00
030300
0C00C0
100020
208210
218610
479E08
418608
818604
818604
818604
818604
818604
818604
418608
418608
218610
27DF90
100020
0C00C0
030300
00FC00
ENDCHAR
STARTCHAR uni246B
ENCODING 9323
BBX 22 22 1 -2
BITMAP
00FC00
030300
0C00C0
100020
210E10
231110
4F3188
433188
830184
830304
830604
830C04
830804
831004
431088
432088
233F90
2FFF90
100020
0C00C0
030300
00FC00
ENDCHAR
STARTCHAR uni246C
ENCODING 9324
BBX 22 22 1 -2
BITMAP
00FC00
030300
0C00C0
100020
210E10
231110
4F3188
433188
830184
830304
830E04
830304
830184
830184
433188
433188
231110
2FCE10
100020
0C00C0
030300
00FC00
ENDCHAR
STARTCHAR uni246D
ENCODING 9325
BBX 22 22 1 -2
BITMAP
00FC00
030300
0C00C0
100020
210310
230710
4F0708
430B08
830B04
831304
831304
832304
833FC4
830304
430308
430308
230310
2FCFD0
100020
0C00C0
030300
00FC00
ENDCHAR
STARTCHAR uni246E
ENCODING 9326
BBX 22 22 1 -2
BITMAP
00FC00
030300
0C00C0
100020
211F10
231F10
4F1008
431008
831E04
831904
831184
830184
830184
830184
433188
433188
231110
2FCE10
100020
0C00C0
030300
00FC00
ENDCHAR
STARTCHAR uni246F
ENCODING 9327
BBX 22 22 1 -2
BITMAP
00FC00
030300
0C00C0
100020
210E10
231310
4F3308
433008
833004
833604
833904
833184
833184
833184
433188
433188
231110
2FCE10
100020
0C00C0
030300
00FC00
ENDCHAR
STARTCHAR uni2470
ENCODING 9328
BBX 22 22 1 -2
BITMAP
00FC00
030300
0C00C0
100020
213F90
233F90
4F2108
432108
830204
830204
830604
830404
830C04
830C04
430808
431808
231810
2FD810
100020
0C00C0
030300
00FC00
ENDCHAR
STARTCHAR uni2471
ENCODING 9329
BBX 22 22 1 -2
BITMAP
00FC00
030300
0C00C0
100020
210E10
231110
4F3188
433188
833184
831104
831F04
833184
833184
833184
433188
433188
231110
2FCE10
100020
0C00C0
030300
00FC00
ENDCHAR
STARTCHAR uni2472
ENCODING 9330
BBX 22 22 1 -2
BITMAP
00FC00
030300
0C00C0
100020
210E10
231110
4F3188
433188
833184
833184
833384
831D84
830184
830184
433188
433188
231110
2FCE10
100020
0C00C0
030300
00FC00
ENDCHAR
STARTCHAR uni2473
ENCODING 9331
BBX 22 22 1 -2
BITMAP
00FC00
030300
0C00C0
100020
238610
24C910
4CD988
4CD988
80D984
809984
819984
811984
821984
821984
445988
445988
2FC910
2FC610
100020
0C00C0
030300
00FC00
ENDCHAR
STARTCHAR SF100000
ENCODING 9472
BBX 24 1 0 9
BITMAP
FFFFFF
ENDCHAR
STARTCHAR uni2501
ENCODING 9473
BBX 24 3 0 8
BITMAP
FFFFFF
FFFFFF
FFFFFF
ENDCHAR
STARTCHAR SF110000
ENCODING 9474
BBX 1 24 11 -3
BITMAP
80
80
80
80
80
80
80
80
80
80
80
80
80
80
80
80
80
80
80
80
80
80
80
80
ENDCHAR
STARTCHAR uni2503
ENCODING 9475
BBX 3 24 10 -3
BITMAP
E0
E0
E0
E0
E0
E0
E0
E0
E0
E0
E0
E0
E0
E0
E0
E0
E0
E0
E0
E0
E0
E0
E0
E0
ENDCHAR
STARTCHAR uni2504
ENCODING 9476
BBX 23 1 0 9
BITMAP
DB6DB6
ENDCHAR
STARTCHAR uni2505
ENCODING 9477
BBX 23 3 0 8
BITMAP
DB6DB6
DB6DB6
DB6DB6
ENDCHAR
STARTCHAR uni2506
ENCODING 9478
BBX 1 23 11 -2
BITMAP
80
80
00
80
80
00
80
80
00
80
80
00
80
80
00
80
80
00
80
80
00
80
80
ENDCHAR
STARTCHAR uni2507
ENCODING 9479
BBX 3 23 10 -2
BITMAP
E0
E0
00
E0
E0
00
E0
E0
00
E0
E0
00
E0
E0
00
E0
E0
00
E0
E0
00
E0
E0
ENDCHAR
STARTCHAR uni2508
ENCODING 9480
BBX 22 1 0 9
BITMAP
924924
ENDCHAR
STARTCHAR uni2509
ENCODING 9481
BBX 22 3 0 8
BITMAP
924924
924924
924924
ENDCHAR
STARTCHAR uni250A
ENCODING 9482
BBX 1 22 11 -1
BITMAP
80
00
00
80
00
00
80
00
00
80
00
00
80
00
00
80
00
00
80
00
00
80
ENDCHAR
STARTCHAR uni250B
ENCODING 9483
BBX 3 22 10 -1
BITMAP
E0
00
00
E0
00
00
E0
00
00
E0
00
00
E0
00
00
E0
00
00
E0
00
00
E0
ENDCHAR
STARTCHAR SF010000
ENCODING 9484
BBX 13 13 11 -3
BITMAP
FFF8
8000
8000
8000
8000
8000
8000
8000
8000
8000
8000
8000
8000
ENDCHAR
STARTCHAR uni250D
ENCODING 9485
BBX 13 14 11 -3
BITMAP
FFF8
FFF8
FFF8
8000
8000
8000
8000
8000
8000
8000
8000
8000
8000
8000
ENDCHAR
STARTCHAR uni250E
ENCODING 9486
BBX 14 13 10 -3
BITMAP
FFFC
E000
E000
E000
E000
E000
E000
E000
E000
E000
E000
E000
E000
ENDCHAR
STARTCHAR uni250F
ENCODING 9487
BBX 14 14 10 -3
BITMAP
FFFC
FFFC
FFFC
E000
E000
E000
E000
E000
E000
E000
E000
E000
E000
E000
ENDCHAR
STARTCHAR SF030000
ENCODING 9488
BBX 12 13 0 -3
BITMAP
FFF0
0010
0010
0010
0010
0010
0010
0010
0010
0010
0010
0010
0010
ENDCHAR
STARTCHAR uni2511
ENCODING 9489
BBX 12 14 0 -3
BITMAP
FFF0
FFF0
FFF0
0010
0010
0010
0010
0010
0010
0010
0010
0010
0010
0010
ENDCHAR
STARTCHAR uni2512
ENCODING 9490
BBX 13 13 0 -3
BITMAP
FFF8
0038
0038
0038
0038
0038
0038
0038
0038
0038
0038
0038
0038
ENDCHAR
STARTCHAR uni2513
ENCODING 9491
BBX 13 14 0 -3
BITMAP
FFF8
FFF8
FFF8
0038
0038
0038
0038
0038
0038
0038
0038
0038
0038
0038
ENDCHAR
STARTCHAR SF020000
ENCODING 9492
BBX 13 12 11 9
BITMAP
8000
8000
8000
8000
8000
8000
8000
8000
8000
8000
8000
FFF8
ENDCHAR
STARTCHAR uni2515
ENCODING 9493
BBX 13 13 11 8
BITMAP
8000
8000
8000
8000
8000
8000
8000
8000
8000
8000
FFF8
FFF8
FFF8
ENDCHAR
STARTCHAR uni2516
ENCODING 9494
BBX 14 12 10 9
BITMAP
E000
E000
E000
E000
E000
E000
E000
E000
E000
E000
E000
FFFC
ENDCHAR
STARTCHAR uni2517
ENCODING 9495
BBX 14 13 10 8
BITMAP
E000
E000
E000
E000
E000
E000
E000
E000
E000
E000
FFFC
FFFC
FFFC
ENDCHAR
STARTCHAR SF040000
ENCODING 9496
BBX 12 12 0 9
BITMAP
0010
0010
0010
0010
0010
0010
0010
0010
0010
0010
0010
FFF0
ENDCHAR
STARTCHAR uni2519
ENCODING 9497
BBX 12 13 0 8
BITMAP
0010
0010
0010
0010
0010
0010
0010
0010
0010
0010
FFF0
FFF0
FFF0
ENDCHAR
STARTCHAR uni251A
ENCODING 9498
BBX 13 12 0 9
BITMAP
0038
0038
0038
0038
0038
0038
0038
0038
0038
0038
0038
FFF8
ENDCHAR
STARTCHAR uni251B
ENCODING 9499
BBX 13 13 0 8
BITMAP
0038
0038
0038
0038
0038
0038
0038
0038
0038
0038
FFF8
FFF8
FFF8
ENDCHAR
STARTCHAR SF080000
ENCODING 9500
BBX 13 24 11 -3
BITMAP
8000
8000
8000
8000
8000
8000
8000
8000
8000
8000
8000
FFF8
8000
8000
8000
8000
8000
8000
8000
8000
8000
8000
8000
8000
ENDCHAR
STARTCHAR uni251D
ENCODING 9501
BBX 13 24 11 -3
BITMAP
8000
8000
8000
8000
8000
8000
8000
8000
8000
8000
FFF8
FFF8
FFF8
8000
8000
8000
8000
8000
8000
8000
8000
8000
8000
8000
ENDCHAR
STARTCHAR uni251E
ENCODING 9502
BBX 14 24 10 -3
BITMAP
E000
E000
E000
E000
E000
E000
E000
E000
E000
E000
E000
FFFC
4000
4000
4000
4000
4000
4000
4000
4000
4000
4000
4000
4000
ENDCHAR
STARTCHAR uni251F
ENCODING 9503
BBX 14 24 10 -3
BITMAP
4000
4000
4000
4000
4000
4000
4000
4000
4000
4000
4000
FFFC
E000
E000
E000
E000
E000
E000
E000
E000
E000
E000
E000
E000
ENDCHAR
STARTCHAR uni2520
ENCODING 9504
BBX 14 24 10 -3
BITMAP
E000
E000
E000
E000
E000
E000
E000
E000
E000
E000
E000
FFFC
E000
E000
E000
E000
E000
E000
E000
E000
E000
E000
E000
E000
ENDCHAR
STARTCHAR uni2521
ENCODING 9505
BBX 14 24 10 -3
BITMAP
E000
E000
E000
E000
E000
E000
E000
E000
E000
E000
E000
FFFC
4000
4000
4000
4000
4000
4000
4000
4000
4000
4000
4000
4000
ENDCHAR
STARTCHAR uni2522
ENCODING 9506
BBX 14 24 10 -3
BITMAP
4000
4000
4000
4000
4000
4000
4000
4000
4000
4000
4000
FFFC
E000
E000
E000
E000
E000
E000
E000
E000
E000
E000
E000
E000
ENDCHAR
STARTCHAR uni2523
ENCODING 9507
BBX 14 24 10 -3
BITMAP
E000
E000
E000
E000
E000
E000
E000
E000
E000
E000
FFFC
FFFC
FFFC
E000
E000
E000
E000
E000
E000
E000
E000
E000
E000
E000
ENDCHAR
STARTCHAR SF090000
ENCODING 9508
BBX 12 24 0 -3
BITMAP
0010
0010
0010
0010
0010
0010
0010
0010
0010
0010
0010
FFF0
0010
0010
0010
0010
0010
0010
0010
0010
0010
0010
0010
0010
ENDCHAR
STARTCHAR uni2525
ENCODING 9509
BBX 12 24 0 -3
BITMAP
0010
0010
0010
0010
0010
0010
0010
0010
0010
0010
FFF0
FFF0
FFF0
0010
0010
0010
0010
0010
0010
0010
0010
0010
0010
0010
ENDCHAR
STARTCHAR uni2526
ENCODING 9510
BBX 13 24 0 -3
BITMAP
0038
0038
0038
0038
0038
0038
0038
0038
0038
0038
0038
FFF8
0010
0010
0010
0010
0010
0010
0010
0010
0010
0010
0010
0010
ENDCHAR
STARTCHAR uni2527
ENCODING 9511
BBX 13 24 0 -3
BITMAP
0010
0010
0010
0010
0010
0010
0010
0010
0010
0010
0010
FFF8
0038
0038
0038
0038
0038
0038
0038
0038
0038
0038
0038
0038
ENDCHAR
STARTCHAR uni2528
ENCODING 9512
BBX 13 24 0 -3
BITMAP
0038
0038
0038
0038
0038
0038
0038
0038
0038
0038
0038
FFF8
0038
0038
0038
0038
0038
0038
0038
0038
0038
0038
0038
0038
ENDCHAR
STARTCHAR uni2529
ENCODING 9513
BBX 13 24 0 -3
BITMAP
0038
0038
0038
0038
0038
0038
0038
0038
0038
0038
FFF8
FFF8
FFF8
0010
0010
0010
0010
0010
0010
0010
0010
0010
0010
0010
ENDCHAR
STARTCHAR uni252A
ENCODING 9514
BBX 13 24 0 -3
BITMAP
0010
0010
0010
0010
0010
0010
0010
0010
0010
0010
0010
FFF8
0038
0038
0038
0038
0038
0038
0038
0038
0038
0038
0038
0038
ENDCHAR
STARTCHAR uni252B
ENCODING 9515
BBX 13 24 0 -3
BITMAP
0038
0038
0038
0038
0038
0038
0038
0038
0038
0038
FFF8
FFF8
FFF8
0038
0038
0038
0038
0038
0038
0038
0038
0038
0038
0038
ENDCHAR
STARTCHAR SF060000
ENCODING 9516
BBX 24 13 0 -3
BITMAP
FFFFFF
001000
001000
001000
001000
001000
001000
001000
001000
001000
001000
001000
001000
ENDCHAR
STARTCHAR uni252D
ENCODING 9517
BBX 24 14 0 -3
BITMAP
FFF000
FFFFFF
FFF000
001000
001000
001000
001000
001000
001000
001000
001000
001000
001000
001000
ENDCHAR
STARTCHAR uni252E
ENCODING 9518
BBX 24 14 0 -3
BITMAP
001FFF
FFFFFF
001FFF
001000
001000
001000
001000
001000
001000
001000
001000
001000
001000
001000
ENDCHAR
STARTCHAR uni252F
ENCODING 9519
BBX 24 14 0 -3
BITMAP
FFFFFF
FFFFFF
FFFFFF
001000
001000
001000
001000
001000
001000
001000
001000
001000
001000
001000
ENDCHAR
STARTCHAR uni2530
ENCODING 9520
BBX 24 13 0 -3
BITMAP
FFFFFF
003800
003800
003800
003800
003800
003800
003800
003800
003800
003800
003800
003800
ENDCHAR
STARTCHAR uni2531
ENCODING 9521
BBX 24 14 0 -3
BITMAP
FFF800
FFFFFF
FFF800
003800
003800
003800
003800
003800
003800
003800
003800
003800
003800
003800
ENDCHAR
STARTCHAR uni2532
ENCODING 9522
BBX 24 14 0 -3
BITMAP
001FFF
FFFFFF
001FFF
001C00
001C00
001C00
001C00
001C00
001C00
001C00
001C00
001C00
001C00
001C00
ENDCHAR
STARTCHAR uni2533
ENCODING 9523
BBX 24 14 0 -3
BITMAP
FFFFFF
FFFFFF
FFFFFF
003800
003800
003800
003800
003800
003800
003800
003800
003800
003800
003800
ENDCHAR
STARTCHAR SF070000
ENCODING 9524
BBX 24 12 0 9
BITMAP
001000
001000
001000
001000
001000
001000
001000
001000
001000
001000
001000
FFFFFF
ENDCHAR
STARTCHAR uni2535
ENCODING 9525
BBX 24 13 0 8
BITMAP
001000
001000
001000
001000
001000
001000
001000
001000
001000
001000
FFF000
FFFFFF
FFF000
ENDCHAR
STARTCHAR uni2536
ENCODING 9526
BBX 24 13 0 8
BITMAP
001000
001000
001000
001000
001000
001000
001000
001000
001000
001000
001FFF
FFFFFF
001FFF
ENDCHAR
STARTCHAR uni2537
ENCODING 9527
BBX 24 13 0 8
BITMAP
001000
001000
001000
001000
001000
001000
001000
001000
001000
001000
FFFFFF
FFFFFF
FFFFFF
ENDCHAR
STARTCHAR uni2538
ENCODING 9528
BBX 24 12 0 9
BITMAP
003800
003800
003800
003800
003800
003800
003800
003800
003800
003800
003800
FFFFFF
ENDCHAR
STARTCHAR uni2539
ENCODING 9529
BBX 24 13 0 8
BITMAP
003800
003800
003800
003800
003800
003800
003800
003800
003800
003800
FFF800
FFFFFF
FFF800
ENDCHAR
STARTCHAR uni253A
ENCODING 9530
BBX 24 13 0 8
BITMAP
003800
003800
003800
003800
003800
003800
003800
003800
003800
003800
003FFF
FFFFFF
003FFF
ENDCHAR
STARTCHAR uni253B
ENCODING 9531
BBX 24 13 0 8
BITMAP
003800
003800
003800
003800
003800
003800
003800
003800
003800
003800
FFFFFF
FFFFFF
FFFFFF
ENDCHAR
STARTCHAR SF050000
ENCODING 9532
BBX 24 24 0 -3
BITMAP
001000
001000
001000
001000
001000
001000
001000
001000
001000
001000
001000
FFFFFF
001000
001000
001000
001000
001000
001000
001000
001000
001000
001000
001000
001000
ENDCHAR
STARTCHAR uni253D
ENCODING 9533
BBX 24 24 0 -3
BITMAP
001000
001000
001000
001000
001000
001000
001000
001000
001000
001000
FFF000
FFFFFF
FFF000
001000
001000
001000
001000
001000
001000
001000
001000
001000
001000
001000
ENDCHAR
STARTCHAR uni253E
ENCODING 9534
BBX 24 24 0 -3
BITMAP
001000
001000
001000
001000
001000
001000
001000
001000
001000
001000
001FFF
FFFFFF
001FFF
001000
001000
001000
001000
001000
001000
001000
001000
001000
001000
001000
ENDCHAR
STARTCHAR uni253F
ENCODING 9535
BBX 24 24 0 -3
BITMAP
001000
001000
001000
001000
001000
001000
001000
001000
001000
001000
FFFFFF
FFFFFF
FFFFFF
001000
001000
001000
001000
001000
001000
001000
001000
001000
001000
001000
ENDCHAR
STARTCHAR uni2540
ENCODING 9536
BBX 24 24 0 -3
BITMAP
003800
003800
003800
003800
003800
003800
003800
003800
003800
003800
003800
FFFFFF
001000
001000
001000
001000
001000
001000
001000
001000
001000
001000
001000
001000
ENDCHAR
STARTCHAR uni2541
ENCODING 9537
BBX 24 24 0 -3
BITMAP
001000
001000
001000
001000
001000
001000
001000
001000
001000
001000
001000
FFFFFF
003800
003800
003800
003800
003800
003800
003800
003800
003800
003800
003800
003800
ENDCHAR
STARTCHAR uni2542
ENCODING 9538
BBX 24 24 0 -3
BITMAP
003800
003800
003800
003800
003800
003800
003800
003800
003800
003800
003800
FFFFFF
003800
003800
003800
003800
003800
003800
003800
003800
003800
003800
003800
003800
ENDCHAR
STARTCHAR uni2543
ENCODING 9539
BBX 24 24 0 -3
BITMAP
003800
003800
003800
003800
003800
003800
003800
003800
003800
003800
FFF800
FFFFFF
FFF800
001000
001000
001000
001000
001000
001000
001000
001000
001000
001000
001000
ENDCHAR
STARTCHAR uni2544
ENCODING 9540
BBX 24 24 0 -3
BITMAP
003800
003800
003800
003800
003800
003800
003800
003800
003800
003800
003FFF
FFFFFF
003FFF
001000
001000
001000
001000
001000
001000
001000
001000
001000
001000
001000
ENDCHAR
STARTCHAR uni2545
ENCODING 9541
BBX 24 24 0 -3
BITMAP
001000
001000
001000
001000
001000
001000
001000
001000
001000
001000
FFF800
FFFFFF
FFF800
003800
003800
003800
003800
003800
003800
003800
003800
003800
003800
003800
ENDCHAR
STARTCHAR uni2546
ENCODING 9542
BBX 24 24 0 -3
BITMAP
001000
001000
001000
001000
001000
001000
001000
001000
001000
001000
001FFF
FFFFFF
003FFF
003800
003800
003800
003800
003800
003800
003800
003800
003800
003800
003800
ENDCHAR
STARTCHAR uni2547
ENCODING 9543
BBX 24 24 0 -3
BITMAP
003800
003800
003800
003800
003800
003800
003800
003800
003800
003800
FFFFFF
FFFFFF
FFFFFF
001000
001000
001000
001000
001000
001000
001000
001000
001000
001000
001000
ENDCHAR
STARTCHAR uni2548
ENCODING 9544
BBX 24 24 0 -3
BITMAP
001000
001000
001000
001000
001000
001000
001000
001000
001000
001000
FFFFFF
FFFFFF
FFFFFF
003800
003800
003800
003800
003800
003800
003800
003800
003800
003800
003800
ENDCHAR
STARTCHAR uni2549
ENCODING 9545
BBX 24 24 0 -3
BITMAP
003800
003800
003800
003800
003800
003800
003800
003800
003800
003800
FFF800
FFFFFF
FFF800
003800
003800
003800
003800
003800
003800
003800
003800
003800
003800
003800
ENDCHAR
STARTCHAR uni254A
ENCODING 9546
BBX 24 24 0 -3
BITMAP
003800
003800
003800
003800
003800
003800
003800
003800
003800
003800
003FFF
FFFFFF
003FFF
003800
003800
003800
003800
003800
003800
003800
003800
003800
003800
003800
ENDCHAR
STARTCHAR uni254B
ENCODING 9547
BBX 24 24 0 -3
BITMAP
003800
003800
003800
003800
003800
003800
003800
003800
003800
003800
FFFFFF
FFFFFF
FFFFFF
003800
003800
003800
003800
003800
003800
003800
003800
003800
003800
003800
ENDCHAR
STARTCHAR uni2581
ENCODING 9601
BBX 12 3 0 -3
BITMAP
FFF0
FFF0
FFF0
ENDCHAR
STARTCHAR uni2582
ENCODING 9602
BBX 12 6 0 -3
BITMAP
FFF0
FFF0
FFF0
FFF0
FFF0
FFF0
ENDCHAR
STARTCHAR uni2583
ENCODING 9603
BBX 12 9 0 -3
BITMAP
FFF0
FFF0
FFF0
FFF0
FFF0
FFF0
FFF0
FFF0
FFF0
ENDCHAR
STARTCHAR dnblock
ENCODING 9604
BBX 12 12 0 -3
BITMAP
FFF0
FFF0
FFF0
FFF0
FFF0
FFF0
FFF0
FFF0
FFF0
FFF0
FFF0
FFF0
ENDCHAR
STARTCHAR uni2585
ENCODING 9605
BBX 12 15 0 -3
BITMAP
FFF0
FFF0
FFF0
FFF0
FFF0
FFF0
FFF0
FFF0
FFF0
FFF0
FFF0
FFF0
FFF0
FFF0
FFF0
ENDCHAR
STARTCHAR uni2586
ENCODING 9606
BBX 12 18 0 -3
BITMAP
FFF0
FFF0
FFF0
FFF0
FFF0
FFF0
FFF0
FFF0
FFF0
FFF0
FFF0
FFF0
FFF0
FFF0
FFF0
FFF0
FFF0
FFF0
ENDCHAR
STARTCHAR uni2587
ENCODING 9607
BBX 12 21 0 -3
BITMAP
FFF0
FFF0
FFF0
FFF0
FFF0
FFF0
FFF0
FFF0
FFF0
FFF0
FFF0
FFF0
FFF0
FFF0
FFF0
FFF0
FFF0
FFF0
FFF0
FFF0
FFF0
ENDCHAR
STARTCHAR block
ENCODING 9608
BBX 12 24 0 -3
BITMAP
FFF0
FFF0
FFF0
FFF0
FFF0
FFF0
FFF0
FFF0
FFF0
FFF0
FFF0
FFF0
FFF0
FFF0
FFF0
FFF0
FFF0
FFF0
FFF0
FFF0
FFF0
FFF0
FFF0
FFF0
ENDCHAR
STARTCHAR uni2589
ENCODING 9609
BBX 10 24 0 -3
BITMAP
FFC0
FFC0
FFC0
FFC0
FFC0
FFC0
FFC0
FFC0
FFC0
FFC0
FFC0
FFC0
FFC0
FFC0
FFC0
FFC0
FFC0
FFC0
FFC0
FFC0
FFC0
FFC0
FFC0
FFC0
ENDCHAR
STARTCHAR uni258A
ENCODING 9610
BBX 9 24 0 -3
BITMAP
FF80
FF80
FF80
FF80
FF80
FF80
FF80
FF80
FF80
FF80
FF80
FF80
FF80
FF80
FF80
FF80
FF80
FF80
FF80
FF80
FF80
FF80
FF80
FF80
ENDCHAR
STARTCHAR uni258B
ENCODING 9611
BBX 7 24 0 -3
BITMAP
FE
FE
FE
FE
FE
FE
FE
FE
FE
FE
FE
FE
FE
FE
FE
FE
FE
FE
FE
FE
FE
FE
FE
FE
ENDCHAR
STARTCHAR lfblock
ENCODING 9612
BBX 6 24 0 -3
BITMAP
FC
FC
FC
FC
FC
FC
FC
FC
FC
FC
FC
FC
FC
FC
FC
FC
FC
FC
FC
FC
FC
FC
FC
FC
ENDCHAR
STARTCHAR uni258D
ENCODING 9613
BBX 4 24 0 -3
BITMAP
F0
F0
F0
F0
F0
F0
F0
F0
F0
F0
F0
F0
F0
F0
F0
F0
F0
F0
F0
F0
F0
F0
F0
F0
ENDCHAR
STARTCHAR uni258E
ENCODING 9614
BBX 3 24 0 -3
BITMAP
E0
E0
E0
E0
E0
E0
E0
E0
E0
E0
E0
E0
E0
E0
E0
E0
E0
E0
E0
E0
E0
E0
E0
E0
ENDCHAR
STARTCHAR uni258F
ENCODING 9615
BBX 1 24 0 -3
BITMAP
80
80
80
80
80
80
80
80
80
80
80
80
80
80
80
80
80
80
80
80
80
80
80
80
ENDCHAR
STARTCHAR filledbox
ENCODING 9632
BBX 22 22 1 -2
BITMAP
FFFFFC
FFFFFC
FFFFFC
FFFFFC
FFFFFC
FFFFFC
FFFFFC
FFFFFC
FFFFFC
FFFFFC
FFFFFC
FFFFFC
FFFFFC
FFFFFC
FFFFFC
FFFFFC
FFFFFC
FFFFFC
FFFFFC
FFFFFC
FFFFFC
FFFFFC
ENDCHAR
STARTCHAR H22073
ENCODING 9633
BBX 22 22 1 -2
BITMAP
FFFFFC
800004
800004
800004
800004
800004
800004
800004
800004
800004
800004
800004
800004
800004
800004
800004
800004
800004
800004
800004
800004
FFFFFC
ENDCHAR
STARTCHAR triagup
ENCODING 9650
BBX 23 20 0 0
BITMAP
001000
001000
003800
003800
007C00
007C00
00FE00
01FF00
01FF00
03FF80
03FF80
07FFC0
07FFC0
0FFFE0
1FFFF0
1FFFF0
3FFFF8
3FFFF8
7FFFFC
FFFFFE
ENDCHAR
STARTCHAR uni25B3
ENCODING 9651
BBX 23 20 0 0
BITMAP
001000
001000
002800
002800
004400
004400
008200
010100
010100
020080
020080
040040
040040
080020
100010
100010
200008
200008
400004
FFFFFE
ENDCHAR
STARTCHAR triagdn
ENCODING 9660
BBX 23 20 0 -2
BITMAP
FFFFFE
7FFFFC
3FFFF8
3FFFF8
1FFFF0
1FFFF0
0FFFE0
07FFC0
07FFC0
03FF80
03FF80
01FF00
01FF00
00FE00
007C00
007C00
003800
003800
001000
001000
ENDCHAR
STARTCHAR uni25BD
ENCODING 9661
BBX 23 20 0 -2
BITMAP
FFFFFE
400004
200008
200008
100010
100010
080020
040040
040040
020080
020080
010100
010100
008200
004400
004400
002800
002800
001000
001000
ENDCHAR
STARTCHAR uni25C6
ENCODING 9670
BBX 23 23 0 -2
BITMAP
001000
003800
007C00
00FE00
01FF00
03FF80
07FFC0
0FFFE0
1FFFF0
3FFFF8
7FFFFC
FFFFFE
7FFFFC
3FFFF8
1FFFF0
0FFFE0
07FFC0
03FF80
01FF00
00FE00
007C00
003800
001000
ENDCHAR
STARTCHAR uni25C7
ENCODING 9671
BBX 23 23 0 -2
BITMAP
001000
002800
004400
008200
010100
020080
040040
080020
100010
200008
400004
800002
400004
200008
100010
080020
040040
020080
010100
008200
004400
002800
001000
ENDCHAR
STARTCHAR circle
ENCODING 9675
BBX 22 22 1 -2
BITMAP
00FC00
030300
0C00C0
100020
200010
200010
400008
400008
800004
800004
800004
800004
800004
800004
400008
400008
200010
200010
100020
0C00C0
030300
00FC00
ENDCHAR
STARTCHAR uni25CE
ENCODING 9678
BBX 22 22 1 -2
BITMAP
00FC00
030300
0C00C0
100020
200010
207810
418608
420108
820104
840084
840084
840084
840084
820104
420108
418608
207810
200010
100020
0C00C0
030300
00FC00
ENDCHAR
STARTCHAR H18533
ENCODING 9679
BBX 22 22 1 -2
BITMAP
00FC00
03FF00
0FFFC0
1FFFE0
3FFFF0
3FFFF0
7FFFF8
7FFFF8
FFFFFC
FFFFFC
FFFFFC
FFFFFC
FFFFFC
FFFFFC
7FFFF8
7FFFF8
3FFFF0
3FFFF0
1FFFE0
0FFFC0
03FF00
00FC00
ENDCHAR
STARTCHAR uni25EF
ENCODING 9711
BBX 22 22 1 -2
BITMAP
00FC00
030300
0C00C0
100020
200010
200010
400008
400008
800004
800004
800004
800004
800004
800004
400008
400008
200010
200010
100020
0C00C0
030300
00FC00
ENDCHAR
STARTCHAR uni2605
ENCODING 9733
BBX 21 21 1 -1
BITMAP
002000
002000
007000
007000
007000
00F800
00F800
01FC00
FFFFF8
3FFFE0
1FFFC0
07FF80
03FE00
07FF00
07FF00
07DF00
0F8F80
0F0780
1C01C0
1800C0
300060
ENDCHAR
STARTCHAR uni2606
ENCODING 9734
BBX 21 22 1 -2
BITMAP
002000
002000
005000
005000
005000
008800
008800
010400
FF07F8
200020
100040
0C0180
020200
020200
042100
045100
088880
090480
120240
1C0140
3000E0
200020
ENDCHAR
STARTCHAR female
ENCODING 9792
BBX 15 22 4 -2
BITMAP
0380
0C60
1010
1010
2008
2008
2008
1010
1010
0C60
0380
0100
0100
FFFE
0100
0100
0100
0100
0100
0100
0100
0100
ENDCHAR
STARTCHAR male
ENCODING 9794
BBX 20 21 2 -1
BITMAP
001FF0
000030
000050
000090
000110
000210
000410
000810
001010
002000
0E4000
318000
404000
404000
802000
802000
802000
404000
404000
318000
0E0000
ENDCHAR
STARTCHAR musicalnote
ENCODING 9834
BBX 16 24 4 -3
BITMAP
0080
00C0
00C0
00E0
00B0
0098
008C
0086
0083
0081
0081
0081
0082
0084
0088
0080
0080
0080
0F80
3F00
7F00
FE00
FC00
7000
ENDCHAR
STARTCHAR uni266D
ENCODING 9837
BBX 10 24 8 -3
BITMAP
8000
8000
8000
8000
8000
8000
8000
8000
8000
8F00
9980
A0C0
C0C0
80C0
80C0
80C0
8180
8180
8300
8600
8C00
9800
A000
C000
ENDCHAR
STARTCHAR uni266F
ENCODING 9839
BBX 18 23 3 -2
BITMAP
000800
040800
040800
040800
040800
040FC0
07FFC0
FFF800
FC0800
040800
040800
040800
040800
040FC0
07FFC0
FFF800
FC0800
040800
040800
040800
040800
040800
040000
ENDCHAR
STARTCHAR uni3000
ENCODING 12288
BBX 1 1 23 -3
BITMAP
00
ENDCHAR
STARTCHAR uni3001
ENCODING 12289
BBX 6 6 3 -3
BITMAP
80
60
30
18
1C
0C
ENDCHAR
STARTCHAR uni3002
ENCODING 12290
BBX 6 6 3 -3
BITMAP
30
48
84
84
48
30
ENDCHAR
STARTCHAR uni3003
ENCODING 12291
BBX 12 14 5 1
BITMAP
0820
0C30
0C30
0C30
0C30
1860
1860
1860
1040
30C0
2080
2080
4100
8200
ENDCHAR
STARTCHAR uni3005
ENCODING 12293
BBX 17 17 3 1
BITMAP
020000
038000
030000
030300
03FF80
060300
060600
0C0C00
0C0800
1A1000
112000
20C000
406000
803000
003800
001C00
000C00
ENDCHAR
STARTCHAR uni3006
ENCODING 12294
BBX 24 24 0 -3
BITMAP
000002
000003
000007
00001E
000038
0000E0
000180
000200
03CC00
043000
082C00
084600
108380
1101C0
1300C0
360000
2C0000
280000
380000
300000
700000
600000
E00000
C00000
ENDCHAR
STARTCHAR uni3007
ENCODING 12295
BBX 22 20 1 -1
BITMAP
007800
03CF00
0E01C0
180060
300030
600018
400008
C0000C
800004
800004
800004
800004
C0000C
400008
600018
300030
180060
0E01C0
03CF00
007800
ENDCHAR
STARTCHAR uni3008
ENCODING 12296
BBX 9 24 11 -3
BITMAP
0080
0080
0100
0200
0400
0400
0800
1000
1000
2000
4000
8000
8000
4000
2000
1000
1000
0800
0400
0400
0200
0100
0080
0080
ENDCHAR
STARTCHAR uni3009
ENCODING 12297
BBX 9 24 4 -3
BITMAP
8000
8000
4000
2000
1000
1000
0800
0400
0400
0200
0100
0080
0080
0100
0200
0400
0400
0800
1000
1000
2000
4000
8000
8000
ENDCHAR
STARTCHAR uni300A
ENCODING 12298
BBX 12 24 10 -3
BITMAP
0110
0110
0220
0440
0440
0880
1080
1100
2200
2200
4400
8800
8800
4400
2200
2200
1100
0880
0880
0440
0440
0220
0110
0110
ENDCHAR
STARTCHAR uni300B
ENCODING 12299
BBX 12 24 2 -3
BITMAP
8800
8800
4400
2200
2200
1100
1080
0880
0440
0440
0220
0110
0110
0220
0440
0440
0880
1100
1100
2200
2200
4400
8800
8800
ENDCHAR
STARTCHAR uni300C
ENCODING 12300
BBX 6 17 13 4
BITMAP
FC
80
80
80
80
80
80
80
80
80
80
80
80
80
80
80
80
ENDCHAR
STARTCHAR uni300D
ENCODING 12301
BBX 6 17 5 -3
BITMAP
04
04
04
04
04
04
04
04
04
04
04
04
04
04
04
04
FC
ENDCHAR
STARTCHAR uni300E
ENCODING 12302
BBX 8 17 13 4
BITMAP
FF
81
81
9F
90
90
90
90
90
90
90
90
90
90
90
90
F0
ENDCHAR
STARTCHAR uni300F
ENCODING 12303
BBX 8 17 3 -3
BITMAP
0F
09
09
09
09
09
09
09
09
09
09
09
09
F9
81
81
FF
ENDCHAR
STARTCHAR uni3010
ENCODING 12304
BBX 6 24 13 -3
BITMAP
FC
F8
F0
F0
E0
E0
E0
E0
C0
C0
C0
C0
C0
C0
C0
C0
E0
E0
E0
E0
F0
F0
F8
FC
ENDCHAR
STARTCHAR uni3011
ENCODING 12305
BBX 6 24 5 -3
BITMAP
FC
7C
3C
3C
1C
1C
1C
1C
0C
0C
0C
0C
0C
0C
0C
0C
1C
1C
1C
1C
3C
3C
7C
FC
ENDCHAR
STARTCHAR uni3012
ENCODING 12306
BBX 20 20 2 -2
BITMAP
FFFFF0
FFFFF0
000000
000000
000000
000000
FFFFF0
FFFFF0
006000
006000
006000
006000
006000
006000
006000
006000
006000
006000
006000
006000
ENDCHAR
STARTCHAR uni3013
ENCODING 12307
BBX 22 14 1 2
BITMAP
FFFFFC
FFFFFC
FFFFFC
FFFFFC
000000
000000
000000
000000
000000
000000
FFFFFC
FFFFFC
FFFFFC
FFFFFC
ENDCHAR
STARTCHAR uni3014
ENCODING 12308
BBX 7 24 13 -3
BITMAP
06
18
60
80
80
80
80
80
80
80
80
80
80
80
80
80
80
80
80
80
80
60
18
06
ENDCHAR
STARTCHAR uni3015
ENCODING 12309
BBX 7 24 4 -3
BITMAP
C0
30
0C
02
02
02
02
02
02
02
02
02
02
02
02
02
02
02
02
02
02
0C
30
C0
ENDCHAR
STARTCHAR uni301C
ENCODING 12316
BBX 24 6 0 6
BITMAP
1F8000
60E000
803800
001E01
000786
0001F8
ENDCHAR
STARTCHAR uni301D
ENCODING 12317
BBX 10 5 13 15
BITMAP
39C0
3180
6300
4200
8400
ENDCHAR
STARTCHAR uni301F
ENCODING 12319
BBX 10 5 1 -2
BITMAP
39C0
3180
6300
4200
8400
ENDCHAR
STARTCHAR uni3041
ENCODING 12353
BBX 16 18 4 -2
BITMAP
0600
0300
0300
0270
47E0
3E00
1480
0480
07F8
0C8E
1582
3503
6503
4603
CE03
5A06
620C
0070
ENDCHAR
STARTCHAR uni3042
ENCODING 12354
BBX 20 24 2 -3
BITMAP
030000
01C000
018000
018C00
41BE00
3FF000
0B0000
031000
031800
021800
02FE00
073180
0A20C0
126060
224060
428030
430030
C30030
830060
C58060
5980C0
718180
400300
000C00
ENDCHAR
STARTCHAR uni3043
ENCODING 12355
BBX 16 13 4 -1
BITMAP
8000
4030
6008
6004
6006
4002
4203
441B
6407
2803
3800
3800
1800
ENDCHAR
STARTCHAR uni3044
ENCODING 12356
BBX 20 18 2 0
BITMAP
800000
400000
400600
400100
600080
6000C0
600060
600060
600030
6001F0
608070
610030
310000
320000
360000
1C0000
1E0000
0C0000
ENDCHAR
STARTCHAR uni3045
ENCODING 12357
BBX 10 18 7 -2
BITMAP
1000
0800
0F00
0700
0000
0000
8F00
F980
70C0
20C0
00C0
00C0
00C0
0180
0180
0300
0200
0C00
ENDCHAR
STARTCHAR uni3046
ENCODING 12358
BBX 13 24 5 -3
BITMAP
0800
0780
03C0
0080
0000
0000
0000
03C0
9E20
F830
7018
2018
0018
0018
0018
0018
0030
0030
0070
0060
00C0
0180
0300
0C00
ENDCHAR
STARTCHAR uni3047
ENCODING 12359
BBX 14 18 6 -2
BITMAP
0400
0200
0380
01C0
0000
0180
46C0
39C0
3380
0600
0400
0C00
1800
3400
6200
E300
C1FC
00F8
ENDCHAR
STARTCHAR uni3048
ENCODING 12360
BBX 20 23 2 -2
BITMAP
010000
00F000
007800
001000
000000
000000
003800
10DC00
0FBC00
0E3000
046000
00C000
018000
010000
030000
060000
0D8000
184000
306000
706000
E03000
E03FF0
001FE0
ENDCHAR
STARTCHAR uni3049
ENCODING 12361
BBX 16 17 4 -2
BITMAP
1000
0C00
0E00
091E
0B83
8F03
7804
6800
08F8
0B0C
0C06
1806
3806
E906
688C
1870
1800
ENDCHAR
STARTCHAR uni304A
ENCODING 12362
BBX 22 22 1 -2
BITMAP
060000
030000
0380C0
030030
032018
03701C
83E07C
7F0004
3B0000
130000
020FC0
023870
02C030
030018
060018
1A0018
F22018
621030
360C70
0E03C0
070000
060000
ENDCHAR
STARTCHAR uni304B
ENCODING 12363
BBX 23 22 1 -1
BITMAP
030000
01C000
01C000
018000
018000
010000
01F000
030980
8F0C60
FA0430
720418
260C1C
040C0C
0C0C3E
080C0E
181806
1A1800
311800
31B000
60F000
E0E000
C0C000
ENDCHAR
STARTCHAR uni304C
ENCODING 12364
BBX 24 22 0 -1
BITMAP
030000
01C008
01C006
018043
018033
010018
01F018
030980
8F0C60
FA0430
720418
260C1C
040C0C
0C0C3E
080C0E
181806
1A1800
311800
31B000
60F000
E0E000
C0C000
ENDCHAR
STARTCHAR uni304D
ENCODING 12365
BBX 15 24 5 -3
BITMAP
0E00
0700
0320
0318
0130
81E0
7F88
3ECE
005C
4078
3FE0
0E10
0018
000C
000C
1FF6
201E
4006
4000
2000
3000
1C00
0FE0
03E0
ENDCHAR
STARTCHAR uni304E
ENCODING 12366
BBX 19 24 4 -3
BITMAP
0E0100
0700C0
032860
031660
013300
81E300
7F8000
3ECC00
005C00
407800
3FE000
0E1000
001800
000C00
000C00
1FF600
201E00
400600
400000
200000
300000
1C0000
0FE000
03E000
ENDCHAR
STARTCHAR uni304F
ENCODING 12367
BBX 11 24 5 -3
BITMAP
0300
01C0
01C0
0380
0300
0600
0C00
1800
3000
6000
8000
8000
4000
3000
1800
0C00
0600
0300
0180
01C0
00C0
00E0
0060
0040
ENDCHAR
STARTCHAR uni3050
ENCODING 12368
BBX 17 24 5 -3
BITMAP
030000
01C000
01C000
038000
030400
060300
0C2180
181980
300C00
600C00
800000
800000
400000
300000
180000
0C0000
060000
030000
018000
01C000
00C000
00E000
006000
004000
ENDCHAR
STARTCHAR uni3051
ENCODING 12369
BBX 22 23 2 -3
BITMAP
600600
300300
380380
380300
300300
300300
200378
610FFC
60FF00
403300
400300
C00300
840300
880300
C80300
D80300
D00600
500600
700600
700C00
300800
301000
002000
ENDCHAR
STARTCHAR uni3052
ENCODING 12370
BBX 23 24 1 -3
BITMAP
000010
60060C
300346
3803B6
380318
300318
300300
200378
610FFC
60FF00
403300
400300
C00300
840300
880300
C80300
D80300
D00600
500600
700600
700C00
300800
301000
002000
ENDCHAR
STARTCHAR uni3053
ENCODING 12371
BBX 17 20 3 -1
BITMAP
100000
080000
07F800
03FC00
006000
008000
010000
000000
000000
000000
000000
000000
000000
800000
800000
800000
400000
300100
1FFF80
07FF00
ENDCHAR
STARTCHAR uni3054
ENCODING 12372
BBX 21 22 3 -1
BITMAP
000040
000030
100218
080198
07F8C0
03FCC0
006000
008000
010000
000000
000000
000000
000000
000000
000000
800000
800000
800000
400000
300100
1FFF80
07FF00
ENDCHAR
STARTCHAR uni3055
ENCODING 12373
BBX 15 23 4 -2
BITMAP
0300
0600
0700
0390
019C
00F8
83E0
7F30
1C10
0018
000C
000C
07EE
083E
1006
2000
2000
1000
1000
0C00
0780
03F8
0078
ENDCHAR
STARTCHAR uni3056
ENCODING 12374
BBX 20 23 3 -2
BITMAP
030080
060460
070330
0391B0
019D80
00F800
83E000
7F3000
1C1000
001800
000C00
000C00
07EE00
083E00
100600
200000
200000
100000
100000
0C0000
078000
03F800
007800
ENDCHAR
STARTCHAR uni3057
ENCODING 12375
BBX 16 23 5 -2
BITMAP
C000
6000
7000
7000
7000
6000
6000
6000
6000
6000
6000
6000
6000
4000
4000
4000
4001
4002
400C
6038
60F0
3FC0
1F00
ENDCHAR
STARTCHAR uni3058
ENCODING 12376
BBX 16 23 5 -2
BITMAP
C000
6000
7010
700C
7086
6066
6030
6030
6000
6000
6000
6000
6000
4000
4000
4000
4001
4002
400C
6038
60F0
3FC0
1F00
ENDCHAR
STARTCHAR uni3059
ENCODING 12377
BBX 24 24 0 -3
BITMAP
001800
000E00
000700
000600
000600
000400
001FFE
83F43F
FE0400
780400
207C00
00CE00
008600
008600
008600
00C600
007C00
000C00
000C00
000800
001800
001000
002000
00C000
ENDCHAR
STARTCHAR uni305A
ENCODING 12378
BBX 24 24 0 -3
BITMAP
001810
000E8C
000766
000636
000630
000400
001FFE
83F41F
FE0400
780400
207C00
00CE00
008600
008600
008600
00C600
007C00
000C00
000C00
000800
001800
001000
002000
00C000
ENDCHAR
STARTCHAR uni305B
ENCODING 12379
BBX 23 22 0 -1
BITMAP
000300
000180
0001C0
060180
030180
038180
030180
03019C
031FFE
07F180
FF0180
730300
230300
030F00
030600
030400
010000
010000
018000
00C000
007FC0
001FC0
ENDCHAR
STARTCHAR uni305C
ENCODING 12380
BBX 24 22 0 -1
BITMAP
000008
000606
000343
060333
030398
038318
030300
03033C
031FFE
07F300
FF0600
730600
231600
030C00
030C00
030800
010000
010000
018000
00C000
007FC0
001FC0
ENDCHAR
STARTCHAR uni305D
ENCODING 12381
BBX 19 23 2 -3
BITMAP
007000
05D800
079C00
033800
007000
006000
00C000
0083C0
013FE0
02F800
8F1000
7C2000
304000
004000
008000
008000
008000
00C000
00C000
006000
007000
003800
001800
ENDCHAR
STARTCHAR uni305E
ENCODING 12382
BBX 21 23 2 -3
BITMAP
007000
05D840
079C30
033918
0070D8
006060
00C060
008380
013FC0
02FC00
8F1000
7C2000
304000
004000
008000
008000
008000
00C000
00C000
006000
007000
003800
001800
ENDCHAR
STARTCHAR uni305F
ENCODING 12383
BBX 20 22 2 -2
BITMAP
060000
030000
038000
038000
030000
026000
87EF00
FF03C0
7400E0
2400E0
0C0100
080000
180000
180000
300000
300000
604000
E02000
E03000
401C20
000FF0
0003F0
ENDCHAR
STARTCHAR uni3060
ENCODING 12384
BBX 22 23 1 -2
BITMAP
000020
060018
03010C
0380CC
038060
030060
026000
87EF00
FF03C0
7400E0
2400E0
0C0100
080000
180000
180000
300000
300000
604000
E02000
E03000
401C20
000FF0
0003F0
ENDCHAR
STARTCHAR uni3061
ENCODING 12385
BBX 20 23 1 -2
BITMAP
030000
01C000
018000
019000
013800
83F000
7F8000
3D0000
130000
020000
060000
060FC0
0430E0
06C030
0F0030
0C0030
0C0030
000070
000060
0000C0
000380
001E00
00E000
ENDCHAR
STARTCHAR uni3062
ENCODING 12386
BBX 21 23 1 -2
BITMAP
030000
01C040
018030
019218
013998
83F0C0
7F80C0
3D0000
0B0000
020000
060000
060FC0
0430E0
06C030
0F0030
0C0030
0C0030
000070
000060
0000C0
000380
001E00
00E000
ENDCHAR
STARTCHAR uni3063
ENCODING 12387
BBX 16 11 3 -1
BITMAP
00FC
0706
9C03
7803
3003
0007
0006
000C
0018
0060
0380
ENDCHAR
STARTCHAR uni3064
ENCODING 12388
BBX 23 15 0 0
BITMAP
000FE0
00F818
87C00C
7F0006
3C0006
080006
000006
00000E
00000C
00001C
000018
000030
000060
0001C0
001E00
ENDCHAR
STARTCHAR uni3065
ENCODING 12389
BBX 23 21 0 0
BITMAP
000010
00008C
000066
000036
000030
000000
003FC0
01F030
8F8018
7E000C
3C000C
08000C
00000C
00001C
000018
000038
000030
000060
0000C0
000380
003C00
ENDCHAR
STARTCHAR uni3066
ENCODING 12390
BBX 19 21 1 -2
BITMAP
0001C0
001FE0
00E700
878C00
FE1800
783000
302000
004000
004000
008000
008000
008000
008000
008000
00C000
004000
006000
003000
001C00
000F00
000700
ENDCHAR
STARTCHAR uni3067
ENCODING 12391
BBX 23 21 1 -2
BITMAP
0001C0
001FE0
00E710
878C0C
FE1886
783066
302030
004030
004000
008000
008000
008000
008000
008000
00C000
004000
006000
003000
001C00
000F00
000700
ENDCHAR
STARTCHAR uni3068
ENCODING 12392
BBX 14 23 6 -2
BITMAP
3000
1800
1C00
1C00
1800
1800
1800
1800
1860
08F0
09E0
0F80
0E00
1800
3000
6000
4000
8000
8000
8000
4018
7FFC
1FF0
ENDCHAR
STARTCHAR uni3069
ENCODING 12393
BBX 16 23 5 -2
BITMAP
3008
1846
1C33
1C1B
1818
1800
1800
1800
1860
08F0
09E0
0F80
0E00
1800
3000
6000
4000
8000
8000
8000
4018
7FFC
1FF0
ENDCHAR
STARTCHAR uni306A
ENCODING 12394
BBX 20 23 1 -2
BITMAP
060000
038000
038000
036000
02E380
8FC0E0
7F0070
7601F0
040200
0C0400
080400
180400
180400
300400
700600
600600
000600
01FE00
030F80
0207E0
020670
01FC30
007800
ENDCHAR
STARTCHAR uni306B
ENCODING 12395
BBX 19 21 3 -1
BITMAP
600000
300000
380000
300000
303F00
70FF80
610600
600800
400000
C00000
C00000
C00000
C80000
D00000
D00000
D10000
E08000
607000
603FE0
700FC0
300000
ENDCHAR
STARTCHAR uni306C
ENCODING 12396
BBX 23 21 1 0
BITMAP
008000
004000
006000
007000
106000
104000
107FC0
10E070
134030
16C018
0C8018
198018
390018
6D0018
460018
C60030
8F1FB0
CB30F0
D9207C
7031CE
601F06
ENDCHAR
STARTCHAR uni306D
ENCODING 12397
BBX 24 24 0 -3
BITMAP
060000
030000
038000
038000
030000
030000
0301E0
020638
020818
07100C
4F200C
7B400C
36800C
2B000C
16000C
160018
2A0798
360CF0
76083C
6E083F
CE07E3
C701C0
060000
040000
ENDCHAR
STARTCHAR uni306E
ENCODING 12398
BBX 21 18 2 -1
BITMAP
00FF00
0381C0
0EC060
18E030
30C030
618038
618018
C10018
C30018
820018
860018
C40030
6C0030
680060
3800C0
300080
000300
000C00
ENDCHAR
STARTCHAR uni306F
ENCODING 12399
BBX 22 22 1 -2
BITMAP
600E00
300380
3801C0
380180
300180
300110
6001F8
608FF8
607F00
400100
C00100
C00100
880100
880100
900180
D00180
D07F80
70C1F0
7081BC
70819C
307F00
003E00
ENDCHAR
STARTCHAR uni3070
ENCODING 12400
BBX 23 23 1 -2
BITMAP
000010
601C0C
300746
3803B6
380318
300318
300220
6003F0
611FF0
60FE00
400200
C00200
C00200
880200
880200
900300
D00300
D0FF00
7183E0
710378
710338
30FE00
007C00
ENDCHAR
STARTCHAR uni3071
ENCODING 12401
BBX 23 22 1 -2
BITMAP
601C1C
300722
3803A2
380322
30031C
300220
6003F0
611FF0
60FE00
400200
C00200
C00200
880200
880200
900300
D00300
D0FF00
7183E0
710378
710338
30FE00
007C00
ENDCHAR
STARTCHAR uni3072
ENCODING 12402
BBX 21 20 2 -2
BITMAP
060000
8F0000
7E0180
240180
080180
080180
180140
100140
300240
300260
300430
600C38
600818
601818
603000
606000
60C000
638000
3F0000
3C0000
ENDCHAR
STARTCHAR uni3073
ENCODING 12403
BBX 23 22 1 -2
BITMAP
000010
00000C
060046
8F0036
7E0198
240198
080180
080180
180140
100140
300240
300260
300430
600C38
600818
601818
603000
606000
60C000
638000
3F0000
3C0000
ENDCHAR
STARTCHAR uni3074
ENCODING 12404
BBX 23 21 1 -2
BITMAP
00001C
060022
8F0022
7E01A2
24019C
080180
080180
180140
100140
300240
300260
300430
600C38
600818
601818
603000
606000
60C000
638000
3F0000
3C0000
ENDCHAR
STARTCHAR uni3075
ENCODING 12405
BBX 24 21 0 -1
BITMAP
004000
002000
001800
001E00
003E00
006000
008000
008000
00C000
006000
002000
003FE0
005038
00980C
030C06
860C1F
9C0C07
784C03
703C00
201C00
001800
ENDCHAR
STARTCHAR uni3076
ENCODING 12406
BBX 24 21 0 -1
BITMAP
004000
002000
001810
001E0C
003E46
006036
008018
008018
00C000
006000
002000
003FE0
005038
00980C
030C06
860C1F
9C0C07
784C03
703C00
201C00
001800
ENDCHAR
STARTCHAR uni3077
ENCODING 12407
BBX 24 21 0 -1
BITMAP
004000
002000
001838
001E44
003E44
006044
008038
008000
00C000
006000
002000
003FE0
005038
00980C
030C06
860C1F
9C0C07
784C03
703C00
201C00
001800
ENDCHAR
STARTCHAR uni3078
ENCODING 12408
BBX 24 12 0 4
BITMAP
01C000
022000
023000
061800
040C00
8C0600
580300
780180
3000E0
30007C
00001F
000007
ENDCHAR
STARTCHAR uni3079
ENCODING 12409
BBX 24 17 0 4
BITMAP
000100
0000C0
000860
000660
000300
01C300
022000
023000
061800
040C00
8C0600
580300
780180
3000E0
30007C
00001F
000007
ENDCHAR
STARTCHAR uni307A
ENCODING 12410
BBX 24 16 0 4
BITMAP
0001C0
000220
000220
000220
01C1C0
022000
023000
061800
040C00
8C0600
580300
780180
3000E0
30007C
00001F
000007
ENDCHAR
STARTCHAR uni307B
ENCODING 12411
BBX 23 22 1 -2
BITMAP
600000
3000E0
380FF0
38FF80
300180
300180
6001F0
6103F0
60FF80
403180
C00180
C00180
C80180
880180
900180
D00180
507FC0
7081F8
7081BE
708386
307F00
303C00
ENDCHAR
STARTCHAR uni307C
ENCODING 12412
BBX 23 22 1 -2
BITMAP
600010
30008C
380FE6
387F36
300318
300318
6003F0
6107F0
60FF00
403300
C00300
C00300
C80300
880300
900300
D00300
507F80
7083F0
70833C
70831C
307E00
301C00
ENDCHAR
STARTCHAR uni307D
ENCODING 12413
BBX 23 23 1 -2
BITMAP
00001C
600022
3000A2
380FE2
387F1C
300300
300300
6003F0
6107F0
60FF00
403300
C00300
C00300
C80300
880300
900300
D00300
507F80
7083F0
70833C
70831C
307E00
301C00
ENDCHAR
STARTCHAR uni307E
ENCODING 12414
BBX 17 23 3 -2
BITMAP
038000
00C000
00E000
00CC00
80FE00
7FFC00
1FC000
00D000
008800
209C00
20F800
1FF000
0F8000
008000
00C000
00C000
00C000
00C000
3FE000
41FC00
40CF80
3F8380
0F0000
ENDCHAR
STARTCHAR uni307F
ENCODING 12415
BBX 23 22 1 -3
BITMAP
001800
08FC00
0F9C00
073800
043000
002000
006180
0040C0
00C0E0
0080C0
0FF8C0
3B0FC0
6203F0
4401BC
8C030E
C80306
580600
700600
300C00
000800
001000
006000
ENDCHAR
STARTCHAR uni3080
ENCODING 12416
BBX 22 22 1 -2
BITMAP
0C0000
070000
078000
0660C0
87E030
7E0018
760018
24000C
04003C
14000C
3E0000
460000
460000
660000
3C0080
140040
0C0040
080040
0800C0
0C0780
07FF00
03F800
ENDCHAR
STARTCHAR uni3081
ENCODING 12417
BBX 21 21 1 -1
BITMAP
004000
002000
003000
083000
082000
082000
08FF80
0BA0E0
0F6030
0C4030
1C4018
34C018
648018
478018
C30018
878030
8DC030
58C060
7000C0
600380
001C00
ENDCHAR
STARTCHAR uni3082
ENCODING 12418
BBX 14 23 4 -2
BITMAP
0600
0300
0380
0300
0300
4600
4600
2C00
7C80
9E40
8E20
9820
5010
7818
3E08
370C
300C
300C
300C
1018
1838
0FF0
07C0
ENDCHAR
STARTCHAR uni3083
ENCODING 12419
BBX 18 17 2 -2
BITMAP
018000
004000
006000
1FE000
319E00
307180
11C0C0
0F00C0
0E00C0
9B3180
F18F00
60C000
204000
006000
003000
003000
003000
ENDCHAR
STARTCHAR uni3084
ENCODING 12420
BBX 24 23 0 -3
BITMAP
001000
000800
000400
000600
03FE00
0439F8
0C070E
0C1807
067003
01C003
038406
8E831C
7C40F0
386000
003000
001000
001800
000C00
000C00
000600
000700
000300
000300
ENDCHAR
STARTCHAR uni3085
ENCODING 12421
BBX 15 16 5 -3
BITMAP
0180
C2C0
63F0
64C8
64CC
CCC6
D4C6
D4C6
D4C6
64CC
64C8
62B0
01C0
0300
0200
1C00
ENDCHAR
STARTCHAR uni3086
ENCODING 12422
BBX 21 23 1 -3
BITMAP
003000
804800
408C00
609F80
716C60
618630
610630
630618
C30618
C50618
C90618
888618
908618
D08C30
704C30
604CE0
603FC0
201F00
001000
003000
002000
004000
018000
ENDCHAR
STARTCHAR uni3087
ENCODING 12423
BBX 12 17 6 -2
BITMAP
1800
0E00
0700
0600
0660
05F0
0780
0400
0400
0400
0400
0600
0600
7FC0
C6F0
8630
7C00
ENDCHAR
STARTCHAR uni3088
ENCODING 12424
BBX 18 23 3 -2
BITMAP
038000
00E000
00E000
00C000
00C000
00C000
008300
009F00
00FC00
008000
008000
008000
008000
00C000
00C000
00C000
00C000
1FE000
60FC00
80CF80
C0C3C0
7F80C0
1F0000
ENDCHAR
STARTCHAR uni3089
ENCODING 12425
BBX 16 23 4 -2
BITMAP
0C00
0300
0180
01C0
07C0
0800
1000
2000
2000
2000
2000
2000
20FC
6306
6C03
7803
F003
6007
0006
000C
0018
0060
0380
ENDCHAR
STARTCHAR uni308A
ENCODING 12426
BBX 12 23 5 -3
BITMAP
C000
6000
67C0
6860
6860
5030
D030
E030
E030
C030
C030
C030
C030
C030
4030
0060
0060
0060
00C0
00C0
0180
0100
0600
ENDCHAR
STARTCHAR uni308B
ENCODING 12427
BBX 16 22 4 -2
BITMAP
00C0
23E0
3E70
1CE0
09C0
0180
0300
0200
0600
0C00
09F0
160C
3806
7003
E003
C003
0003
0786
0CC6
082C
0878
07E0
ENDCHAR
STARTCHAR uni308C
ENCODING 12428
BBX 24 24 0 -3
BITMAP
060000
030000
038000
038000
030000
030180
0306C0
020860
071060
0F2060
BA4060
728060
270060
1B00C0
1200C0
1E00C0
2A00C0
3A00C0
5A00C1
E600C6
C6007C
060030
060000
040000
ENDCHAR
STARTCHAR uni308D
ENCODING 12429
BBX 18 22 3 -2
BITMAP
107000
19F800
0F3800
0E6000
04C000
018000
010000
030000
040000
04FC00
0B0700
140180
3800C0
7000C0
E000C0
C000C0
000180
000180
000300
000E00
003800
03C000
ENDCHAR
STARTCHAR uni308E
ENCODING 12430
BBX 16 18 4 -2
BITMAP
0C00
0600
0600
0600
0400
0E00
9E38
68CE
6906
1A03
2C03
3803
4803
E806
A806
180C
1870
1800
ENDCHAR
STARTCHAR uni308F
ENCODING 12431
BBX 22 24 1 -3
BITMAP
060000
030000
038000
038000
030000
030000
020000
020000
0703E0
0F0C30
9E3018
72400C
22800C
13000C
16000C
0E000C
1E0018
340018
740030
EE0060
CE0180
060E00
060000
040000
ENDCHAR
STARTCHAR uni3090
ENCODING 12432
BBX 20 21 2 -1
BITMAP
006000
11F000
0F3800
0E7000
046000
00C000
00C000
008000
013F80
01C0E0
070060
0A0030
160030
340030
6C0030
480030
D87860
90CE60
F083C0
70E380
007E00
ENDCHAR
STARTCHAR uni3091
ENCODING 12433
BBX 22 23 1 -2
BITMAP
003000
04E800
079C00
033C00
016000
004000
009F00
01E180
0380C0
0600C0
0E00C0
0CF180
019B00
010E00
00F800
008000
0101E0
020610
0E1818
19300C
71E00C
E1C0FC
C18018
ENDCHAR
STARTCHAR uni3092
ENCODING 12434
BBX 18 23 3 -2
BITMAP
060000
038000
038000
033000
82F800
7FC000
760000
240000
0C0200
080180
1F01C0
7187C0
E19E00
C1B000
01C000
038000
058000
090000
180000
100000
180300
0FFF00
03FE00
ENDCHAR
STARTCHAR uni3093
ENCODING 12435
BBX 22 22 1 -2
BITMAP
003000
001800
001800
003800
003000
007000
006000
006000
00C000
008000
018000
010000
020000
07C000
0C6004
086004
186008
303010
603030
E030E0
C01FC0
000F00
ENDCHAR
STARTCHAR uni309B
ENCODING 12443
BBX 7 6 0 15
BITMAP
10
0C
86
66
30
30
ENDCHAR
STARTCHAR uni309C
ENCODING 12444
BBX 5 5 1 15
BITMAP
70
88
88
88
70
ENDCHAR
STARTCHAR uni309D
ENCODING 12445
BBX 9 10 7 5
BITMAP
8000
4000
2000
3000
1800
0E00
0700
0780
1980
2000
ENDCHAR
STARTCHAR uni309E
ENCODING 12446
BBX 13 13 7 5
BITMAP
0040
0030
0218
8198
40C0
20C0
3000
1800
0E00
0700
0780
1980
2000
ENDCHAR
STARTCHAR uni30A1
ENCODING 12449
BBX 14 13 5 -2
BITMAP
0070
87F8
FE1C
7438
2360
0380
0300
0600
0600
0400
0C00
0800
1000
ENDCHAR
STARTCHAR uni30A2
ENCODING 12450
BBX 20 20 2 -2
BITMAP
000700
803DC0
C3E0E0
7F81F0
3C4380
106400
003800
003000
003000
003000
003000
006000
006000
006000
004000
00C000
008000
008000
010000
020000
ENDCHAR
STARTCHAR uni30A3
ENCODING 12451
BBX 10 16 5 -2
BITMAP
0100
01C0
01C0
0380
0300
0600
0F00
1B00
3300
C300
0300
0300
0300
0300
0300
0300
ENDCHAR
STARTCHAR uni30A4
ENCODING 12452
BBX 14 23 3 -2
BITMAP
0010
0010
003C
0038
0030
0060
0060
00C0
0180
03E0
06C0
0CC0
18C0
30C0
C0C0
00C0
00C0
00C0
00C0
00C0
00C0
00C0
0080
ENDCHAR
STARTCHAR uni30A5
ENCODING 12453
BBX 13 16 6 -2
BITMAP
0C00
0700
0600
0620
87F0
DE38
F830
C070
C060
C060
C0C0
00C0
0180
0100
0200
0C00
ENDCHAR
STARTCHAR uni30A6
ENCODING 12454
BBX 17 21 4 -1
BITMAP
070000
038000
018000
010400
010E00
C3FF00
7F8380
780300
600600
600600
600600
600C00
600C00
601800
001800
003000
006000
00C000
018000
010000
060000
ENDCHAR
STARTCHAR uni30A7
ENCODING 12455
BBX 15 11 4 0
BITMAP
0030
23F8
3F18
19C0
0180
0180
0100
0100
81FC
7F1E
3800
ENDCHAR
STARTCHAR uni30A8
ENCODING 12456
BBX 21 17 1 0
BITMAP
000780
207FC0
1FE0C0
0F3800
043000
003000
003000
003000
003000
003000
002000
002020
0023F0
81FFF8
7F8008
3C0000
100000
ENDCHAR
STARTCHAR uni30A9
ENCODING 12457
BBX 14 16 4 -2
BITMAP
0380
00C0
00C0
0098
41FC
7F8C
3B80
1680
0680
0C80
1880
1480
2280
41C0
81C0
0080
ENDCHAR
STARTCHAR uni30AA
ENCODING 12458
BBX 19 22 2 -2
BITMAP
003000
001C00
000E00
000C00
000C00
000C00
001FC0
81FFE0
7F6C00
3C6C00
10CC00
00CC00
018C00
030C00
060C00
0C0C00
188C00
304C00
C03C00
003C00
001800
001000
ENDCHAR
STARTCHAR uni30AB
ENCODING 12459
BBX 19 20 1 -1
BITMAP
00E000
007000
007000
006000
006100
004F80
21F9C0
3F40E0
1CC0C0
098180
018180
030180
030180
060300
060300
0C4600
182600
303C00
201C00
C01800
ENDCHAR
STARTCHAR uni30AC
ENCODING 12460
BBX 24 21 0 -1
BITMAP
000008
00E006
007043
007033
006018
006118
004F80
21F9C0
3F40E0
1CC0C0
098180
018180
030180
030180
060300
060300
0C4600
182600
303C00
201C00
C01800
ENDCHAR
STARTCHAR uni30AD
ENCODING 12461
BBX 20 22 2 -2
BITMAP
070000
018000
01C000
018400
009E00
00FF00
41C000
67C000
3E6000
1861E0
0067F0
007C00
01F000
87B000
7E3000
781800
201800
001800
001800
000C00
000C00
000C00
ENDCHAR
STARTCHAR uni30AE
ENCODING 12462
BBX 21 23 2 -2
BITMAP
000040
070030
018218
01C198
0184C0
009EC0
00FE00
41C000
67C000
3E6000
1861E0
0067F0
007C00
01F000
87B000
7E3000
781800
201800
001800
001800
000C00
000C00
000C00
ENDCHAR
STARTCHAR uni30AF
ENCODING 12463
BBX 15 22 4 -2
BITMAP
0600
0300
0380
0300
061C
07FE
0F0E
0C1C
1818
3038
2030
C060
0060
00C0
0180
0180
0300
0600
0C00
1800
3000
C000
ENDCHAR
STARTCHAR uni30B0
ENCODING 12464
BBX 20 23 3 -2
BITMAP
000080
060060
030430
038330
030180
061D80
07FE00
0F0E00
0C1C00
181800
303800
203000
C06000
006000
00C000
018000
018000
030000
060000
0C0000
180000
300000
C00000
ENDCHAR
STARTCHAR uni30B1
ENCODING 12465
BBX 19 21 3 -2
BITMAP
0C0000
060000
070000
060000
060000
0C0FC0
0FFFE0
0DB000
181800
183800
303000
203000
406000
806000
00C000
00C000
018000
010000
020000
040000
180000
ENDCHAR
STARTCHAR uni30B2
ENCODING 12466
BBX 22 23 2 -2
BITMAP
000020
000018
0C010C
0600CC
070060
060060
060000
0C0FC0
0FFFE0
0DB000
181800
183800
303000
203000
406000
806000
00C000
00C000
018000
010000
020000
040000
180000
ENDCHAR
STARTCHAR uni30B3
ENCODING 12467
BBX 18 15 2 1
BITMAP
000200
807F00
7FE180
3F01C0
180180
000180
000300
000300
000300
000300
000600
407E00
3FCE00
1E0600
080000
ENDCHAR
STARTCHAR uni30B4
ENCODING 12468
BBX 22 18 2 1
BITMAP
000020
000118
0000CC
00046C
80FE60
7FC300
3E0380
180300
000300
000600
000600
000600
000600
000C00
40FC00
3F9C00
1E0C00
080000
ENDCHAR
STARTCHAR uni30B5
ENCODING 12469
BBX 22 23 1 -3
BITMAP
001800
000E00
060700
038600
01C600
018600
0186F8
019FFC
83F60C
7F8600
3D8600
118600
018600
018C00
010C00
000C00
000800
001800
001000
003000
002000
004000
008000
ENDCHAR
STARTCHAR uni30B6
ENCODING 12470
BBX 23 24 1 -3
BITMAP
000010
00180C
000E86
060766
038630
01C630
018600
0186F8
019FFC
83F60C
7F8600
3D8600
118600
018600
018C00
010C00
000C00
000800
001800
001000
003000
002000
004000
008000
ENDCHAR
STARTCHAR uni30B7
ENCODING 12471
BBX 20 19 2 0
BITMAP
100000
0C0000
070000
038000
000000
400000
300010
1E0020
0E0040
000180
000300
000600
001C00
007000
81E000
478000
7E0000
3C0000
100000
ENDCHAR
STARTCHAR uni30B8
ENCODING 12472
BBX 22 20 2 0
BITMAP
000020
100018
0C010C
0700CC
038060
000060
400000
300000
1E0020
0E0040
000180
000300
000600
001C00
007000
81E000
478000
7E0000
3C0000
100000
ENDCHAR
STARTCHAR uni30B9
ENCODING 12473
BBX 18 17 3 0
BITMAP
001C00
41FE00
3F8C00
1E1C00
081800
003000
003000
006000
006000
00D000
018800
030600
060300
0C0180
1801C0
3000C0
C000C0
ENDCHAR
STARTCHAR uni30BA
ENCODING 12474
BBX 21 21 3 0
BITMAP
000040
000030
000218
000198
001CC0
41FEC0
3F8C00
1E1C00
081800
003000
003000
006000
006000
00D000
018800
030600
060300
0C0180
1801C0
3000C0
C000C0
ENDCHAR
STARTCHAR uni30BB
ENCODING 12475
BBX 21 20 1 0
BITMAP
060000
038000
01C000
018000
018000
018040
0183E0
019E70
01F078
8781C0
7F8300
3D8400
118000
018000
018000
008000
00C000
006000
003FE0
000FE0
ENDCHAR
STARTCHAR uni30BC
ENCODING 12476
BBX 24 21 0 0
BITMAP
000008
060006
038043
01C033
018018
018018
018040
0183E0
019E70
01F078
8781C0
7F8300
3D8400
118000
018000
018000
008000
00C000
006000
003FE0
000FE0
ENDCHAR
STARTCHAR uni30BD
ENCODING 12477
BBX 18 21 3 -2
BITMAP
000300
000180
8001C0
6001C0
300180
380180
180380
180300
000300
000600
000600
000C00
000C00
001800
001000
003000
006000
004000
008000
010000
060000
ENDCHAR
STARTCHAR uni30BE
ENCODING 12478
BBX 22 23 2 -2
BITMAP
000020
000018
00008C
00066C
800330
6003B0
300380
380300
180700
180600
000600
000C00
000C00
001800
001800
003000
002000
006000
00C000
008000
010000
020000
0C0000
ENDCHAR
STARTCHAR uni30BF
ENCODING 12479
BBX 15 22 4 -2
BITMAP
0600
0300
0380
0300
061C
07FE
0F0E
0C1C
1818
3738
23B0
C160
0060
00C0
0180
0180
0300
0600
0C00
1800
3000
C000
ENDCHAR
STARTCHAR uni30C0
ENCODING 12480
BBX 20 23 3 -2
BITMAP
000080
060060
030430
038330
030180
061D80
07FE00
0F0E00
0C1C00
181800
373800
23B000
C16000
006000
00C000
018000
018000
030000
060000
0C0000
180000
300000
C00000
ENDCHAR
STARTCHAR uni30C1
ENCODING 12481
BBX 22 23 1 -3
BITMAP
000800
000E00
003C00
007800
01E000
0E3000
001800
001810
001FF8
81F9FC
7F9800
3C1800
101800
001800
003000
003000
003000
006000
004000
00C000
008000
010000
020000
ENDCHAR
STARTCHAR uni30C2
ENCODING 12482
BBX 23 24 1 -3
BITMAP
000010
00088C
000E66
003C36
007830
01E000
0E3000
001800
001820
001FF0
81F9F8
7F9800
3C1800
101800
001800
003000
003000
003000
006000
004000
00C000
008000
010000
020000
ENDCHAR
STARTCHAR uni30C3
ENCODING 12483
BBX 14 14 4 -3
BITMAP
1030
0C18
861C
6618
3038
3030
0030
0060
0040
00C0
0180
0100
0200
0C00
ENDCHAR
STARTCHAR uni30C4
ENCODING 12484
BBX 19 21 2 -2
BITMAP
040180
0200C0
0300E0
8180E0
4180C0
6180C0
3001C0
300180
300180
000300
000300
000600
000C00
000C00
001800
003000
006000
00C000
018000
030000
0C0000
ENDCHAR
STARTCHAR uni30C5
ENCODING 12485
BBX 23 23 1 -2
BITMAP
000010
00008C
040066
020036
030330
818180
4181C0
618180
300380
300300
300300
000600
000600
000C00
000C00
001800
001000
003000
006000
00C000
018000
030000
0C0000
ENDCHAR
STARTCHAR uni30C6
ENCODING 12486
BBX 21 21 1 -3
BITMAP
103F00
0FFF80
078000
020000
000000
0007F0
81FFF8
7FB000
3C1800
101800
001800
001800
003000
003000
003000
006000
006000
00C000
008000
010000
020000
ENDCHAR
STARTCHAR uni30C7
ENCODING 12487
BBX 23 24 1 -3
BITMAP
000010
00000C
000086
103E66
0FFF30
078030
020000
000000
0007F8
81FFFC
7FB000
3C1800
101800
001800
001800
003000
003000
003000
006000
006000
00C000
008000
010000
020000
ENDCHAR
STARTCHAR uni30C8
ENCODING 12488
BBX 13 22 7 -2
BITMAP
E000
3000
3800
3800
3000
3000
3000
3000
3F00
31C0
30F0
3038
3018
3000
3000
3000
3000
3000
3000
3000
3000
2000
ENDCHAR
STARTCHAR uni30C9
ENCODING 12489
BBX 15 22 7 -2
BITMAP
E010
300C
3886
3866
3030
3030
3000
3000
3F00
31C0
30F0
3038
3018
3000
3000
3000
3000
3000
3000
3000
3000
2000
ENDCHAR
STARTCHAR uni30CA
ENCODING 12490
BBX 21 22 1 -2
BITMAP
006000
003800
001C00
001800
001800
001800
001BE0
003FF8
83F878
7F1800
3C1800
103800
003000
003000
003000
006000
006000
004000
00C000
018000
010000
060000
ENDCHAR
STARTCHAR uni30CB
ENCODING 12491
BBX 21 15 1 1
BITMAP
000200
103F00
1FFF80
0F0080
040000
000000
000000
000000
000000
000020
000FF0
81FFF8
FF8008
7C0000
200000
ENDCHAR
STARTCHAR uni30CC
ENCODING 12492
BBX 16 19 3 -1
BITMAP
0004
007E
43C7
3F0E
1C0C
0018
0C18
0330
01A0
00E0
00F0
0198
019C
030E
0606
0C00
1800
2000
C000
ENDCHAR
STARTCHAR uni30CD
ENCODING 12493
BBX 19 23 2 -2
BITMAP
020000
01C000
00E000
006000
000800
003C00
21EE00
1F8E00
0E1C00
041800
003000
007000
00EE00
01E380
0361C0
0E60E0
186060
E06000
006000
006000
006000
006000
004000
ENDCHAR
STARTCHAR uni30CE
ENCODING 12494
BBX 16 21 2 -1
BITMAP
000C
0006
0007
0006
000E
000C
000C
001C
0018
0038
0030
0060
0060
00C0
0180
0300
0600
0C00
1800
3000
C000
ENDCHAR
STARTCHAR uni30CF
ENCODING 12495
BBX 21 15 1 1
BITMAP
0C0000
060400
070200
070100
060180
0600C0
0E0060
0C0070
0C0030
180038
180018
300018
200018
400000
800000
ENDCHAR
STARTCHAR uni30D0
ENCODING 12496
BBX 22 19 1 1
BITMAP
000020
000018
00010C
0000CC
0C0060
060460
070200
070100
060180
0600C0
0E0060
0C0070
0C0030
180038
180018
300018
200018
400000
800000
ENDCHAR
STARTCHAR uni30D1
ENCODING 12497
BBX 21 18 1 1
BITMAP
000070
000088
000088
0C0088
060470
070200
070100
060180
0600C0
0E0060
0C0070
0C0030
180038
180018
300018
200018
400000
800000
ENDCHAR
STARTCHAR uni30D2
ENCODING 12498
BBX 16 19 4 0
BITMAP
C000
7000
3800
3000
3000
3010
303C
30F8
33C0
3E00
3000
3000
3000
3000
3000
3000
1807
1FFF
07FC
ENDCHAR
STARTCHAR uni30D3
ENCODING 12499
BBX 20 20 3 0
BITMAP
000080
C00060
700430
380330
300180
300180
301000
303C00
30F800
33C000
3E0000
300000
300000
300000
300000
300000
300000
180700
1FFF00
07FC00
ENDCHAR
STARTCHAR uni30D4
ENCODING 12500
BBX 20 19 3 0
BITMAP
C000E0
700110
380110
300110
3000E0
301000
303C00
30F800
33C000
3E0000
300000
300000
300000
300000
300000
300000
180700
1FFF00
07FC00
ENDCHAR
STARTCHAR uni30D5
ENCODING 12501
BBX 16 19 3 -1
BITMAP
0004
003E
C1E7
7F07
3C06
100E
000C
000C
000C
0018
0018
0030
0030
0060
00C0
0180
0300
0600
1800
ENDCHAR
STARTCHAR uni30D6
ENCODING 12502
BBX 22 22 2 -1
BITMAP
000020
000018
00010C
0004CC
003E60
C1E760
7F0700
3C0600
100E00
000C00
000C00
000C00
001800
001800
003000
003000
006000
00C000
018000
030000
060000
180000
ENDCHAR
STARTCHAR uni30D7
ENCODING 12503
BBX 22 21 2 -1
BITMAP
000038
000044
000444
003E44
C1E738
7F0700
3C0600
100E00
000C00
000C00
000C00
001800
001800
003000
003000
006000
00C000
018000
030000
060000
180000
ENDCHAR
STARTCHAR uni30D8
ENCODING 12504
BBX 22 11 1 4
BITMAP
018000
024000
023000
061800
0C0C00
0C0600
980380
7801C0
7000F0
60007C
00001C
ENDCHAR
STARTCHAR uni30D9
ENCODING 12505
BBX 22 16 1 4
BITMAP
000200
000180
0010C0
000CC0
000600
018600
024000
023000
061800
0C0C00
0C0600
980380
7801C0
7000F0
60007C
00001C
ENDCHAR
STARTCHAR uni30DA
ENCODING 12506
BBX 22 15 1 4
BITMAP
000380
000440
000440
000440
018380
024000
023000
061800
0C0C00
0C0600
980380
7801C0
7000F0
60007C
00001C
ENDCHAR
STARTCHAR uni30DB
ENCODING 12507
BBX 20 21 2 -1
BITMAP
018000
00E000
007000
006000
006000
006000
0067E0
81FFF0
7F6000
3C6000
106000
006100
086080
0860C0
086060
186070
306030
726030
61E000
00E000
00C000
ENDCHAR
STARTCHAR uni30DC
ENCODING 12508
BBX 22 22 2 -1
BITMAP
000020
018018
00E10C
0070CC
006060
006060
006000
0067E0
81FFF0
7F6000
3C6000
106000
006100
086080
0860C0
086060
186070
306030
726030
61E000
00E000
00C000
ENDCHAR
STARTCHAR uni30DD
ENCODING 12509
BBX 21 21 2 -1
BITMAP
018070
00E088
007088
006088
006070
006000
0067E0
81FFF0
7F6000
3C6000
106000
006100
086080
0860C0
086060
186070
306030
726030
61E000
00E000
00C000
ENDCHAR
STARTCHAR uni30DE
ENCODING 12510
BBX 20 15 2 1
BITMAP
000080
000FC0
81F8E0
FF81F0
7C0380
300600
000C00
0C1800
032000
01C000
00E000
007000
003800
003800
001800
ENDCHAR
STARTCHAR uni30DF
ENCODING 12511
BBX 12 22 5 -2
BITMAP
6000
1800
0E00
0380
01C0
00E0
0060
3000
0C00
0700
0380
0180
0000
8000
7000
1C00
0600
0380
01C0
00E0
0070
0030
ENDCHAR
STARTCHAR uni30E0
ENCODING 12512
BBX 21 20 1 -1
BITMAP
00C000
007000
003800
003000
007000
006000
006000
00C000
00C400
00C200
008100
018180
0100C0
010060
0201F0
021F30
87F038
7F0018
3C0018
100000
ENDCHAR
STARTCHAR uni30E1
ENCODING 12513
BBX 17 20 3 -1
BITMAP
000C00
000600
000700
000E00
000C00
1C0C00
031800
01D800
007000
007800
006C00
00CE00
00C700
018380
030180
060180
0C0000
180000
300000
C00000
ENDCHAR
STARTCHAR uni30E2
ENCODING 12514
BBX 21 20 1 -1
BITMAP
000200
203F00
1FFF80
0FC000
04C000
00C000
00C020
00C7F0
81FFF8
7FE000
3CC000
10C000
00C000
00C000
00C000
00C000
00C000
006060
007FE0
001FC0
ENDCHAR
STARTCHAR uni30E3
ENCODING 12515
BBX 15 15 4 -3
BITMAP
1C00
0E00
060C
027E
03CE
8F18
7B10
7120
21C0
0080
00C0
00C0
0060
0060
0060
ENDCHAR
STARTCHAR uni30E4
ENCODING 12516
BBX 21 22 1 -2
BITMAP
070000
038000
018000
018000
0180E0
0087F0
00BC38
00E078
03C0C0
8E4100
7C6200
382400
103000
003000
003000
001800
001800
001800
001C00
000C00
000C00
000C00
ENDCHAR
STARTCHAR uni30E5
ENCODING 12517
BBX 17 11 3 0
BITMAP
002000
10F000
0FB800
0E3000
003000
002000
006000
006000
83FF80
7F0780
380000
ENDCHAR
STARTCHAR uni30E6
ENCODING 12518
BBX 21 15 1 1
BITMAP
000400
107E00
1FE700
0F0600
040C00
000C00
000C00
001800
001800
001000
0031F0
81FFF8
FFC018
7C0000
200000
ENDCHAR
STARTCHAR uni30E7
ENCODING 12519
BBX 12 12 6 -1
BITMAP
00C0
87E0
7E70
3060
0060
47C0
3CC0
18C0
00C0
8780
7D80
3180
ENDCHAR
STARTCHAR uni30E8
ENCODING 12520
BBX 17 19 3 -1
BITMAP
000600
80FF00
7FC380
3E0300
100300
000300
000600
000600
41FE00
3F8600
1C0400
000C00
000C00
000C00
001C00
83FC00
7F0C00
380000
100000
ENDCHAR
STARTCHAR uni30E9
ENCODING 12521
BBX 17 21 2 -2
BITMAP
000800
103C00
0FFE00
078000
020000
000700
001D80
83E380
7F0380
3C0300
100600
000600
000C00
000C00
001800
001800
003000
006000
00C000
018000
060000
ENDCHAR
STARTCHAR uni30EA
ENCODING 12522
BBX 12 23 6 -3
BITMAP
0180
C0E0
6070
7060
6060
6060
6060
6060
6060
6060
6060
6060
6060
60C0
00C0
00C0
0180
0180
0300
0200
0400
0800
1000
ENDCHAR
STARTCHAR uni30EB
ENCODING 12523
BBX 22 20 1 -1
BITMAP
00C000
007000
0C3800
063000
073000
063000
063000
063004
063008
063018
063030
0C3060
0C30C0
0C3180
183700
183E00
307C00
203800
401000
800000
ENDCHAR
STARTCHAR uni30EC
ENCODING 12524
BBX 18 21 4 -1
BITMAP
C00000
700000
380000
380000
300000
300000
300000
300000
300000
300040
300080
300100
300600
300C00
303800
30E000
33C000
3F0000
7C0000
380000
100000
ENDCHAR
STARTCHAR uni30ED
ENCODING 12525
BBX 17 17 3 0
BITMAP
000600
C07F00
63FB80
7C0300
600300
600700
600600
300600
300600
300600
300C00
300C00
300C00
300C00
3FFE00
300600
200000
ENDCHAR
STARTCHAR uni30EE
ENCODING 12526
BBX 13 14 5 -3
BITMAP
C0E0
7FF0
7838
6030
6070
6060
0060
00C0
00C0
0180
0100
0200
0400
0800
ENDCHAR
STARTCHAR uni30EF
ENCODING 12527
BBX 17 19 3 -1
BITMAP
000C00
C03E00
63FF00
7F0380
600700
600600
600600
600E00
600C00
600C00
401800
001800
003000
003000
006000
00C000
018000
030000
0C0000
ENDCHAR
STARTCHAR uni30F0
ENCODING 12528
BBX 21 22 1 -2
BITMAP
003000
001800
001C00
001800
001800
0019C0
107FE0
0FF820
071800
021800
031800
0319F0
82FFF8
7FD808
3E1800
181800
001800
001800
001800
001800
001800
001000
ENDCHAR
STARTCHAR uni30F1
ENCODING 12529
BBX 22 17 1 0
BITMAP
000200
101F00
0FF780
078300
020600
00E400
007800
003000
003000
003000
002000
002000
002010
803FF8
7FF0FC
3F0000
180000
ENDCHAR
STARTCHAR uni30F2
ENCODING 12530
BBX 18 21 2 -2
BITMAP
000200
000F00
81F980
7F81C0
3E0180
180380
000300
000300
40FF00
3FC600
1E0600
080C00
000C00
001800
001000
003000
006000
004000
008000
010000
060000
ENDCHAR
STARTCHAR uni30F3
ENCODING 12531
BBX 20 18 2 1
BITMAP
200000
100000
1C0000
0F0000
070000
000010
000020
000040
000080
000300
000600
001C00
003800
00E000
87C000
7F0000
3C0000
180000
ENDCHAR
STARTCHAR uni30F4
ENCODING 12532
BBX 22 24 2 -3
BITMAP
000020
030018
01810C
01C0CC
018060
018660
C1FF00
7F8380
7C0300
600700
600600
600600
600600
600C00
400C00
001800
001800
003000
006000
004000
008000
010000
020000
040000
ENDCHAR
STARTCHAR uni30F5
ENCODING 12533
BBX 14 15 5 -3
BITMAP
0C00
0700
0630
87F8
FE1C
7618
2618
0C18
0C18
0C30
1A30
1130
20E0
40C0
80C0
ENDCHAR
STARTCHAR uni30F6
ENCODING 12534
BBX 14 16 4 -3
BITMAP
3000
1C00
1800
1878
1FFC
3580
30C0
60E0
40C0
80C0
0180
0180
0300
0600
0C00
3000
ENDCHAR
STARTCHAR uni30FB
ENCODING 12539
BBX 3 3 10 7
BITMAP
E0
E0
E0
ENDCHAR
STARTCHAR uni30FC
ENCODING 12540
BBX 22 4 1 7
BITMAP
800000
7FFFF8
3FFFFC
180000
ENDCHAR
STARTCHAR uni30FD
ENCODING 12541
BBX 8 9 8 5
BITMAP
80
60
30
18
0C
06
07
03
03
ENDCHAR
STARTCHAR uni30FE
ENCODING 12542
BBX 12 13 8 4
BITMAP
0080
0060
0430
0330
8180
6180
3000
1800
0C00
0600
0700
0300
0300
ENDCHAR
STARTCHAR uni3231
ENCODING 12849
BBX 22 24 1 -3
BITMAP
080040
100020
272710
263610
663698
46BFC8
7FE608
C6260C
CF46CC
CEFFEC
CE8E0C
D6CF0C
D6DF0C
E6168C
C636CC
C626EC
C6464C
468648
460608
660618
260610
260610
100020
080040
ENDCHAR
STARTCHAR uni3232
ENCODING 12850
BBX 22 24 1 -3
BITMAP
080040
100020
20E010
20C010
60C198
4FFFC8
40C008
C1800C
C1060C
C3FF0C
C3860C
C5860C
C9FE0C
D1860C
C1860C
C1FE0C
C1860C
418608
418608
618618
21BE10
218C10
100020
080040
ENDCHAR
STARTCHAR uni3239
ENCODING 12857
BBX 22 24 1 -3
BITMAP
080040
100020
211C10
21DB10
619998
431988
431848
C6FFEC
C6180C
CE180C
CE180C
D6180C
E60C0C
C60C0C
C60C0C
C60C4C
C6064C
460648
460388
660398
2601D0
2600D0
100020
080040
ENDCHAR
STARTCHAR uni32A4
ENCODING 12964
BBX 22 22 1 -2
BITMAP
00FC00
030300
0C00C0
100020
203810
203010
403008
403008
803304
803F84
803004
803004
803004
803004
403008
403188
2FFFD0
200010
100020
0C00C0
030300
00FC00
ENDCHAR
STARTCHAR uni32A5
ENCODING 12965
BBX 22 22 1 -2
BITMAP
00FC00
030300
0C00C0
100020
203810
203010
443188
47FFC8
863184
863184
863184
87FF84
863184
803004
403008
403008
203010
203010
100020
0C00C0
030300
00FC00
ENDCHAR
STARTCHAR uni32A6
ENCODING 12966
BBX 22 22 1 -2
BITMAP
00FC00
030300
0C00C0
100020
200190
2FFFD0
403008
403008
803C04
803384
803184
803004
803004
803004
403008
403008
203010
203010
100020
0C00C0
030300
00FC00
ENDCHAR
STARTCHAR uni32A7
ENCODING 12967
BBX 22 22 1 -2
BITMAP
00FC00
030300
0C00C0
100020
207010
206010
406188
4FFFC8
80C004
80C004
818604
83FF04
843004
983004
403008
403308
23FF90
200010
100020
0C00C0
030300
00FC00
ENDCHAR
STARTCHAR uni32A8
ENCODING 12968
BBX 22 22 1 -2
BITMAP
00FC00
030300
0C00C0
100020
207010
206010
406188
4FFFC8
80C004
80C004
818604
83FF04
858604
998604
418608
418608
21FE10
218610
100020
0C00C0
030300
00FC00
ENDCHAR
STARTCHAR uni3303
ENCODING 13059
BBX 23 23 0 -3
BITMAP
00C000
8FA000
7C7000
30E000
058000
061000
061FFC
060FFE
060400
0C0000
0C0000
081800
118C00
20CE00
00CC00
00CC10
00CC20
00CC40
008D80
019F00
010E00
020400
040000
ENDCHAR
STARTCHAR uni330D
ENCODING 13069
BBX 23 24 0 -3
BITMAP
1C0000
0C0000
0C4C38
8FE7EC
FC760C
6C660C
186208
186318
10C318
30C318
2783F8
438218
810000
31C000
18E000
18C800
18CFFC
18C7FE
18C200
018000
018000
030000
020000
0C0000
ENDCHAR
STARTCHAR uni3314
ENCODING 13076
BBX 23 22 0 -1
BITMAP
300000
180000
180000
180000
0B8000
0F8000
FC0000
6C0000
0C0000
05C000
0FEC1C
FE07FE
66060C
06060C
02060C
03060C
030218
030218
030218
000218
0003F8
000208
ENDCHAR
STARTCHAR uni3318
ENCODING 13080
BBX 23 24 0 -3
BITMAP
100800
1C2C30
19B7F8
1FD380
318038
318FEE
23078C
630018
460018
860030
0C0020
080040
103180
201800
401800
001800
001000
003200
002100
002080
0047C0
03FC60
01C060
010060
ENDCHAR
STARTCHAR uni3322
ENCODING 13090
BBX 23 24 0 -3
BITMAP
300800
180600
1C6380
19F180
9E6002
F88004
590018
180870
1807C0
183700
0FF200
07E000
000F00
003C00
01F000
0019C0
087FE0
07D800
031800
001000
003000
002000
004000
018000
ENDCHAR
STARTCHAR uni3323
ENCODING 13091
BBX 23 24 0 -3
BITMAP
300800
180600
1C6380
19F180
9E6002
F88004
590018
180870
1807C0
183700
0FF200
07E000
002000
003800
003000
003000
003E00
0033C0
0030C0
003000
003000
003000
003000
003000
ENDCHAR
STARTCHAR uni3326
ENCODING 13094
BBX 21 24 2 -3
BITMAP
C04000
622000
713000
61B000
618000
600000
780000
6E0000
670000
630000
600C00
60C600
606700
606600
606600
606600
006608
006610
004620
00C6C0
008F80
010700
020200
040000
ENDCHAR
STARTCHAR uni3327
ENCODING 13095
BBX 20 22 3 -1
BITMAP
C00000
600000
700000
600000
600000
600000
7C0000
670000
630000
610000
604000
603000
601C00
600C10
600020
000040
000080
008300
004E00
007C00
003000
002000
ENDCHAR
STARTCHAR uni332B
ENCODING 13099
BBX 23 23 0 -2
BITMAP
003000
324800
194800
19B000
188800
18CFFC
30C7FE
306200
206000
406000
800000
0000C0
600060
304070
333C60
BF9C60
FB00F8
72016E
348666
327C60
3F7060
1F2060
000060
ENDCHAR
STARTCHAR uni3336
ENCODING 13110
BBX 24 24 0 -3
BITMAP
000200
040380
0A0318
0903FC
198318
90C630
70C430
606860
2060C0
000080
000100
200200
380C00
330060
3F8030
330338
6301B0
5601B1
9EF9B2
0CF932
080334
100238
200430
400800
ENDCHAR
STARTCHAR uni333B
ENCODING 13115
BBX 23 23 0 -2
BITMAP
003000
004800
004800
063000
090400
0887FC
98C3FE
706100
307000
203800
001800
000040
008020
007130
003090
0200C0
01C040
00C080
000300
021C00
03F800
01E000
008000
ENDCHAR
STARTCHAR uni3349
ENCODING 13129
BBX 22 23 0 -3
BITMAP
300000
0C0000
070000
038000
018000
000030
300618
0C031C
070398
030318
000318
C00318
380318
0C0318
070218
038018
018018
000030
000030
000020
000060
000040
000180
ENDCHAR
STARTCHAR uni334A
ENCODING 13130
BBX 24 24 0 -3
BITMAP
1C0060
078C30
018638
000630
1C0630
070630
030630
000030
000060
3C0060
0F0040
038080
008100
024060
096030
658338
3401B0
3601B0
327DB1
237D32
63037C
430238
830410
000800
ENDCHAR
STARTCHAR uni334D
ENCODING 13133
BBX 23 24 0 -3
BITMAP
010000
01C000
418000
230000
1A1000
0C1FFC
0E0FFE
1B0400
118000
218000
400000
B80180
1C00C0
180CE0
1806C0
1C06C0
1B06C2
19C6C4
18CCC8
180CD0
1808E0
1810C0
182000
004000
ENDCHAR
STARTCHAR uni3351
ENCODING 13137
BBX 21 24 2 -3
BITMAP
060000
C30000
638000
630000
630800
630440
634660
022260
0630C0
0410C0
080180
300300
300C00
180300
183180
1819C0
1C1980
1B1980
199988
199190
1831E0
1823C0
184180
188000
ENDCHAR
STARTCHAR uni3357
ENCODING 13143
BBX 20 23 1 -3
BITMAP
004000
C3E000
7F6000
606400
60C220
60D330
418930
018C60
030460
0200C0
04C180
086600
107000
006000
006000
007800
006600
006700
006300
006000
006000
006000
006000
ENDCHAR
STARTCHAR uni337B
ENCODING 13179
BBX 24 20 0 -1
BITMAP
00C018
7FE01C
06001E
46441A
2677FF
366618
36C618
3686DA
0707FB
0636DB
FFFEDB
0606DA
0606DE
0606DC
060CCD
060FDD
06099E
061836
061067
062183
ENDCHAR
STARTCHAR uni337C
ENCODING 13180
BBX 24 22 0 -2
BITMAP
006040
1FF0E0
0363C0
9B6F00
FB6326
DB633F
DA6336
DA6FF6
DDE336
F8C736
D807B6
DA6F76
DBEB76
DB6B36
FB7336
DB633E
C36336
036330
036300
03E300
036300
036300
ENDCHAR
STARTCHAR uni337D
ENCODING 13181
BBX 24 22 0 -2
BITMAP
070006
060FFF
060060
060060
066060
FFF060
060760
060660
060664
06067E
0D0660
0D0660
0D0660
0D0660
0D8660
188660
188660
10C660
30E660
206666
407FFF
802000
ENDCHAR
STARTCHAR uni337E
ENCODING 13182
BBX 24 22 0 -2
BITMAP
026820
03F638
9B6330
FB6330
DB7020
DB6C28
DBE624
DB6646
FB61FF
DB6163
DB6340
DBE200
DB6646
FB7E7F
DB6E66
036666
026666
026666
066666
04667E
0BE766
10C366
ENDCHAR
STARTCHAR uni338E
ENCODING 13198
BBX 23 16 0 -2
BITMAP
000006
6CC1EE
FFE218
666618
666618
666210
6665E0
666400
666600
6663F0
6661FC
66660E
666406
EEF606
0003FC
0000F8
ENDCHAR
STARTCHAR uni338F
ENCODING 13199
BBX 22 21 1 -2
BITMAP
600000
E00000
600000
600000
600000
60000C
6003DC
63C430
610C30
620C30
640420
780BC0
680800
6C0C00
6607E0
6303F8
618C1C
60C80C
F3EC0C
0007F8
0001F0
ENDCHAR
STARTCHAR uni339C
ENCODING 13212
BBX 24 13 0 0
BITMAP
6CC6CC
FFEFFE
666666
666666
666666
666666
666666
666666
666666
666666
666666
666666
F77777
ENDCHAR
STARTCHAR uni339D
ENCODING 13213
BBX 22 13 1 0
BITMAP
1C1B30
633FF8
419998
C19998
C01998
C01998
C01998
C01998
C09998
C09998
611998
761998
1C3DDC
ENDCHAR
STARTCHAR uni339E
ENCODING 13214
BBX 23 19 0 0
BITMAP
600000
E00000
600000
600000
600000
600000
600D98
63DFFC
610CCC
620CCC
640CCC
780CCC
680CCC
6C0CCC
660CCC
630CCC
618CCC
60CCCC
F3FEEE
ENDCHAR
STARTCHAR uni33A1
ENCODING 13217
BBX 22 20 1 0
BITMAP
000078
0000CC
0000CC
000018
000030
000044
00007C
3387FC
FCD980
3060C0
3060C0
3060C0
3060C0
3060C0
3060C0
3060C0
3060C0
3060C0
3060C0
FDFBF0
ENDCHAR
STARTCHAR uni33C4
ENCODING 13252
BBX 21 13 1 0
BITMAP
1C01C0
630630
418418
C18C18
C00C00
C00C00
C00C00
C00C00
C08C08
C08C08
610610
760760
1C01C0
ENDCHAR
STARTCHAR uni33CD
ENCODING 13261
BBX 24 18 0 0
BITMAP
F3CF3C
610610
620620
620620
640640
680680
680680
780780
680680
6C06C0
6C06C0
660660
660660
630630
630630
61B61B
61B61B
F3CF3C
ENDCHAR
STARTCHAR uni4E00
ENCODING 19968
BBX 24 3 0 9
BITMAP
000004
00000E
FFFFFF
ENDCHAR
STARTCHAR uni4E01
ENCODING 19969
BBX 24 23 0 -3
BITMAP
000006
FFFFFF
001800
001800
001800
001800
001800
001800
001800
001800
001800
001800
001800
001800
001800
001800
001800
001800
001800
001800
001800
00F800
003000
ENDCHAR
STARTCHAR uni4E03
ENCODING 19971
BBX 24 23 0 -2
BITMAP
038000
030000
030000
030000
030000
030000
030006
03000F
0300F0
030700
037800
0F8000
F30000
030000
030000
030000
030000
030010
030010
030010
030018
03FFF8
01FFF0
ENDCHAR
STARTCHAR uni4E07
ENCODING 19975
BBX 24 23 0 -3
BITMAP
000006
FFFFFF
006000
006000
006000
006000
006030
007FF8
006030
00C030
00C030
00C030
00C030
018030
018060
010060
030060
0200C0
0600C0
040180
081F80
100700
600600
ENDCHAR
STARTCHAR uni4E08
ENCODING 19976
BBX 24 24 0 -3
BITMAP
001C00
001800
001800
001800
001800
001806
FFFFFF
001800
011800
011800
011800
009800
009800
005800
007000
003000
007800
006C00
00C600
018380
0301E0
0C007F
30001E
C00006
ENDCHAR
STARTCHAR uni4E09
ENCODING 19977
BBX 24 21 0 -1
BITMAP
000018
3FFFFC
000000
000000
000000
000000
000000
000000
000060
0FFFF0
000000
000000
000000
000000
000000
000000
000000
000000
000000
000006
FFFFFF
ENDCHAR
STARTCHAR uni4E0A
ENCODING 19978
BBX 24 23 0 -2
BITMAP
001C00
001800
001800
001800
001800
001800
001800
001800
001800
001818
001FFC
001800
001800
001800
001800
001800
001800
001800
001800
001800
001800
001806
FFFFFF
ENDCHAR
STARTCHAR uni4E0B
ENCODING 19979
BBX 24 23 0 -3
BITMAP
000006
FFFFFF
003000
003000
003000
003C00
003300
0030C0
003070
003038
003018
003000
003000
003000
003000
003000
003000
003000
003000
003000
003000
003000
003000
ENDCHAR
STARTCHAR uni4E0D
ENCODING 19981
BBX 24 23 0 -3
BITMAP
000006
FFFFFF
000E00
000C00
001800
003000
003C00
007980
00D860
019838
03181C
06180E
0C1806
301800
C01800
001800
001800
001800
001800
001800
001800
001800
001800
ENDCHAR
STARTCHAR uni4E0E
ENCODING 19982
BBX 24 24 0 -3
BITMAP
038000
030000
030000
030060
03FFF0
030000
030000
030180
03FFC0
060180
060180
000180
000186
FFFFFF
000180
000180
000300
000300
000300
000600
000E00
00FC00
003800
003000
ENDCHAR
STARTCHAR uni4E10
ENCODING 19984
BBX 24 23 0 -3
BITMAP
000006
FFFFFF
001800
001800
0E1818
0C1FFC
0C1800
0C1800
0C1800
0C1818
1FFFFC
180018
180018
000018
000018
000018
000030
000030
000030
000060
000FE0
0003C0
000180
ENDCHAR
STARTCHAR uni4E11
ENCODING 19985
BBX 24 23 0 -2
BITMAP
000180
1FFFC0
00C180
00C180
00C180
00C180
00C180
00C180
00C180
00C186
FFFFFF
018180
018180
018180
018180
018180
018180
018180
018180
018180
018180
018186
FFFFFF
ENDCHAR
STARTCHAR uni4E14
ENCODING 19988
BBX 24 23 0 -2
BITMAP
020180
03FFC0
030180
030180
030180
030180
030180
03FF80
030180
030180
030180
030180
030180
030180
03FF80
030180
030180
030180
030180
030180
030180
030186
FFFFFF
ENDCHAR
STARTCHAR uni4E15
ENCODING 19989
BBX 24 22 0 -2
BITMAP
00000C
7FFFFE
001C00
001800
003800
003600
006180
00DCE0
019838
03181C
06180E
0C1806
301800
C01800
001800
001800
001800
001800
001800
001800
000006
FFFFFF
ENDCHAR
STARTCHAR uni4E16
ENCODING 19990
BBX 24 24 0 -3
BITMAP
001C70
071860
061860
061860
061860
061860
061860
061866
FFFFFF
061860
061860
061860
061860
061860
061FE0
061860
061860
060000
060000
060000
060000
06000C
07FFFE
060000
ENDCHAR
STARTCHAR uni4E17
ENCODING 19991
BBX 24 24 0 -3
BITMAP
0E1C38
0C1830
0C1830
0C1830
0C1830
0C1830
0C1830
0C1830
0C1836
FFFFFF
0C1830
0C1830
0C1830
0C1830
0C1830
0C1830
0C1830
0C1830
0C1830
0C1830
0C1830
0C1830
0FFFF0
0C0030
ENDCHAR
STARTCHAR uni4E18
ENCODING 19992
BBX 24 23 0 -2
BITMAP
000060
0001F0
000780
023C00
03C000
030000
030000
030000
030000
030018
03FFFC
030300
030300
030300
030300
030300
030300
030300
030300
030300
030300
030306
FFFFFF
ENDCHAR
STARTCHAR uni4E19
ENCODING 19993
BBX 24 23 0 -3
BITMAP
000006
FFFFFF
001800
001800
001800
101818
1FFFFC
181818
181818
183418
183318
186198
18C0D8
1980D8
1E00D8
180018
180018
180018
180018
180018
180018
1800F8
180030
ENDCHAR
STARTCHAR uni4E1E
ENCODING 19998
BBX 24 23 0 -2
BITMAP
0000C0
0FFFE0
000180
001300
001400
019810
7FDC1C
019A38
019A60
031980
031900
061880
0618C0
0C1860
081838
10181F
20180E
401806
80F800
003000
000000
00000C
7FFFFE
ENDCHAR
STARTCHAR uni4E21
ENCODING 20001
BBX 24 23 0 -3
BITMAP
000006
FFFFFF
001800
001800
001800
20180C
3FFFFE
30180C
30180C
3398EC
3318CC
3318CC
3318CC
3318CC
3318CC
3318CC
33FFCC
3300CC
33000C
30000C
30000C
30007C
300018
ENDCHAR
STARTCHAR uni4E26
ENCODING 20006
BBX 24 23 0 -2
BITMAP
040080
0300E0
0180C0
01C180
00C100
00020C
7FFFFE
00C600
00C600
00C610
20C61C
10C618
18C618
08C630
0CC620
0CC660
0CC640
0CC680
00C700
00C600
00C600
00C606
FFFFFF
ENDCHAR
STARTCHAR uni4E2A
ENCODING 20010
BBX 24 24 0 -3
BITMAP
001800
003800
003400
007600
006300
00C180
0180C0
030070
061C3F
0C180E
301802
C01800
001800
001800
001800
001800
001800
001800
001800
001800
001800
001800
001800
001800
ENDCHAR
STARTCHAR uni4E2D
ENCODING 20013
BBX 21 24 2 -3
BITMAP
007000
006000
006000
006000
006000
806030
FFFFF8
C06030
C06030
C06030
C06030
C06030
C06030
FFFFF0
C06030
C06030
006000
006000
006000
006000
006000
006000
006000
006000
ENDCHAR
STARTCHAR uni4E31
ENCODING 20017
BBX 22 24 1 -3
BITMAP
01CE00
018C00
018C00
E18C1C
C18C18
C18C18
C18C18
C18C18
C18C18
C18C18
C18C18
C18C18
C18C18
FF8FF8
C18C18
C30C18
030C00
030C00
060C00
060C00
0C0C00
080C00
100C00
600C00
ENDCHAR
STARTCHAR uni4E32
ENCODING 20018
BBX 21 24 2 -3
BITMAP
007000
006000
006000
406060
7FFFF0
606060
606060
606060
7FFFE0
606060
006000
806030
FFFFF8
C06030
C06030
C06030
C06030
FFFFF0
C06030
006000
006000
006000
006000
006000
ENDCHAR
STARTCHAR uni4E36
ENCODING 20022
BBX 13 16 5 2
BITMAP
8000
6000
3000
1800
0C00
0600
0700
0380
01C0
01C0
00E0
00F0
0070
0078
0078
0030
ENDCHAR
STARTCHAR uni4E38
ENCODING 20024
BBX 24 24 0 -3
BITMAP
007000
006000
006000
006000
0060C0
7FFFE0
0060C0
0060C0
0060C0
1860C0
0660C0
0360C0
01C0C0
00C0C0
00E0C0
01B0C0
0198C0
0318C0
030CC2
060CC2
0C00C2
1800C3
3000FF
C0007E
ENDCHAR
STARTCHAR uni4E39
ENCODING 20025
BBX 24 24 0 -3
BITMAP
0400C0
07FFE0
0600C0
0600C0
0680C0
0660C0
0630C0
0618C0
0618C0
0600C0
0600C6
FFFFFF
0600C0
0600C0
0600C0
0600C0
0600C0
0C00C0
0C00C0
0C00C0
1800C0
1800C0
3007C0
C00180
ENDCHAR
STARTCHAR uni4E3B
ENCODING 20027
BBX 24 23 0 -2
BITMAP
00C000
003800
001C00
000C00
000018
3FFFFC
001800
001800
001800
001800
001800
001830
1FFFF8
001800
001800
001800
001800
001800
001800
001800
001800
001806
FFFFFF
ENDCHAR
STARTCHAR uni4E3C
ENCODING 20028
BBX 24 24 0 -3
BITMAP
01C1C0
018180
018180
018180
01818C
7FFFFE
01C180
01A180
01B180
019980
019980
018180
018186
FFFFFF
018180
030180
030180
030180
060180
060180
0C0180
180180
300180
C00180
ENDCHAR
STARTCHAR uni4E3F
ENCODING 20031
BBX 14 24 2 -3
BITMAP
001C
0018
0018
0018
0018
0018
0018
0018
0018
0018
0018
0030
0030
0030
0030
0060
0060
00C0
00C0
0180
0300
0600
1800
E000
ENDCHAR
STARTCHAR uni4E42
ENCODING 20034
BBX 24 24 0 -3
BITMAP
0001C0
040180
040180
040180
020180
020180
030300
010300
018300
008600
00C600
004600
006C00
003C00
001800
003C00
003600
006700
00C380
0181E0
0300F8
06003F
18001E
E00006
ENDCHAR
STARTCHAR uni4E43
ENCODING 20035
BBX 24 24 0 -3
BITMAP
000180
7FFFC0
00C180
00C180
00C180
00C180
00C180
00C186
00C3FF
00C306
00C306
018006
018006
018006
018006
030006
03000C
02000C
06000C
040018
080038
1003F0
2000E0
C000C0
ENDCHAR
STARTCHAR uni4E45
ENCODING 20037
BBX 24 24 0 -3
BITMAP
004000
007000
006000
006000
00C180
00FFC0
00C180
018180
018300
030300
020600
040600
080C00
101A00
201900
003100
006080
00C0C0
018060
030030
060038
0C001F
30000E
C00006
ENDCHAR
STARTCHAR uni4E4B
ENCODING 20043
BBX 24 23 0 -2
BITMAP
001C00
001800
001800
001830
7FFFF8
000070
0000E0
0000C0
000180
000300
000600
000C00
001800
003000
086000
098000
1A0000
140000
320000
618000
E0F000
603FFF
2007FE
ENDCHAR
STARTCHAR uni4E4D
ENCODING 20045
BBX 24 24 0 -3
BITMAP
010000
01C000
018000
030006
03FFFF
031800
061800
041800
0C1818
081FFC
101800
201800
401800
80180C
001FFE
001800
001800
001800
001800
001800
001800
001800
001800
001800
ENDCHAR
STARTCHAR uni4E4E
ENCODING 20046
BBX 24 24 0 -3
BITMAP
000070
0003F8
003F80
3FF800
101820
081838
041870
061860
0318C0
031880
001906
FFFFFF
001800
001800
001800
001800
001800
001800
001800
001800
001800
001800
00F800
003000
ENDCHAR
STARTCHAR uni4E4F
ENCODING 20047
BBX 24 24 0 -3
BITMAP
000038
0003FC
007F80
3FC000
001C00
001800
001860
FFFFF0
0000E0
0001C0
000180
000300
000600
000C00
001800
083000
086000
188000
150000
320000
618000
E0E000
607FFF
201FFE
ENDCHAR
STARTCHAR uni4E55
ENCODING 20053
BBX 24 24 0 -3
BITMAP
000038
0001FC
081FC0
0FEC00
0C0C00
0C0C06
0FFFFF
0C0C00
0C0C00
0C0C06
0FFFFF
0C0C00
0C0C00
0E0C18
1BFFFC
1B0C18
1B0C18
130C18
330C18
230C18
430CF8
830C30
000C00
000C00
ENDCHAR
STARTCHAR uni4E56
ENCODING 20054
BBX 24 24 0 -3
BITMAP
000060
0003F0
003F80
1FF800
001800
001806
FFFFFF
001800
001800
01D9C0
019980
7F9984
01998E
01999C
0199F0
039980
0D9982
F99982
719983
4199FF
0198FE
001800
001800
001800
ENDCHAR
STARTCHAR uni4E57
ENCODING 20055
BBX 24 24 0 -3
BITMAP
000070
0007F8
0FFE00
001800
00180C
7FFFFE
0318C0
0318C0
0318C6
FFFFFF
0318C0
0318C0
0318CC
7FFFFE
007C00
00DA00
00D900
019980
0318C0
061870
0C183F
30180E
C01806
001800
ENDCHAR
STARTCHAR uni4E58
ENCODING 20056
BBX 24 24 0 -3
BITMAP
0000E0
000FF0
1FFC00
001800
001806
FFFFFF
001800
01D9C8
01998E
FF999C
0199F0
019982
0F9983
F9BDFF
61BCFE
407A00
00DB00
019980
0318E0
0E187F
38181E
C01806
001800
001800
ENDCHAR
STARTCHAR uni4E59
ENCODING 20057
BBX 23 22 0 -2
BITMAP
0000C0
FFFFE0
000380
000700
000E00
001C00
003800
007000
00E000
01C000
038000
070000
0E0000
0C0000
180000
180004
300004
300004
380006
180006
1FFFFE
07FFFC
ENDCHAR
STARTCHAR uni4E5D
ENCODING 20061
BBX 24 24 0 -3
BITMAP
00E000
00C000
00C000
00C000
00C000
00C180
FFFFC0
00C180
00C180
00C180
00C180
00C180
00C180
018180
018180
018180
018182
030182
030182
060183
0C0183
1801FF
3000FE
C00000
ENDCHAR
STARTCHAR uni4E5E
ENCODING 20062
BBX 23 24 0 -3
BITMAP
010000
01C000
018000
03000C
03FFFE
060000
0C0000
080180
17FFC0
200700
401C00
803800
006000
00C000
018000
030000
060000
0C0004
0C0004
180004
180004
180006
0FFFFE
07FFFC
ENDCHAR
STARTCHAR uni4E5F
ENCODING 20063
BBX 24 24 0 -3
BITMAP
001C00
001800
071800
061800
061860
0618F0
061B60
061C60
063860
06D860
071860
0E1860
361860
C61860
061860
061BE0
0618C0
061802
061802
060002
060002
060003
07FFFF
03FFFE
ENDCHAR
STARTCHAR uni4E62
ENCODING 20066
BBX 23 24 1 -3
BITMAP
0E0E00
0C0C00
0C0C00
0C0C00
ECEC00
CCCC00
CCCC00
CCCC00
CCCC00
CCCC00
CCCC00
CCCC00
CCCC00
CCCC00
CCCC00
CCCC00
CCCC00
FFCC04
C0CC04
C0CC04
C00C06
000C06
000FFE
0007FC
ENDCHAR
STARTCHAR uni4E71
ENCODING 20081
BBX 24 24 0 -3
BITMAP
0019C0
007D80
01E180
0F0180
F30180
030180
030180
031980
FFFD80
030180
030180
030180
030180
233180
3FF980
303180
303180
303182
303182
303182
303182
3FF183
3031FF
3030FE
ENDCHAR
STARTCHAR uni4E73
ENCODING 20083
BBX 24 24 0 -3
BITMAP
003380
00FB00
07A300
FC3B00
483300
266300
364300
308300
013300
FFFB00
006300
02C300
030300
033B00
0FC300
FF0300
730300
430300
030302
030302
030302
030303
1F03FF
0601FE
ENDCHAR
STARTCHAR uni4E7E
ENCODING 20094
BBX 24 24 0 -3
BITMAP
070200
060380
066300
FFF300
060606
0607FF
466400
7FEC00
606818
6077FC
7FE038
606070
6060E0
6061C0
7FE380
666300
060600
066602
FFFC02
060C02
060C03
060FFF
0607FE
060000
ENDCHAR
STARTCHAR uni4E80
ENCODING 20096
BBX 24 24 0 -3
BITMAP
010000
018600
03FF00
030600
060860
0FFFF0
1E1860
361860
C7FFE0
061860
061860
07FFE0
101818
1FFFFC
181818
181818
1FFFF8
181818
181818
1FFFFA
18181A
181803
001FFF
000FFE
ENDCHAR
STARTCHAR uni4E82
ENCODING 20098
BBX 24 24 0 -3
BITMAP
0071C0
03FD80
FF9180
443980
333180
224180
7FF980
086180
06C180
431980
7FFD80
661980
649980
7FD980
6CD980
601980
6FD980
659982
631982
66D982
78D982
601983
60F9FF
6030FE
ENDCHAR
STARTCHAR uni4E85
ENCODING 20101
BBX 7 24 7 -3
BITMAP
0E
0C
0C
0C
0C
0C
0C
0C
0C
0C
0C
0C
0C
0C
0C
0C
0C
0C
0C
0C
0C
0C
FC
38
ENDCHAR
STARTCHAR uni4E86
ENCODING 20102
BBX 22 23 1 -3
BITMAP
000018
FFFFFC
000070
0000C0
002300
002C00
003000
003000
003000
003000
003000
003000
003000
003000
003000
003000
003000
003000
003000
003000
003000
01F000
006000
ENDCHAR
STARTCHAR uni4E88
ENCODING 20104
BBX 24 24 0 -3
BITMAP
000030
1FFFF8
0080C0
004180
002200
003400
001800
001006
FFFFFF
00180C
001810
001820
001840
001800
001800
001800
001800
001800
001800
001800
001800
001800
00F800
003000
ENDCHAR
STARTCHAR uni4E89
ENCODING 20105
BBX 24 24 0 -3
BITMAP
008000
00E000
01C300
01FF80
030300
060400
080830
1FFFF8
201830
C01830
001836
FFFFFF
001830
001830
001830
1FFFF0
001830
001830
001800
001800
001800
001800
00F800
003000
ENDCHAR
STARTCHAR uni4E8A
ENCODING 20106
BBX 24 24 0 -3
BITMAP
001C00
001800
00180C
7FFFFE
041880
0318E0
0198C0
011930
0FFFF8
001830
001830
001836
FFFFFF
001830
001830
001830
0FFFF0
001830
001800
001800
001800
001800
00F800
003000
ENDCHAR
STARTCHAR uni4E8B
ENCODING 20107
BBX 24 24 0 -3
BITMAP
001C00
001806
FFFFFF
001800
041860
07FFF0
061860
061860
07FFE0
061860
001818
1FFFFC
001818
00181A
FFFFFF
001818
001818
1FFFF8
001818
001800
001800
001800
00F800
003000
ENDCHAR
STARTCHAR uni4E8C
ENCODING 20108
BBX 24 19 0 0
BITMAP
000030
1FFFF8
000000
000000
000000
000000
000000
000000
000000
000000
000000
000000
000000
000000
000000
000000
000000
000006
FFFFFF
ENDCHAR
STARTCHAR uni4E8E
ENCODING 20110
BBX 24 23 0 -3
BITMAP
000018
3FFFFC
001800
001800
001800
001800
001806
FFFFFF
001800
001800
001800
001800
001800
001800
001800
001800
001800
001800
001800
001800
001800
01F800
007000
ENDCHAR
STARTCHAR uni4E91
ENCODING 20113
BBX 24 22 0 -2
BITMAP
000030
1FFFF8
000000
000000
000000
000000
000006
FFFFFF
003800
003000
003000
006000
006000
004100
00C0C0
008060
010038
0101FC
02FE0E
FFE006
7C0006
400000
ENDCHAR
STARTCHAR uni4E92
ENCODING 20114
BBX 24 22 0 -2
BITMAP
00000C
7FFFFE
00C000
00C000
00C000
00C000
00C0C0
01FFE0
0180C0
0180C0
0180C0
030180
030180
030180
07FF80
060180
000180
000300
000300
000300
000306
FFFFFF
ENDCHAR
STARTCHAR uni4E94
ENCODING 20116
BBX 24 22 0 -2
BITMAP
00000C
7FFFFE
006000
006000
006000
006000
006000
006000
00C0C0
3FFFE0
00C0C0
00C0C0
00C0C0
00C0C0
00C0C0
00C0C0
0180C0
0180C0
0180C0
0180C0
0180C6
FFFFFF
ENDCHAR
STARTCHAR uni4E95
ENCODING 20117
BBX 24 24 0 -3
BITMAP
01C380
018300
018300
018300
018300
01830C
7FFFFE
018300
018300
018300
018300
018300
018306
FFFFFF
018300
018300
018300
030300
030300
020300
060300
040300
080300
300300
ENDCHAR
STARTCHAR uni4E98
ENCODING 20120
BBX 24 22 0 -2
BITMAP
00000C
7FFFFE
000000
000000
0200C0
03FFE0
0300C0
0300C0
0300C0
0300C0
0300C0
03FFC0
0300C0
0300C0
0300C0
0300C0
0300C0
03FFC0
0300C0
000000
000006
FFFFFF
ENDCHAR
STARTCHAR uni4E99
ENCODING 20121
BBX 24 22 0 -2
BITMAP
00000C
7FFFFE
00C000
00C000
00C0C0
00FFE0
00C0C0
0180C0
01A180
019980
030D80
030D80
038300
066300
063300
0C3600
0C0600
000600
000600
000C00
000C06
FFFFFF
ENDCHAR
STARTCHAR uni4E9B
ENCODING 20123
BBX 24 23 0 -2
BITMAP
038E00
030C00
3B0C10
332C1C
33FC38
330CE0
330F00
330C00
330C02
333C02
33CC03
3F0FFF
FC07FE
700000
400000
000000
000030
1FFFF8
000000
000000
000000
000006
FFFFFF
ENDCHAR
STARTCHAR uni4E9C
ENCODING 20124
BBX 24 23 0 -2
BITMAP
00000C
7FFFFE
00C300
00C300
00C300
00C300
10C318
1FFFFC
18C318
18C318
18C318
18C318
18C318
1FFFF8
18C318
18C318
00C300
00C300
00C300
00C300
00C300
00C306
FFFFFF
ENDCHAR
STARTCHAR uni4E9E
ENCODING 20126
BBX 24 22 0 -2
BITMAP
00000C
7FFFFE
00C300
00C300
00C300
00C300
10C318
1FC3FC
18C318
180018
180018
180018
18C218
1FE3F8
18C318
18C318
00C300
00C300
00C300
00C300
00C306
FFFFFF
ENDCHAR
STARTCHAR uni4E9F
ENCODING 20127
BBX 24 22 0 -2
BITMAP
000018
3FFFFC
00C000
00C000
018000
019800
03FC00
031800
001818
431FFC
7F9918
6318B0
6318B0
631860
631860
7F30D0
63319F
60F30E
00EC06
00C000
000006
FFFFFF
ENDCHAR
STARTCHAR uni4EA0
ENCODING 20128
BBX 24 8 0 6
BITMAP
001C00
001800
001800
001800
001800
001800
001806
FFFFFF
ENDCHAR
STARTCHAR uni4EA1
ENCODING 20129
BBX 24 23 0 -2
BITMAP
001C00
001800
001800
001800
001800
001806
FFFFFF
030000
030000
030000
030000
030000
030000
030000
030000
030000
030000
030000
030000
030000
030000
03FFF8
01FFF8
ENDCHAR
STARTCHAR uni4EA2
ENCODING 20130
BBX 24 24 0 -3
BITMAP
001C00
001800
001800
001806
FFFFFF
000000
000000
010600
01FF00
018600
018600
018600
018600
018600
018600
030600
030600
030600
060602
060602
0C0602
180603
3007FF
C003FE
ENDCHAR
STARTCHAR uni4EA4
ENCODING 20132
BBX 24 24 0 -3
BITMAP
001C00
001800
001800
001806
FFFFFF
000000
010200
01C180
038060
030238
06839C
18830C
604600
004600
002C00
002C00
001800
003C00
006600
00C380
0381E0
06007F
18001E
E00002
ENDCHAR
STARTCHAR uni4EA5
ENCODING 20133
BBX 24 24 0 -3
BITMAP
001C00
001800
001806
FFFFFF
002000
003800
003200
006380
044300
038600
018640
00CC70
00D860
0030C0
0060C0
00C180
018300
060600
380D00
0038C0
006060
018030
060038
380018
ENDCHAR
STARTCHAR uni4EA6
ENCODING 20134
BBX 24 24 0 -3
BITMAP
001C00
001800
001800
001800
001806
FFFFFF
00C300
00C300
08C340
0EC320
0CC310
0CC318
08C30C
18C30C
10C306
318306
218306
418300
830300
030300
060300
0C0300
181F00
600600
ENDCHAR
STARTCHAR uni4EA8
ENCODING 20136
BBX 24 24 0 -3
BITMAP
001C00
001800
001806
FFFFFF
000000
0200C0
03FFE0
0300C0
0300C0
03FFC0
0300C0
00000C
7FFFFE
000038
0011E0
001600
001800
001800
001800
001800
001800
001800
00F800
003000
ENDCHAR
STARTCHAR uni4EAB
ENCODING 20139
BBX 24 24 0 -3
BITMAP
001C00
001800
001806
FFFFFF
000000
0200C0
03FFE0
0300C0
0300C0
03FFC0
0300C0
000018
1FFFFC
0000F0
001380
001C06
FFFFFF
001800
001800
001800
001800
001800
00F800
003000
ENDCHAR
STARTCHAR uni4EAC
ENCODING 20140
BBX 24 24 0 -3
BITMAP
001C00
001800
001800
001806
FFFFFF
000000
040060
07FFF0
060060
060060
060060
060060
07FFE0
061860
001800
041880
071840
0E1830
0C1818
18180C
30180E
C01806
00F800
003000
ENDCHAR
STARTCHAR uni4EAD
ENCODING 20141
BBX 24 24 0 -3
BITMAP
001C00
001800
00180C
7FFFFE
000000
010180
01FFC0
018180
018180
01FF80
218180
200006
3FFFFF
600006
E00034
DFFFF8
001800
001800
001800
001800
001800
001800
00F800
003000
ENDCHAR
STARTCHAR uni4EAE
ENCODING 20142
BBX 24 24 0 -3
BITMAP
001C00
001800
001806
FFFFFF
000000
010180
01FFC0
018180
018180
11FF80
100006
1FFFFF
30000C
608008
60E710
00C600
00C600
018600
018602
030602
060602
0C0603
3007FF
C003FE
ENDCHAR
STARTCHAR uni4EB0
ENCODING 20144
BBX 24 24 0 -3
BITMAP
001C00
001800
001806
FFFFFF
000000
0200C0
03FFE0
0300C0
0300C0
0300C0
03FFC0
0300C0
0300C0
0300C0
03FFC0
0318C0
021800
079980
061860
0C1838
18181C
30180E
C0F806
003000
ENDCHAR
STARTCHAR uni4EB3
ENCODING 20147
BBX 24 24 0 -3
BITMAP
001C00
00180C
7FFFFE
000000
010180
01FFC0
018180
018180
21FF80
200006
3FFFFF
60020C
E00F10
C07F80
0FF000
003000
003018
7FFFFC
003002
003002
003002
003003
003FFF
001FFE
ENDCHAR
STARTCHAR uni4EB6
ENCODING 20150
BBX 24 23 0 -2
BITMAP
001C00
00180C
7FFFFE
000000
07FFF0
060060
067E60
066660
066660
067E60
060060
07FFE0
060060
01FF80
018180
018180
01FF80
018180
018180
01FF80
018180
000006
FFFFFF
ENDCHAR
STARTCHAR uni4EBA
ENCODING 20154
BBX 24 24 0 -3
BITMAP
001C00
001800
001800
001800
001800
001800
001800
001800
003400
003400
003400
003400
006200
006200
004100
00C100
008180
0180C0
010060
020070
040038
08001F
30000E
C00006
ENDCHAR
STARTCHAR uni4EC0
ENCODING 20160
BBX 24 24 0 -3
BITMAP
020380
038300
030300
030300
070300
060300
060300
0C0306
0DFFFF
1C0300
1C0300
2C0300
4C0300
8C0300
0C0300
0C0300
0C0300
0C0300
0C0300
0C0300
0C0300
0C0300
0C0300
0C0300
ENDCHAR
STARTCHAR uni4EC1
ENCODING 20161
BBX 24 24 0 -3
BITMAP
020000
038000
030000
070018
067FFC
060000
0C0000
0C0000
1C0000
1C0000
2C0000
4C0000
8C0000
0C0000
0C0000
0C0000
0C0000
0C0000
0C0000
0C0006
0DFFFF
0C0000
0C0000
0C0000
ENDCHAR
STARTCHAR uni4EC2
ENCODING 20162
BBX 23 24 0 -3
BITMAP
020E00
038C00
030C00
030C00
070C00
060C0C
07FFFE
0C0C0C
0C0C0C
1C0C0C
1C0C0C
2C0C0C
4C0C0C
8C0C0C
0C180C
0C180C
0C180C
0C1818
0C3018
0C3018
0C6030
0C43F0
0C80E0
0F00C0
ENDCHAR
STARTCHAR uni4EC4
ENCODING 20164
BBX 24 23 0 -3
BITMAP
08000C
0FFFFE
0C0000
0C0000
0C0E00
0C0C00
0C0C00
0C0C00
0C0C00
0C0C00
0C0C00
0C0C00
0C1A00
0C1A00
0C1900
181900
183080
1030C0
306060
20C038
41801F
83000E
0C0006
ENDCHAR
STARTCHAR uni4EC6
ENCODING 20166
BBX 23 24 0 -3
BITMAP
010E00
01CC00
018C00
018C00
030C00
030C00
030C00
060C00
060F80
0E0CF0
0E0C3C
160C0E
260C06
460C00
860C00
060C00
060C00
060C00
060C00
060C00
060C00
060C00
060C00
060C00
ENDCHAR
STARTCHAR uni4EC7
ENCODING 20167
BBX 24 24 0 -3
BITMAP
040E00
070C00
060C00
060C00
060C00
0E0C60
0DFFF0
0C0C60
1C0C60
1C0C60
2C0C60
2C0C60
4C0C60
8C0C60
0C1860
0C1860
0C1860
0C1860
0C3062
0C3062
0C6062
0CC063
0D807F
0E003E
ENDCHAR
STARTCHAR uni4ECA
ENCODING 20170
BBX 24 24 0 -3
BITMAP
003000
003000
006800
006800
00C400
00C200
018300
030180
0306C0
06FF60
0C0038
18001F
30018E
C7FFC4
000300
000300
000600
000600
000C00
000C00
001800
001800
003000
003000
ENDCHAR
STARTCHAR uni4ECB
ENCODING 20171
BBX 24 24 0 -3
BITMAP
003000
003000
006800
006400
00C600
00C300
018180
0300E0
07C3FF
0D831E
318306
C18300
018300
018300
018300
018300
018300
018300
030300
030300
060300
040300
180300
600300
ENDCHAR
STARTCHAR uni4ECD
ENCODING 20173
BBX 24 24 0 -3
BITMAP
020000
038060
037FF0
031860
061860
061860
061860
0C18C0
0C18C6
1C18FF
1C18C6
2C1806
4C1806
8C1806
0C1806
0C3006
0C300C
0C300C
0C200C
0C600C
0C4018
0C81F8
0D0070
0E0060
ENDCHAR
STARTCHAR uni4ECE
ENCODING 20174
BBX 24 24 0 -3
BITMAP
038380
030300
030300
030300
030300
030300
030300
030300
030300
030300
030300
030680
068680
06C680
066640
066C40
0C6C60
0C0C20
081830
181818
10301F
20600E
40C006
830002
ENDCHAR
STARTCHAR uni4ECF
ENCODING 20175
BBX 23 24 0 -3
BITMAP
010200
01C380
018300
030300
030300
030300
060300
060600
0C0600
0C0600
1C0600
1C0400
2C0C00
4C0C00
8C0840
0C0820
0C1810
0C1008
0C100C
0C23FC
0DFF06
0CF006
0C8006
0C0000
ENDCHAR
STARTCHAR uni4ED4
ENCODING 20180
BBX 24 24 0 -3
BITMAP
020000
03800C
037FFE
07001C
060030
060240
0C0280
0C0300
1C0300
1C0306
2FFFFF
4C0300
8C0300
0C0300
0C0300
0C0300
0C0300
0C0300
0C0300
0C0300
0C0300
0C0300
0C1F00
0C0600
ENDCHAR
STARTCHAR uni4ED5
ENCODING 20181
BBX 24 24 0 -3
BITMAP
020380
038300
030300
030300
070300
060300
060300
0E0300
0E0306
17FFFF
160300
260300
460300
860300
060300
060300
060300
060300
060300
060300
060300
06030C
06FFFE
060000
ENDCHAR
STARTCHAR uni4ED6
ENCODING 20182
BBX 24 24 0 -3
BITMAP
040380
070300
067300
066300
0E6318
0C633C
0C6358
1C6398
1C6718
2C6B18
2C7318
4CE318
8F6318
0C6378
0C6330
0C6300
0C6300
0C6002
0C6002
0C6002
0C6003
0C7FFF
0C3FFE
0C0000
ENDCHAR
STARTCHAR uni4ED7
ENCODING 20183
BBX 24 24 0 -3
BITMAP
040380
070300
060300
060300
060306
0FFFFF
0C0300
0C4300
1C4300
1C4300
2C2300
2C2300
4C2300
8C1300
0C1B00
0C0B00
0C0E00
0C0600
0C0700
0C0DC0
0C18FF
0C303E
0CC00E
0F0002
ENDCHAR
STARTCHAR uni4ED8
ENCODING 20184
BBX 24 24 0 -3
BITMAP
020070
038060
030060
070060
060060
060066
0DFFFF
0C0060
1C0060
1C4060
2C3060
4C1860
8C0C60
0C0C60
0C0060
0C0060
0C0060
0C0060
0C0060
0C0060
0C0060
0C0060
0C03E0
0C00C0
ENDCHAR
STARTCHAR uni4ED9
ENCODING 20185
BBX 23 24 0 -3
BITMAP
040380
070300
060300
060300
0C0300
0CE30E
0CC30C
18C30C
18C30C
38C30C
38C30C
58C30C
98C30C
18C30C
18C30C
18C30C
18C30C
18C30C
18C30C
18C30C
18C30C
18FFFC
18C00C
18C00C
ENDCHAR
STARTCHAR uni4EDD
ENCODING 20189
BBX 24 22 0 -1
BITMAP
001800
001800
003400
003400
006200
006100
00C180
00C0C0
018060
030038
06001F
0C00CE
37FFE6
C01800
001800
001800
001800
001800
001800
001800
001806
FFFFFF
ENDCHAR
STARTCHAR uni4EDE
ENCODING 20190
BBX 23 24 0 -3
BITMAP
040000
070000
06000C
07FFFE
0C0C0C
0C0C0C
0C0C0C
1D0C0C
1CCC0C
2C6C0C
2C3C0C
4C1C0C
8C0E0C
0C0F0C
0C1B8C
0C198C
0C1998
0C3018
0C3018
0C2038
0C6030
0C43F0
0C80E0
0F00C0
ENDCHAR
STARTCHAR uni4EDF
ENCODING 20191
BBX 24 24 0 -3
BITMAP
020010
038038
0300FC
0307C0
06FF00
060300
060300
0E0300
0E0300
160306
17FFFF
260300
460300
860300
060300
060300
060300
060300
060300
060300
060300
060300
060300
060300
ENDCHAR
STARTCHAR uni4EE3
ENCODING 20195
BBX 24 24 0 -3
BITMAP
020700
038640
030630
030618
060618
060606
07FFFF
0C0600
0C0600
1C0600
1C0300
2C0300
4C0300
8C0300
0C0180
0C0180
0C00C0
0C00C2
0C0062
0C0072
0C003A
0C001F
0C000F
0C0006
ENDCHAR
STARTCHAR uni4EE4
ENCODING 20196
BBX 24 24 0 -3
BITMAP
003000
003000
006800
006400
00C200
00C300
018180
0306C0
06FF70
0C003F
18000E
300062
CFFFF0
003060
003060
003060
003060
003060
003060
0033E0
0030C0
003000
003000
003000
ENDCHAR
STARTCHAR uni4EE5
ENCODING 20197
BBX 24 24 0 -3
BITMAP
0E0038
0C0030
0C8030
0C4030
0C2030
0C3030
0C1830
0C1830
0C0030
0C0030
0C0030
0C0030
0C0030
0C0030
0C0830
0C1030
0C6030
0D8060
0F0070
FC00C8
700186
400607
001803
00E003
ENDCHAR
STARTCHAR uni4EED
ENCODING 20205
BBX 24 24 0 -3
BITMAP
040000
070000
06000C
07FFFE
0E0C0C
0C8C0C
0C8C0C
1C8C0C
1C4C0C
2C4C0C
2C2C0C
4C3C0C
8C180C
0C1C0C
0C1E18
0C1B98
0C19F8
0C307F
0C301E
0C203A
0C6030
0C43F0
0C81E0
0F00C0
ENDCHAR
STARTCHAR uni4EEE
ENCODING 20206
BBX 24 24 0 -3
BITMAP
020000
03C00C
037FFE
076000
066000
066000
0C6030
0C7FF8
1C6830
1C6830
2C6860
2C6460
4C6460
8C64C0
0C62C0
0C6380
0C4180
0CC380
0CC340
0C8660
0D8C38
0D181F
0E300E
0CC006
ENDCHAR
STARTCHAR uni4EF0
ENCODING 20208
BBX 24 24 0 -3
BITMAP
040400
070700
060E00
065906
0C61FF
0C6186
0C6186
1C6186
1C6186
2C6186
2C6186
4C6186
8C6186
0C6186
0C6186
0C6586
0C7986
0FE1BE
0DC18C
0D0180
0C0180
0C0180
0C0180
0C0180
ENDCHAR
STARTCHAR uni4EF2
ENCODING 20210
BBX 24 24 0 -3
BITMAP
040380
070300
060300
060300
0E0300
0C8306
0CFFFF
1CC306
1CC306
2CC306
2CC306
4CC306
8CC306
0CFFFE
0CC306
0CC306
0C0300
0C0300
0C0300
0C0300
0C0300
0C0300
0C0300
0C0300
ENDCHAR
STARTCHAR uni4EF6
ENCODING 20214
BBX 24 24 0 -3
BITMAP
040380
070300
064300
067300
0E6300
0C6318
0C7FFC
1CC300
1CC300
2C8300
2D0300
4C0306
8FFFFF
0C0300
0C0300
0C0300
0C0300
0C0300
0C0300
0C0300
0C0300
0C0300
0C0300
0C0300
ENDCHAR
STARTCHAR uni4EF7
ENCODING 20215
BBX 24 24 0 -3
BITMAP
040600
070600
060D00
060D00
0E0C80
0C18C0
0C1870
1C303F
1C601E
2CDCE6
2F18C0
4C18C0
8C18C0
0C18C0
0C18C0
0C18C0
0C18C0
0C30C0
0C30C0
0C20C0
0C60C0
0C40C0
0C80C0
0F00C0
ENDCHAR
STARTCHAR uni4EFB
ENCODING 20219
BBX 24 24 0 -3
BITMAP
020000
038038
0300FC
0307C0
06FB00
060300
0C0300
0C0300
1C0300
1C0300
2C0306
4FFFFF
8C0300
0C0300
0C0300
0C0300
0C0300
0C0300
0C0300
0C0300
0C0300
0C030C
0DFFFE
0C0000
ENDCHAR
STARTCHAR uni4F01
ENCODING 20225
BBX 24 23 0 -2
BITMAP
001800
003800
003400
006200
006300
00C180
0180C0
030060
061C38
0C181F
18180E
301802
C71800
061830
061FF8
061800
061800
061800
061800
061800
061800
061806
FFFFFF
ENDCHAR
STARTCHAR uni4F09
ENCODING 20233
BBX 24 24 0 -3
BITMAP
040700
070600
060600
060606
0FFFFF
0C0000
0C0000
1C20C0
1C3FE0
2C30C0
2C30C0
4C30C0
8C30C0
0C30C0
0C30C0
0C30C0
0C30C0
0C30C2
0C30C2
0C60C2
0C60C2
0CC0C3
0C80FF
0F007E
ENDCHAR
STARTCHAR uni4F0A
ENCODING 20234
BBX 24 24 0 -3
BITMAP
020000
03800C
037FFE
07030C
06030C
06030C
0C030C
0DFFFF
1C030C
1C030C
2C030C
4C030C
8C030C
0CFFFC
0C030C
0C030C
0C0600
0C0600
0C0600
0C0C00
0C0C00
0C1800
0C3000
0CC000
ENDCHAR
STARTCHAR uni4F0D
ENCODING 20237
BBX 24 24 0 -3
BITMAP
020000
03000C
03FFFE
060600
060600
060600
0C0600
0C0600
1C0600
1C0C30
2DFFF8
4C0C30
8C0C30
0C0C30
0C0C30
0C0C30
0C0C30
0C1830
0C1830
0C1830
0C1830
0C1836
0FFFFF
0C0000
ENDCHAR
STARTCHAR uni4F0E
ENCODING 20238
BBX 24 24 0 -3
BITMAP
020380
038300
030300
070306
06FFFF
060300
0C0300
0C0300
1C0330
1CFFF8
2C1030
4C1060
8C0860
0C08C0
0C04C0
0C0580
0C0380
0C0300
0C0680
0C0CC0
0C1870
0C303F
0CC00E
0F0006
ENDCHAR
STARTCHAR uni4F0F
ENCODING 20239
BBX 24 24 0 -3
BITMAP
040700
070640
060630
060618
0E0618
0C0600
0C0606
1FFFFF
1C0600
2C0D00
2C0D00
4C0D00
8C0C80
0C1880
0C18C0
0C1840
0C1060
0C3020
0C2030
0C6018
0C401C
0C800F
0D0006
0E0002
ENDCHAR
STARTCHAR uni4F10
ENCODING 20240
BBX 24 24 0 -3
BITMAP
040E00
070C40
060C30
060C18
0E0C18
0C0C06
0FFFFF
1C0600
1C0610
2C061C
2C0618
4C0338
8C0330
0C0360
0C01E0
0C01C0
0C01C0
0C0362
0C0662
0C0C32
0C303A
0CC01F
0C000F
0C0006
ENDCHAR
STARTCHAR uni4F11
ENCODING 20241
BBX 24 24 0 -3
BITMAP
040380
070300
060300
060300
060306
0DFFFF
0C0780
0C0780
1C0F40
1C0F40
2C0B40
2C1B20
4C1B20
8C3330
0C2318
0C6318
0C430C
0C830F
0D0306
0E0302
0C0300
0C0300
0C0300
0C0300
ENDCHAR
STARTCHAR uni4F1A
ENCODING 20250
BBX 24 24 0 -3
BITMAP
001800
003800
003400
007200
006300
00C180
0180C0
030070
0601BF
0DFFDE
300006
C00000
000018
3FFFFC
007000
006000
006000
00C100
00C0C0
008060
010FF0
3FF818
1F001C
10000C
ENDCHAR
STARTCHAR uni4F1C
ENCODING 20252
BBX 24 24 0 -3
BITMAP
041C00
071800
061800
0618C0
0FFFE0
0C18C0
0C18C0
1C18C2
1C30C2
2C30C3
2C60FF
4CC07E
8F0700
0C0600
0C0606
0FFFFF
0C0600
0C0600
0C0600
0C0600
0C0600
0C0600
0C0600
0C0600
ENDCHAR
STARTCHAR uni4F1D
ENCODING 20253
BBX 24 24 0 -3
BITMAP
040000
070000
06000C
06FFFE
0C0000
0C0000
0C0000
1C0000
1C0006
2DFFFF
2C0700
4C0600
8C0600
0C0600
0C0C00
0C0C00
0C0840
0C0820
0C1010
0C1008
0C21FC
0DFF0C
0CF006
0C8006
ENDCHAR
STARTCHAR uni4F2F
ENCODING 20271
BBX 23 24 0 -3
BITMAP
020200
038380
030300
030200
06240C
063FFE
06300C
0C300C
0C300C
1C300C
1C300C
2C300C
4C3FFC
8C300C
0C300C
0C300C
0C300C
0C300C
0C300C
0C300C
0C300C
0C3FFC
0C300C
0C300C
ENDCHAR
STARTCHAR uni4F30
ENCODING 20272
BBX 24 24 0 -3
BITMAP
040700
070600
060600
060600
0E0600
0C0606
0FFFFF
1C0600
1C0600
2C0600
2C0600
4C0600
8C0600
0C4630
0C7FF8
0C6030
0C6030
0C6030
0C6030
0C6030
0C6030
0C6030
0C7FF0
0C6030
ENDCHAR
STARTCHAR uni4F34
ENCODING 20276
BBX 24 24 0 -3
BITMAP
040380
070310
06431C
063318
0E1B30
0C1B20
0C0340
1C030C
1CFFFE
2C0300
2C0300
4C0300
8C0306
0DFFFF
0C0300
0C0300
0C0300
0C0300
0C0300
0C0300
0C0300
0C0300
0C0300
0C0300
ENDCHAR
STARTCHAR uni4F36
ENCODING 20278
BBX 24 24 0 -3
BITMAP
040600
070600
060D00
060D00
0E1880
0C1840
0C3060
1C20B8
1C5FDF
2C800E
2D0006
4E0018
8DFFFC
0C0618
0C0618
0C0618
0C0618
0C0618
0C0618
0C06F8
0C0630
0C0600
0C0600
0C0600
ENDCHAR
STARTCHAR uni4F38
ENCODING 20280
BBX 24 24 0 -3
BITMAP
040380
070300
060300
060300
0E8306
0CFFFF
0CC306
1CC306
1CC306
2CFFFE
2CC306
4CC306
8CC306
0CC306
0CFFFE
0CC306
0CC306
0C0300
0C0300
0C0300
0C0300
0C0300
0C0300
0C0300
ENDCHAR
STARTCHAR uni4F3A
ENCODING 20282
BBX 23 24 0 -3
BITMAP
020000
03800C
037FFE
07000C
06000C
06018C
0CFFCC
0C000C
1C000C
1C430C
2C7F8C
4C630C
8C630C
0C630C
0C630C
0C630C
0C7F0C
0C630C
0C600C
0C000C
0C000C
0C000C
0C007C
0C0018
ENDCHAR
STARTCHAR uni4F3C
ENCODING 20284
BBX 24 24 0 -3
BITMAP
04701C
076018
066018
066818
0E6418
0C6218
0C6318
1C6198
1C6198
2C6018
2C6018
4C6018
8C6030
0C6030
0C6130
0C6630
0C7860
0C7070
0FE0C8
0D818C
0D0306
0C0607
0C1803
0C6003
ENDCHAR
STARTCHAR uni4F3D
ENCODING 20285
BBX 24 24 0 -3
BITMAP
087000
0E6000
0C6000
0C6000
0C6686
1FFFFF
1866C6
1866C6
1866C6
3866C6
3866C6
5866C6
5866C6
9866C6
1846C6
18C6C6
18C6C6
18CCC6
188CC6
198CFE
191CC6
1978C6
1A3800
1C3000
ENDCHAR
STARTCHAR uni4F43
ENCODING 20291
BBX 23 24 0 -3
BITMAP
040000
07800C
06FFFE
06C30C
0CC30C
0CC30C
0CC30C
18C30C
18C30C
38C30C
38FFFC
58C30C
98C30C
18C30C
18C30C
18C30C
18C30C
18C30C
18C30C
18C30C
18FFFC
18C00C
18C00C
180000
ENDCHAR
STARTCHAR uni4F46
ENCODING 20294
BBX 24 24 0 -3
BITMAP
040000
072018
063FFC
063018
0E3018
0C3018
0C3018
1C3018
1C3018
2C3FF8
2C3018
4C3018
8C3018
0C3018
0C3018
0C3018
0C3018
0C3FF8
0C3018
0C3018
0C0000
0C0006
0DFFFF
0C0000
ENDCHAR
STARTCHAR uni4F47
ENCODING 20295
BBX 24 24 0 -3
BITMAP
040380
070300
064300
064306
0E7FFF
0CC006
0D8004
1D8008
1C0006
3DFFFF
2C0300
4C0300
8C0300
0C0300
0C0300
0C0300
0C0300
0C0300
0C0300
0C0300
0C0300
0C0300
0C1F00
0C0600
ENDCHAR
STARTCHAR uni4F4D
ENCODING 20301
BBX 24 24 0 -3
BITMAP
020380
038300
030300
070300
06030C
07FFFE
0C0000
0C0020
1C4038
1C2030
2C2030
4C3030
8C1030
0C1060
0C1860
0C1860
0C1840
0C1840
0C18C0
0C1880
0C0080
0C0106
0FFFFF
0C0000
ENDCHAR
STARTCHAR uni4F4E
ENCODING 20302
BBX 24 24 0 -3
BITMAP
040030
0700F8
0643C0
067F00
0C6300
0C6300
0C6300
1C6300
1C6306
2C7FFF
2C6180
4C6180
8C6180
0C6180
0C60C0
0C60C0
0C62C2
0C6C62
0FF062
0DC032
0D003A
0C019F
0DFFCF
0C0006
ENDCHAR
STARTCHAR uni4F4F
ENCODING 20303
BBX 24 24 0 -3
BITMAP
040800
070600
060380
060180
0E000C
0DFFFE
0C0300
1C0300
1C0300
2C0300
2C0300
4C0318
8CFFFC
0C0300
0C0300
0C0300
0C0300
0C0300
0C0300
0C0300
0C0300
0C0306
0FFFFF
0C0000
ENDCHAR
STARTCHAR uni4F50
ENCODING 20304
BBX 24 24 0 -3
BITMAP
040E00
070C00
060C00
060C00
0C0C00
0C0C06
0FFFFF
1C1800
1C1800
2C3000
2C3000
4C3000
8C600C
0C7FFE
0CC300
0C8300
0D0300
0E0300
0C0300
0C0300
0C0300
0C0306
0DFFFF
0C0000
ENDCHAR
STARTCHAR uni4F51
ENCODING 20305
BBX 24 24 0 -3
BITMAP
020400
038700
030600
030600
060606
07FFFF
060C00
0C0C00
0C0C00
1C1800
1C1800
2C3018
4C3FFC
8C5818
0C9818
0D1818
0E1818
0C1818
0C1818
0C1818
0C1818
0C1FF8
0C1818
0C1818
ENDCHAR
STARTCHAR uni4F53
ENCODING 20307
BBX 24 24 0 -3
BITMAP
040700
070600
060600
060600
0E0600
0C0606
0FFFFF
1C1F00
1C1E80
2C1680
2C3640
4C3640
8C2620
0C6620
0C4630
0CC698
0CBFDC
0D060F
0E0606
0C0602
0C0600
0C0600
0C0600
0C0600
ENDCHAR
STARTCHAR uni4F55
ENCODING 20309
BBX 24 24 0 -3
BITMAP
040000
070006
06FFFF
060018
0C0018
0C0018
0C4318
1C7F98
1C6318
2C6318
2C6318
4C6318
8C6318
0C6318
0C7F18
0C6318
0C6018
0C0018
0C0018
0C0018
0C0018
0C0018
0C01F8
0C0070
ENDCHAR
STARTCHAR uni4F57
ENCODING 20311
BBX 23 24 0 -3
BITMAP
040700
070600
068600
06860C
0EFFFE
0D800C
0D8010
1DB820
1C3000
3C3010
2C3038
4C3070
8C30E0
0C3380
0C3C00
0C3000
0C3000
0C3000
0C3008
0C3008
0C3008
0C300C
0C3FFC
0C1FF8
ENDCHAR
STARTCHAR uni4F59
ENCODING 20313
BBX 24 24 0 -3
BITMAP
001800
003800
003400
006200
006100
00C180
0180C0
030170
07FFBF
0C180E
301802
C01800
00180C
7FFFFE
001800
041800
071880
061860
061830
0C1818
08181C
10180C
20F800
003000
ENDCHAR
STARTCHAR uni4F5A
ENCODING 20314
BBX 24 24 0 -3
BITMAP
042380
073B00
063300
063300
0E6318
0C7FFC
0C4300
1CC300
1C8300
2D0300
2C0306
4FFFFF
8C0300
0C0680
0C0680
0C0640
0C0C40
0C0C20
0C1830
0C1818
0C301F
0C600E
0CC006
0F0002
ENDCHAR
STARTCHAR uni4F5B
ENCODING 20315
BBX 24 24 0 -3
BITMAP
081DC0
0E1980
0C1980
0C198C
0FFFFE
0C198C
18198C
19198C
19FFFC
39998C
399980
599986
99FFFF
1B1986
1B1986
181986
183186
18318C
18318C
1821BC
186198
184180
188180
1B0180
ENDCHAR
STARTCHAR uni4F5C
ENCODING 20316
BBX 24 24 0 -3
BITMAP
020400
038700
030600
030C00
060C06
061FFF
061B00
0C3300
0C2300
1C430C
1C83FE
2D0300
4E0300
8C0300
0C0306
0C03FF
0C0300
0C0300
0C0300
0C0300
0C0300
0C0300
0C0300
0C0300
ENDCHAR
STARTCHAR uni4F5D
ENCODING 20317
BBX 24 24 0 -3
BITMAP
042000
073800
063000
063000
0E6006
0C7FFF
0C6006
1CC006
1CC186
2D7FC6
2C6186
4C6186
8C6186
0C6186
0C6186
0C7F8C
0C618C
0C600C
0C000C
0C0018
0C0018
0C01F8
0C0070
0C0060
ENDCHAR
STARTCHAR uni4F5E
ENCODING 20318
BBX 24 24 0 -3
BITMAP
040000
070018
067FFC
060000
0E0000
0C0006
0DFFFF
1C0000
1C0E00
3C0C00
2C0C06
4FFFFF
8C1860
0C1860
0C3060
0C30C0
0C60C0
0CDCC0
0CC380
0C03C0
0C0660
0C0C38
0C301C
0DC00C
ENDCHAR
STARTCHAR uni4F69
ENCODING 20329
BBX 24 24 0 -3
BITMAP
090018
0FFFFC
0D8018
0D8018
1D80D8
19FFF8
198618
198618
39A6D8
39BFF8
59B6D8
99B6D8
19B6D8
19B6D8
19B6D8
19B6D8
19B6DA
19B7DA
19B6CE
19B6CC
19060E
1B0607
1A0607
1C0603
ENDCHAR
STARTCHAR uni4F6F
ENCODING 20335
BBX 24 24 0 -3
BITMAP
042020
071038
061C70
060C60
0E088C
0DFFFE
0C0600
1C0600
1C0600
2C0618
2CFFFC
4C0600
8C0600
0C0600
0C0606
0FFFFF
0C0600
0C0600
0C0600
0C0600
0C0600
0C0600
0C0600
0C0600
ENDCHAR
STARTCHAR uni4F70
ENCODING 20336
BBX 24 24 0 -3
BITMAP
040000
070006
06FFFF
060600
0E0600
0C0C00
0C4818
1C7FFC
1C6018
2C6018
2C6018
4C6018
8C6018
0C7FF8
0C6018
0C6018
0C6018
0C6018
0C6018
0C6018
0C6018
0C7FF8
0C6018
0C6018
ENDCHAR
STARTCHAR uni4F73
ENCODING 20339
BBX 24 24 0 -3
BITMAP
040700
070600
060600
060618
06FFFC
0C0600
0C0600
0C0600
1C060C
1DFFFE
2C0000
2C0700
4C0600
8C0600
0C060C
0DFFFE
0C0600
0C0600
0C0600
0C0600
0C0600
0C0606
0FFFFF
0C0000
ENDCHAR
STARTCHAR uni4F75
ENCODING 20341
BBX 24 24 0 -3
BITMAP
042020
071838
060C70
060C40
0E009C
0CFFFE
0C1860
1C1860
1C1860
2C1860
2C1866
4DFFFF
8C1860
0C1860
0C1860
0C1860
0C1860
0C1860
0C3060
0C3060
0C3060
0C6060
0CC060
0F0060
ENDCHAR
STARTCHAR uni4F76
ENCODING 20342
BBX 24 24 0 -3
BITMAP
040700
070600
060600
060606
0FFFFF
0C0600
0C0600
1C0600
1C0600
2C060C
2CFFFE
4C0000
8C0000
0C0000
0C4030
0C7FF8
0C6030
0C6030
0C6030
0C6030
0C6030
0C6030
0C7FF0
0C6030
ENDCHAR
STARTCHAR uni4F7B
ENCODING 20347
BBX 24 24 0 -3
BITMAP
043B80
073300
063300
0E3310
0C331C
0E3338
193330
19B360
39B380
39B300
583300
987380
18B360
19B330
1F3318
1B331C
1A330C
183300
183302
186302
186302
18C303
1983FF
1E01FE
ENDCHAR
STARTCHAR uni4F7C
ENCODING 20348
BBX 24 24 0 -3
BITMAP
040380
070300
060300
060306
0DFFFF
0C0000
0C2040
1C3830
1C301C
2C608E
2CD0E6
4F10C0
8C08C0
0C0980
0C0580
0C0700
0C0300
0C0700
0C0D80
0C18C0
0C3070
0C603F
0D800E
0E0002
ENDCHAR
STARTCHAR uni4F7F
ENCODING 20351
BBX 24 24 0 -3
BITMAP
040380
070300
060300
060306
0FFFFF
0C0300
0C0300
1C830C
1CFFFE
2CC30C
2CC30C
4CC30C
8CFFFC
0CE30C
0C1300
0C0B00
0C0B00
0C0600
0C0700
0C0D80
0C18E0
0C307F
0CC01E
0F0006
ENDCHAR
STARTCHAR uni4F83
ENCODING 20355
BBX 24 24 0 -3
BITMAP
024030
03FFF8
036030
076030
066030
066030
0C6030
0C7FF0
1C6030
1C0000
2C7770
4C6660
8C6660
0C6660
0C6660
0C6660
0C6660
0C6660
0C6662
0C4662
0CC662
0C8663
0D007F
0E003E
ENDCHAR
STARTCHAR uni4F86
ENCODING 20358
BBX 24 24 0 -3
BITMAP
001C00
001800
001800
001806
FFFFFF
041880
0718E0
0618C0
0618C0
0D98E0
0CD998
18D90C
103E06
207A06
C06B00
00D980
0198C0
031870
06183F
1C180E
E01802
001800
001800
001800
ENDCHAR
STARTCHAR uni4F88
ENCODING 20360
BBX 24 24 0 -3
BITMAP
020800
038E00
030C30
071FF8
061870
063860
0C2CC0
0C4780
1D8300
1C0600
2C0DC0
4C1986
8C63FF
0D830E
0C061C
0C0F18
0C19B0
0C60E0
0C00C0
0C0180
0C0300
0C0C00
0C3000
0DC000
ENDCHAR
STARTCHAR uni4F8B
ENCODING 20363
BBX 24 24 0 -3
BITMAP
080007
0E0306
0DFFC6
0C6076
0C6066
186066
186666
187F66
38C666
38C666
58C666
98AC66
19AC66
193866
1A1866
1C3066
182066
186006
184006
188006
190006
1A0006
1C003E
18000C
ENDCHAR
STARTCHAR uni4F8D
ENCODING 20365
BBX 24 24 0 -3
BITMAP
020380
038300
030300
070318
067FFC
060300
0C0300
0C0306
1DFFFF
1C0000
2C0070
4C0066
8DFFFF
0C0060
0C2060
0C1860
0C0C60
0C0C60
0C0060
0C0060
0C0060
0C0060
0C03E0
0C00C0
ENDCHAR
STARTCHAR uni4F8F
ENCODING 20367
BBX 24 24 0 -3
BITMAP
042380
073B00
063300
063318
0E7FFC
0C6300
0C4300
1CC300
1C8300
2D0306
2FFFFF
4C0F40
8C1B40
0C1B20
0C1B20
0C3330
0C3318
0C631F
0C430E
0C8306
0F0302
0C0300
0C0300
0C0300
ENDCHAR
STARTCHAR uni4F91
ENCODING 20369
BBX 24 24 0 -3
BITMAP
040700
070600
060600
060606
0FFFFF
0C0C00
0C0C00
1C1818
1C1FFC
2C3818
2C3818
4C7818
8C5FF8
0C9818
0D1818
0E1818
0C1FF8
0C1818
0C1818
0C1818
0C1818
0C1818
0C18F8
0C1830
ENDCHAR
STARTCHAR uni4F96
ENCODING 20374
BBX 24 24 0 -3
BITMAP
003000
003000
006800
006400
00C200
018180
0300C0
06FF70
0C003F
18000E
300036
CFFFF8
0C6630
0C6630
0C6630
0FFFF0
0C6630
0C6630
0C6630
0C6630
0C6630
0C6630
0C67F0
0C0060
ENDCHAR
STARTCHAR uni4F98
ENCODING 20376
BBX 24 24 0 -3
BITMAP
040700
070600
068600
068606
0EFFFF
0D8006
0D80C4
1D83E8
1C0F80
2CFE00
2C0600
4C0600
8C0606
0FFFFF
0C0600
0C0600
0C0600
0C0600
0C0604
0C0604
0C0604
0C0606
0C07FE
0C03FC
ENDCHAR
STARTCHAR uni4F9B
ENCODING 20379
BBX 24 24 0 -3
BITMAP
041CE0
0718C0
0618C0
0618C0
0C18C0
0C18CC
0DFFFE
1818C0
1818C0
3818C0
3818C0
5818C0
9818C6
1BFFFF
180000
181000
181C40
181820
183010
183018
18600C
18C00C
198006
1E0006
ENDCHAR
STARTCHAR uni4F9D
ENCODING 20381
BBX 24 24 0 -3
BITMAP
040700
070600
060600
060600
0C0606
0FFFFF
0C0E00
180D00
181900
381908
38310E
58308C
987098
18B0A0
1930C0
1E3040
183060
183020
1830B0
183318
183C1C
1BF00F
19C006
190002
ENDCHAR
STARTCHAR uni4FA0
ENCODING 20384
BBX 24 24 0 -3
BITMAP
040700
070600
060600
06060C
0DFFFE
0C0600
0D0610
18861C
18C618
386630
386620
580646
9FFFFF
180D00
180D00
180C80
181880
1818C0
183060
183030
186038
18C01F
19800E
1E0006
ENDCHAR
STARTCHAR uni4FA1
ENCODING 20385
BBX 24 24 0 -3
BITMAP
040000
070000
060006
07FFFF
060CC0
0C0CC0
0C0CC0
0C0CC0
1C8CCC
1CFFFE
2CCCCC
2CCCCC
4CCCCC
8CCCCC
0CCCCC
0CCCCC
0CCCCC
0CCCCC
0CCCCC
0CCCCC
0CCCCC
0CFFFC
0CC00C
0CC00C
ENDCHAR
STARTCHAR uni4FAB
ENCODING 20395
BBX 24 24 0 -3
BITMAP
040700
070600
060606
07FFFF
0E6000
0C6000
0C6000
1C6000
1C7FF8
3C3FF8
2C0800
4C0E00
8C0C06
0FFFFF
0C1860
0C1860
0C30C0
0C30C0
0C7D80
0C6380
0C0660
0C0C38
0C301C
0DC00C
ENDCHAR
STARTCHAR uni4FAD
ENCODING 20397
BBX 24 24 0 -3
BITMAP
040000
074030
067FF8
066030
0E6030
0C6030
0C6030
1C7FF0
1C60B0
2C6080
2C6040
4C6840
8C6660
0CC320
0CC330
0CC018
0C801F
0D980E
0D0606
0E0300
0C0180
0C00C0
0C00E0
0C0060
ENDCHAR
STARTCHAR uni4FAE
ENCODING 20398
BBX 24 24 0 -3
BITMAP
042000
073800
063000
06600C
0C7FFE
0CC000
0C8030
1D7FF8
1E6630
2C6630
2C6630
4C6636
8FFFFF
0CC630
0CC630
0CC630
0CC630
0CC636
0DFFFF
0D8060
0C0060
0C07E0
0C01C0
0C0180
ENDCHAR
STARTCHAR uni4FAF
ENCODING 20399
BBX 24 24 0 -3
BITMAP
040060
073FF0
060060
060060
0E0066
0DFFFF
0C2000
1C3800
1C3018
2C3FFC
2C6300
4C4300
8C8300
0D0306
0FFFFF
0C0680
0C0680
0C0C40
0C0C60
0C1830
0C3038
0C601F
0CC00E
0F0006
ENDCHAR
STARTCHAR uni4FB5
ENCODING 20405
BBX 24 24 0 -3
BITMAP
040030
073FF8
060030
060030
0E3FF0
0C0030
0C0030
1C3FF0
1C8030
2C8006
2CFFFF
4D8006
8D8034
0C7FF8
0C1030
0C0860
0C08C0
0C0580
0C0300
0C0780
0C0CE0
0C187F
0C601E
0D8006
ENDCHAR
STARTCHAR uni4FB6
ENCODING 20406
BBX 23 24 0 -3
BITMAP
022030
03BFF8
033030
033030
063030
063030
063030
0C3030
0C3FF0
1C3330
1C0200
2C0600
4C0400
8C480C
0C7FFE
0C600C
0C600C
0C600C
0C600C
0C600C
0C600C
0C7FFC
0C600C
0C600C
ENDCHAR
STARTCHAR uni4FBF
ENCODING 20415
BBX 24 24 0 -3
BITMAP
040006
07FFFF
060300
060300
0E4318
0C7FFC
0C6318
1C6318
1C6318
2C7FF8
2C6318
4C6318
8C6318
0C7FF8
0C6318
0C1300
0C0B00
0C0600
0C0600
0C0D80
0C18E0
0C307F
0CC01E
0F0006
ENDCHAR
STARTCHAR uni4FC2
ENCODING 20418
BBX 23 24 0 -3
BITMAP
020038
0383FC
037F80
070200
064380
062740
0C1470
0C18E0
1C0CC0
1C0D80
2C0260
4C0418
8DFFFC
0CFB0E
0C8306
0C2320
0C3B10
0C3318
0C330C
0C630E
0C4306
0C8306
0D0300
0C0300
ENDCHAR
STARTCHAR uni4FC3
ENCODING 20419
BBX 24 24 0 -3
BITMAP
022018
03BFFC
033018
073018
063018
063018
0C3018
0C3018
1C3FF8
1C3318
2C0300
4C4300
8C7300
0C630C
0C63FE
0C6300
0C6300
0C6300
0C7300
0C4B00
0CC700
0C8380
0D01FF
0E007E
ENDCHAR
STARTCHAR uni4FC4
ENCODING 20420
BBX 24 24 0 -3
BITMAP
080DC0
0E1FA0
0C3998
0CE18C
0F618C
186180
186186
1FFFFF
386180
386188
78618E
586D8C
98F0CC
1FE0D8
1B60D8
1A60D0
186070
186062
1860F2
1861B2
18611A
18661F
1BF80F
18C006
ENDCHAR
STARTCHAR uni4FCA
ENCODING 20426
BBX 24 24 0 -3
BITMAP
040800
070E00
060C40
060830
0E101C
0DFFFE
0CFC06
1CA1C0
1C3984
2C3186
2C69FE
4CCEFC
8F0C00
0C1860
0C1FF0
0C3860
0C68C0
0CC580
0F0700
0C0D80
0C18E0
0C307F
0CC01E
0F0006
ENDCHAR
STARTCHAR uni4FCE
ENCODING 20430
BBX 24 23 0 -2
BITMAP
0E1030
0C1FF8
0C1830
0C1830
0C1830
1A1830
199830
10DFF0
30D830
201830
4E1830
8C1830
0C1830
0C1830
0C1FF0
1A1830
199830
10D830
30D830
201830
401830
801836
07FFFF
ENDCHAR
STARTCHAR uni4FD0
ENCODING 20432
BBX 23 24 0 -3
BITMAP
08060E
0E1F0C
0C7CEC
0FF0CC
0C30CC
1C30CC
1836CC
1FFFCC
3870CC
3870CC
5878CC
58F4CC
98F6CC
18B6CC
19B6CC
1930CC
1A30CC
1C300C
18300C
18300C
18300C
18300C
18307C
183018
ENDCHAR
STARTCHAR uni4FD1
ENCODING 20433
BBX 23 24 0 -3
BITMAP
040000
070018
06FFFC
060830
0E0460
0C0680
0C430C
1C7FFE
1C630C
2C630C
2C630C
4C7FFC
8C630C
0C630C
0C630C
0C7FFC
0C630C
0C630C
0C630C
0C630C
0C630C
0C630C
0C637C
0C6018
ENDCHAR
STARTCHAR uni4FD4
ENCODING 20436
BBX 24 24 0 -3
BITMAP
044060
077FF0
066060
066060
0E6060
0C7FE0
0C6060
1C6060
1C6060
2C7FE0
2C6060
4C6060
8C6060
0C7FE0
0C2360
0C3B00
0C3300
0C3300
0C3302
0C6302
0C6302
0CC303
0D83FF
0E01FE
ENDCHAR
STARTCHAR uni4FD7
ENCODING 20439
BBX 24 24 0 -3
BITMAP
042080
073860
063030
066018
0E660C
0CC60E
0C8606
1D0D00
1E0D00
2C1880
2C18C0
4C3060
8C2038
0C401F
0CBFEE
0D3066
0E3060
0C3060
0C3060
0C3060
0C3060
0C3FE0
0C3060
0C3060
ENDCHAR
STARTCHAR uni4FD8
ENCODING 20440
BBX 24 24 0 -3
BITMAP
040030
0701F8
060FD0
06F81C
0E8438
0C4630
0C6620
1C6240
1C0098
2CFFFC
2C0030
4C0060
8C0280
0C0306
0FFFFF
0C0300
0C0300
0C0300
0C0300
0C0300
0C0300
0C0300
0C1F00
0C0600
ENDCHAR
STARTCHAR uni4FDA
ENCODING 20442
BBX 24 24 0 -3
BITMAP
040000
078018
06FFFC
06C618
0EC618
0CC618
0CC618
1CFFF8
1CC618
2CC618
2CC618
4CC618
8CFFF8
0CC618
0C0600
0C0600
0C0618
0DFFFC
0C0600
0C0600
0C0600
0C0606
0FFFFF
0C0000
ENDCHAR
STARTCHAR uni4FDB
ENCODING 20443
BBX 24 24 0 -3
BITMAP
041000
071C00
0618C0
063FE0
0E30C0
0C6180
0C4218
1CFFFC
1D6318
3E6318
2C6318
4C6318
8C7FF8
0C1198
0C1D80
0C1980
0C1980
0C1980
0C3182
0C3182
0C6182
0CC183
0D81FF
0E00FE
ENDCHAR
STARTCHAR uni4FDD
ENCODING 20445
BBX 24 24 0 -3
BITMAP
040000
074030
067FF8
066030
066030
0C6030
0C6030
0C7FF0
1C6030
1C0700
2C0600
2C0606
4FFFFF
8C1E80
0C1E80
0C3640
0C3660
0C6630
0C4638
0C861F
0D060E
0E0606
0C0600
0C0600
ENDCHAR
STARTCHAR uni4FDF
ENCODING 20447
BBX 24 24 0 -3
BITMAP
040800
070E00
060C40
061830
0E1018
0DFFFC
0CF80C
1CA00C
1C3800
3C3018
2C3FFC
4C6300
8C4300
0C8300
0D0306
0FFFFF
0C0680
0C0680
0C0C40
0C0C60
0C1838
0C301F
0C600E
0F8002
ENDCHAR
STARTCHAR uni4FE1
ENCODING 20449
BBX 24 24 0 -3
BITMAP
040030
073FF8
060000
060006
0DFFFF
0C0000
0C0000
1C0030
1C3FF8
2C0000
2C0000
4C0030
8C3FF8
0C0000
0C0000
0C2018
0C3FFC
0C3018
0C3018
0C3018
0C3018
0C3FF8
0C3018
0C3018
ENDCHAR
STARTCHAR uni4FE3
ENCODING 20451
BBX 24 24 0 -3
BITMAP
040000
072030
063FF8
063030
0E3030
0C3030
0C3030
1C3FF0
1C3030
2C0000
2C0018
4CFFFC
8C0300
0C0300
0C0306
0FFFFF
0C0680
0C0C40
0C0C40
0C1820
0C3038
0C601F
0CC00E
0F0006
ENDCHAR
STARTCHAR uni4FE4
ENCODING 20452
BBX 24 24 0 -3
BITMAP
044080
0730E0
0618C0
061918
0FFFFC
0C0618
0C0618
190618
19FFF8
398618
398600
598606
99FFFF
1B0E06
1B1E06
181E06
183606
18360E
18660C
18C67C
198618
1E0610
180600
180600
ENDCHAR
STARTCHAR uni4FE5
ENCODING 20453
BBX 24 24 0 -3
BITMAP
040700
070600
06060C
07FFFE
0E0600
0C8618
0CFFFC
1CC618
1CC618
3CC618
2CFFF8
4CC618
8CC618
0CC618
0CFFF8
0CC618
0C0600
0C0606
0FFFFF
0C0600
0C0600
0C0600
0C0600
0C0600
ENDCHAR
STARTCHAR uni4FEE
ENCODING 20462
BBX 24 24 0 -3
BITMAP
040400
070700
060606
0E0FFF
0DCC30
0D9860
199460
19A2C0
39C180
398360
59863F
99990E
19E182
198320
198674
1998E7
19818E
19831C
180C38
183060
1800C0
180300
180C00
187000
ENDCHAR
STARTCHAR uni4FEF
ENCODING 20463
BBX 24 24 0 -3
BITMAP
080380
0E0300
0D0306
0DFFFF
0D8800
198E1C
198C18
198C18
19981A
399FFF
399A18
59B918
99D998
1998D8
1998D8
199818
199818
199818
199818
191818
1B1818
1A1818
1C18F8
181830
ENDCHAR
STARTCHAR uni4FF3
ENCODING 20467
BBX 24 24 0 -3
BITMAP
041DC0
071980
061980
061980
0E198C
0DF9FE
0C1980
1C1980
1C1980
2C1998
2DF9FC
4C1980
8C1980
0C3980
0C5986
0FD9FF
0D9980
0D1980
0C3180
0C3180
0C6180
0CC180
0D8180
0E0180
ENDCHAR
STARTCHAR uni4FF5
ENCODING 20469
BBX 24 24 0 -3
BITMAP
020380
038300
03030C
07FFFE
060300
060318
0C7FFC
0C0300
1C0300
1C0306
2DFFFF
4C0D00
8C0D0C
0C188E
0C3898
0C78A0
0CD840
0F1860
0C18A0
0C1B30
0C1E18
0CF81F
0C700E
0C4006
ENDCHAR
STARTCHAR uni4FF6
ENCODING 20470
BBX 24 24 0 -3
BITMAP
043800
073000
06300C
0633FE
0E3E8C
0C308C
0C308C
18368C
1FFF98
383098
383858
593458
99F650
19B370
19B330
193320
1B3060
1A3050
1C30D0
183098
18318F
18310E
19F206
186C02
ENDCHAR
STARTCHAR uni4FF8
ENCODING 20472
BBX 24 24 0 -3
BITMAP
040700
070600
06060C
07FFFE
0C0600
0C0D18
0DFFFC
1C0D00
1C1886
2FFFFF
2C3040
4C3060
8C6730
0C461F
0C866E
0D7FF6
0E0600
0C0600
0C060C
0DFFFE
0C0600
0C0600
0C0600
0C0600
ENDCHAR
STARTCHAR uni4FFA
ENCODING 20474
BBX 24 24 0 -3
BITMAP
020700
038600
030600
060606
07FFFF
060C80
0C1840
0C1B60
1C3338
1C630F
2CFFFE
4F631A
8C6318
0C7FF8
0C6318
0C6318
0C6318
0C7FF8
0C6318
0C6302
0C0302
0C0303
0C03FF
0C01FE
ENDCHAR
STARTCHAR uni4FFE
ENCODING 20478
BBX 24 24 0 -3
BITMAP
040800
070E00
060C00
065018
0E7FFC
0C6318
0C6318
1C6318
1C7FF8
3C6318
2C6318
4C6318
8C7FF8
0C1198
0C1980
0C3186
0FFFFF
0C0180
0C0180
0C0180
0C0180
0C0180
0C0180
0C0180
ENDCHAR
STARTCHAR uni5005
ENCODING 20485
BBX 24 24 0 -3
BITMAP
040700
070600
060600
06060C
0FFFFE
0C2040
0C3870
1C3060
1C3060
3C68D8
2C4C8C
4C8D0C
8D0700
0C0606
0FFFFF
0C0600
0C0600
0C0600
0C0600
0C0600
0C0600
0C0600
0C0600
0C0600
ENDCHAR
STARTCHAR uni5006
ENCODING 20486
BBX 24 24 0 -3
BITMAP
040000
060006
07FFFF
0E0300
0C0300
0D0306
19FFFF
198306
198306
399326
39FBF6
599326
999326
19B366
19AB56
19AB56
19CF9E
198B16
198306
198306
198306
198306
19833E
19800C
ENDCHAR
STARTCHAR uni5009
ENCODING 20489
BBX 24 24 0 -3
BITMAP
001800
003800
003400
006200
006100
00C2C0
01FF60
030038
0600DF
0BFFEE
3300C2
C300C0
03FFC0
0300C0
0300C0
03FFC0
030000
068060
06FFF0
0CC060
08C060
10C060
60FFE0
00C060
ENDCHAR
STARTCHAR uni500B
ENCODING 20491
BBX 24 24 0 -3
BITMAP
048006
07FFFF
06C006
06C386
0CC306
0CC306
0CC336
18FFFE
18C306
38C306
38C306
58CB66
98CFF6
18CC66
18CC66
18CC66
18CC66
18CC66
18CFE6
18CC66
18C006
18C006
18FFFE
18C006
ENDCHAR
STARTCHAR uni500D
ENCODING 20493
BBX 24 24 0 -3
BITMAP
040380
070300
060300
06030C
0EFFFE
0C0020
0C4038
1C3030
1C1860
2C1880
2C0106
4DFFFF
8C0000
0C0000
0C2030
0C3FF8
0C3030
0C3030
0C3030
0C3030
0C3030
0C3FF0
0C3030
0C3030
ENDCHAR
STARTCHAR uni500F
ENCODING 20495
BBX 24 24 0 -3
BITMAP
040400
070700
060630
0E0FF8
0DCC30
0D9A60
19B2C0
19C180
1983E0
39867F
39981E
59E3E6
998330
198330
198306
19FFFF
198380
198680
198640
180C60
180C38
18181F
18300E
18C006
ENDCHAR
STARTCHAR uni5011
ENCODING 20497
BBX 24 24 0 -3
BITMAP
080000
0F0C86
0DFEFF
0D8CC6
0D8CC6
19FCFE
198CC6
198CC6
19FCFE
398CC6
398006
598006
998006
198006
198006
198006
198006
198006
198006
198006
198006
198006
19803E
19800C
ENDCHAR
STARTCHAR uni5012
ENCODING 20498
BBX 24 24 0 -3
BITMAP
080007
0E0306
0DFF86
0C3076
0C3066
182866
184666
1BFF66
39E366
390066
583866
983066
183666
1BFF66
183066
183066
183006
183306
183C06
1BF006
19C006
190006
18003E
18000C
ENDCHAR
STARTCHAR uni5014
ENCODING 20500
BBX 23 24 0 -3
BITMAP
040000
078018
06FFFC
06C018
0CC018
0CC018
0CFFF8
18C018
18C1C0
38DD9C
38D998
58D998
98D998
18D998
18DFF8
18D998
198180
19B98E
19318C
1B318C
1A318C
1C318C
183FFC
18300C
ENDCHAR
STARTCHAR uni5016
ENCODING 20502
BBX 24 24 0 -3
BITMAP
040380
070300
060300
06030C
0CFFFE
0C0300
0C0300
1C0306
1DFFFF
2C2020
2C1838
4C0C70
8C0C46
0DFFFF
0C0300
0C0300
0C0300
0C030C
0CFFFE
0C0300
0C0300
0C0300
0C0300
0C0300
ENDCHAR
STARTCHAR uni5019
ENCODING 20505
BBX 24 24 0 -3
BITMAP
080030
0E1FF8
0C0030
0DC030
0D8036
19FFFF
198800
198E00
398C18
398FFC
598D80
999980
199180
19A186
19FFFF
198340
198340
198620
198620
180C30
181818
18301F
18600E
198006
ENDCHAR
STARTCHAR uni501A
ENCODING 20506
BBX 24 24 0 -3
BITMAP
040700
070600
060618
07FFFC
0E0D00
0C0CC0
0C1870
1C3038
1CC018
2C0006
2FFFFF
4C0030
8C0030
0C8630
0CFF30
0CC630
0CC630
0CC630
0CFE30
0CC630
0C0030
0C0030
0C01F0
0C0060
ENDCHAR
STARTCHAR uni501F
ENCODING 20511
BBX 24 24 0 -3
BITMAP
041CE0
0718C0
0618C0
0618CC
0DFFFE
0C18C0
0C18C0
1C18C0
1C18C6
2FFFFF
2C0000
4C0000
8C2030
0C3FF8
0C3030
0C3030
0C3030
0C3FF0
0C3030
0C3030
0C3030
0C3030
0C3FF0
0C3030
ENDCHAR
STARTCHAR uni5021
ENCODING 20513
BBX 23 24 0 -3
BITMAP
020000
03A030
033FF8
073030
063030
063030
0C3FF0
0C3030
1C3030
1C3030
2C3FF0
4C3030
8C0000
0C800C
0CFFFE
0CC00C
0CC00C
0CC00C
0CFFFC
0CC00C
0CC00C
0CC00C
0CFFFC
0CC00C
ENDCHAR
STARTCHAR uni5023
ENCODING 20515
BBX 24 24 0 -3
BITMAP
08E080
0EC0E0
0CC0C0
0CC0C0
0CCCC6
1FFEFF
18C198
18C198
38CD18
38FE98
58CC98
58CCB0
98CCB0
18CCB0
18CCB0
18CC60
198C60
198CD0
198CD0
191898
1B198C
1AF90F
1C7206
186C06
ENDCHAR
STARTCHAR uni5024
ENCODING 20516
BBX 24 24 0 -3
BITMAP
0401C0
070180
060186
06FFFF
0E0180
0C0180
0C1198
181FFC
19D818
399818
399FF8
599818
999818
199818
199FF8
199818
199818
199818
199FF8
199818
198000
198006
19FFFF
198000
ENDCHAR
STARTCHAR uni5025
ENCODING 20517
BBX 24 24 0 -3
BITMAP
040700
070600
068600
068606
0CFFFF
0D9986
0D9984
1D9988
1C3180
2C3180
2C61FE
4CC0FE
8F0000
0C0000
0C0018
0CFFFC
0C0600
0C0600
0C0600
0C0600
0C0600
0C0606
0FFFFF
0C0000
ENDCHAR
STARTCHAR uni5026
ENCODING 20518
BBX 24 24 0 -3
BITMAP
048720
076638
063670
063640
0E068C
0DFFFE
0C0600
1C0D00
1C0D06
2FFFFF
2C1880
4C3040
8C6030
0CFFDF
0F00CE
0C00C2
0C20C0
0C3FC0
0C30C0
0C3008
0C3008
0C300C
0C3FFC
0C1FF8
ENDCHAR
STARTCHAR uni5028
ENCODING 20520
BBX 24 24 0 -3
BITMAP
040000
078018
06FFFC
06C018
0CC018
0CC018
0CFFF8
18C018
18C380
38C300
38C306
58FFFF
98C300
18C300
18C300
19A318
19BFFC
19B018
193018
1B3018
1A3018
1C3018
183FF8
183018
ENDCHAR
STARTCHAR uni5029
ENCODING 20521
BBX 24 24 0 -3
BITMAP
040700
07060C
06FFFE
060600
0E0618
0CFFFC
0C0600
1C0606
1FFFFF
2C0000
2C2030
4C3FF8
8C3030
0C3030
0C3FF0
0C3030
0C3030
0C3FF0
0C3030
0C3030
0C3030
0C3030
0C31F0
0C3060
ENDCHAR
STARTCHAR uni502A
ENCODING 20522
BBX 24 24 0 -3
BITMAP
040200
070700
064E18
0671FC
0E6018
0C6018
0C6418
1C7EF8
1C6018
2C6018
2C6018
4C7FF8
8C6198
0C1180
0C1D80
0C1980
0C1980
0C3180
0C3182
0C6182
0C6182
0CC183
0D81FF
0E00FE
ENDCHAR
STARTCHAR uni502B
ENCODING 20523
BBX 24 24 0 -3
BITMAP
040600
070600
060D00
060C80
0C18C0
0C1060
0C3038
1820DF
185FEE
388006
39000C
5AFFFE
9CCCCC
18CCCC
18CCCC
18FFFC
18CCCC
18CCCC
18CCCC
18CCCC
18CCCC
18CCCC
18CCFC
18C018
ENDCHAR
STARTCHAR uni502C
ENCODING 20524
BBX 24 24 0 -3
BITMAP
040700
070600
06060C
0607FE
0E0600
0C8618
0CFFFC
1CC018
1CC018
2CFFF8
2CC018
4CC018
8CFFF8
0CC618
0C0600
0C0606
0FFFFF
0C0600
0C0600
0C0600
0C0600
0C0600
0C0600
0C0600
ENDCHAR
STARTCHAR uni502D
ENCODING 20525
BBX 24 24 0 -3
BITMAP
040018
0701FC
06FF80
060300
0E0306
0DFFFF
0C0F40
1C1B20
1C3B30
2C631F
2CC30E
4F0806
8C0E00
0C0C06
0FFFFF
0C1830
0C3060
0C7060
0CEEC0
0CC180
0C0360
0C0E38
0C381C
0DC00C
ENDCHAR
STARTCHAR uni5036
ENCODING 20534
BBX 24 24 0 -3
BITMAP
040000
072018
063FFC
063018
0E3018
0C3FF8
0C3018
1C3018
1C3018
2C3FF8
2C3018
4C3018
8C3018
0C3FF8
0C3018
0C0006
0DFFFF
0C0000
0C1040
0C1C30
0C1818
0C300C
0C600E
0D8006
ENDCHAR
STARTCHAR uni5039
ENCODING 20537
BBX 24 24 0 -3
BITMAP
020600
038600
030D00
070C80
0618C0
061860
0C3030
0C20DF
1C7FEE
1CC306
2F4318
4C7FFC
8C6318
0C6318
0C6318
0C7FF8
0C6698
0C0680
0C0C40
0C0C60
0C1830
0C301F
0CC00E
0F0006
ENDCHAR
STARTCHAR uni5043
ENCODING 20547
BBX 24 24 0 -3
BITMAP
080000
0F000C
0DFFFE
0D8000
0D8FF8
1D8C30
198C30
198FF0
198C30
398C30
398FF0
598230
998306
19FFFF
198630
198C60
199F60
1998C0
1981E0
198738
19B818
198006
19FFFF
198000
ENDCHAR
STARTCHAR uni5047
ENCODING 20551
BBX 24 24 0 -3
BITMAP
040000
078618
06FFFC
06C618
0CC618
0CC618
0CFFF8
18C618
18C000
38C000
38CC18
58FFFC
98C118
18C118
18C0B0
18CCB0
18FE70
18C060
18C0E0
18C0D0
18C19F
18C30E
18C606
18D802
ENDCHAR
STARTCHAR uni5048
ENCODING 20552
BBX 23 24 0 -3
BITMAP
040000
074060
067FF0
066060
0E6060
0C7FE0
0C6060
1C6060
1C7FE0
3C5860
2C180C
4C3FFE
8C300C
0C620C
0CE30C
0F678C
0C7C0C
0C600C
0C610C
0C7F8C
0C3F98
0C00F8
0C0038
0C0030
ENDCHAR
STARTCHAR uni5049
ENCODING 20553
BBX 24 24 0 -3
BITMAP
040700
070600
060660
06FFF0
0C0C60
0C0C66
0FFFFF
180000
184030
387FF8
386030
586030
987FF0
186030
1801C0
180198
18FFFC
183180
183186
1FFFFF
180180
180180
180180
180180
ENDCHAR
STARTCHAR uni504F
ENCODING 20559
BBX 24 24 0 -3
BITMAP
040006
07FFFF
060000
0E400C
0C7FFE
0C600C
0C600C
18600C
187FFC
386000
38600C
587FFE
9866CC
18E6CC
18E6CC
18E6CC
197FFC
1966CC
1A66CC
1C66CC
1866CC
1866CC
1866FC
186018
ENDCHAR
STARTCHAR uni5050
ENCODING 20560
BBX 24 24 0 -3
BITMAP
040380
070300
060306
07FFFF
0E2020
0C1870
0C1C60
1C8886
1CFFFF
2CC000
2CC0E0
4CC1C0
8CC390
0CC61C
0CD838
0CC070
0CC0C4
0CC30E
0C9C1C
0D8038
0D0060
0E01C0
0C0E00
0C7000
ENDCHAR
STARTCHAR uni5055
ENCODING 20565
BBX 24 24 0 -3
BITMAP
0471C0
076180
066186
06658E
0E7F9C
0C61F0
0C6182
1C6382
1C6D83
3C79FF
2FE4FE
4DC700
8D0600
0C2430
0C3FF8
0C3030
0C3030
0C3030
0C3FF0
0C3030
0C3030
0C3030
0C3FF0
0C3030
ENDCHAR
STARTCHAR uni5056
ENCODING 20566
BBX 24 24 0 -3
BITMAP
041C00
071830
0619B8
07FFF0
0E1860
0C18C0
0C18C0
1C1986
1FFFFF
2C0600
2C0C00
4C1860
8C3FF0
0CF060
0F3060
0C3060
0C3FE0
0C3060
0C3060
0C3060
0C3060
0C3FE0
0C3060
0C3060
ENDCHAR
STARTCHAR uni505A
ENCODING 20570
BBX 24 24 0 -3
BITMAP
080080
0E70E0
0C60C0
0C60C0
0C60C6
0C6CFF
1BFF98
186118
186318
386518
386118
5A6CB0
9BFEB0
1B0CB0
1B0CB0
1B0C60
1B0C60
1B0CD0
1BFCD0
1B0D98
1B010F
18020E
180406
181802
ENDCHAR
STARTCHAR uni505C
ENCODING 20572
BBX 24 24 0 -3
BITMAP
040380
070300
06030C
07FFFE
0C0000
0C1060
0C1FF0
1C1860
1C1860
2C1FE0
2C9860
4C8006
8CFFFF
0D8006
0D8018
0C7FFC
0C0300
0C0300
0C0300
0C0300
0C0300
0C0300
0C1F00
0C0600
ENDCHAR
STARTCHAR uni5065
ENCODING 20581
BBX 24 24 0 -3
BITMAP
0801C0
0E0180
0C6198
0FEFFC
0C6198
18C19A
18FFFF
198198
398198
3BEFF8
5B6198
9A6180
1A6FFC
196180
196182
197FFF
18C180
18C180
18A180
19A180
191800
1A0FFF
1C07FE
180000
ENDCHAR
STARTCHAR uni506C
ENCODING 20588
BBX 24 24 0 -3
BITMAP
042000
073800
06300C
067FFE
0E66CC
0C64CC
0CCCCC
18B98C
190D8C
3A130C
3827CC
5844D8
988818
1810F8
182230
181D00
189988
1898C4
1898C6
199813
1B9813
1B1818
181FF8
180FF0
ENDCHAR
STARTCHAR uni5072
ENCODING 20594
BBX 24 24 0 -3
BITMAP
020000
03C018
037FFC
066318
066318
066318
0C7FF8
0C6318
1C6318
1C6318
2C6318
4C7FF8
8C6018
0C0200
0C0180
0C0ED0
0C4CC8
0C4CC4
0C4C06
0CCC13
0D8C13
0D8C18
0C0FF8
0C07F0
ENDCHAR
STARTCHAR uni5074
ENCODING 20596
BBX 24 24 0 -3
BITMAP
080007
0F0606
0DFF76
0D8666
198666
198666
19FE66
398666
398666
598666
598666
99FE66
198666
198666
198666
198666
19FE06
180006
188806
18E406
18C206
198306
1B01BE
1C018C
ENDCHAR
STARTCHAR uni5075
ENCODING 20597
BBX 23 24 0 -3
BITMAP
020380
038300
03030C
0703FE
060300
062318
0C3FFC
0C3018
1C3018
1C3FF8
2C3018
4C3018
8C3018
0C3FF8
0C3018
0C3018
0C3018
0C3FF8
0C0800
0C0E20
0C1C18
0C380C
0C600E
0D8006
ENDCHAR
STARTCHAR uni5076
ENCODING 20598
BBX 24 24 0 -3
BITMAP
044018
077FFC
066318
066318
0C6318
0C7FF8
0C6318
186318
186318
387FF8
386318
580300
990306
19FFFF
198306
198346
198326
1983F6
19FF36
19B836
19A006
198006
19803E
19800C
ENDCHAR
STARTCHAR uni5078
ENCODING 20600
BBX 24 24 0 -3
BITMAP
040600
070600
060D00
060C80
0E18C0
0C3060
0C61B8
18DFDF
19800E
3E0002
390C0E
59FEEC
998CCC
198CCC
19FCCC
198CCC
198CCC
19FCCC
198CCC
198CCC
198C0C
198C0C
19BC7C
199818
ENDCHAR
STARTCHAR uni507D
ENCODING 20605
BBX 24 24 0 -3
BITMAP
044100
0731C0
061980
061980
0E0330
0DFFF8
0C0630
1C0630
1C0C30
3C0FFC
2C1818
4C1018
8C201A
0C7FFF
0C4006
0C8086
0D0446
0EA266
0C9366
0C9B0C
0CD80C
0CC0FC
0C0038
0C0030
ENDCHAR
STARTCHAR uni5080
ENCODING 20608
BBX 24 24 0 -3
BITMAP
040400
070700
060600
068830
0EFFF8
0CC630
0CC630
1CC630
1CFFF0
2CC630
2CC630
4CC630
8CFFF0
0C2620
0C3E30
0C3668
0C3644
0C37FE
0C66E6
0C6682
0CC602
0C8603
0D07FF
0E03FE
ENDCHAR
STARTCHAR uni5085
ENCODING 20613
BBX 24 24 0 -3
BITMAP
040760
070630
060626
07FFFF
0E0600
0C8618
0CFFFC
1CC618
1CC618
3CFFF8
2CC618
4CC618
8CFFF8
0CC0D8
0C00C6
0FFFFF
0C40C0
0C30C0
0C18C0
0C18C0
0C00C0
0C00C0
0C07C0
0C0180
ENDCHAR
STARTCHAR uni508D
ENCODING 20621
BBX 24 24 0 -3
BITMAP
040380
070300
060306
06FFFF
0C1040
0C0870
0C4C60
1C4C86
1CFFFF
2DC006
2D8708
4C0606
8DFFFF
0C0600
0C0618
0C07FC
0C0C18
0C0C18
0C1818
0C1830
0C3030
0C63F0
0CC0E0
0F00C0
ENDCHAR
STARTCHAR uni5091
ENCODING 20625
BBX 24 24 0 -3
BITMAP
044038
077030
066C30
067C34
0CCFFE
0C8DB0
0DD9B0
1979B6
1A37FF
386030
384030
588730
9B0630
180606
1BFFFF
181E80
181E80
183640
183660
186630
18C61F
19860E
1E0606
180600
ENDCHAR
STARTCHAR uni5098
ENCODING 20632
BBX 24 24 0 -3
BITMAP
001800
003800
003400
006200
00C180
0180F0
061C3F
1B18CE
E318C2
06D9B0
0C5918
131AC8
0318C0
0318E0
06D998
0C5918
101A06
FFFFFF
001800
001800
001800
001800
001800
001800
ENDCHAR
STARTCHAR uni5099
ENCODING 20633
BBX 24 24 0 -3
BITMAP
040E70
070C60
060C66
06FFFF
0E0C60
0C0C60
0D0C66
19FFFF
198000
39900C
399FFE
59998C
99998C
199FFC
19998C
19998C
19998C
199FFC
19998C
19198C
1B198C
1A198C
1C19BC
181818
ENDCHAR
STARTCHAR uni509A
ENCODING 20634
BBX 24 24 0 -3
BITMAP
083880
0E30E0
0C30C0
0C30C0
0C36C6
0FFFFF
189198
18C918
18CB18
388D18
398D18
591098
9A98B0
1C58B0
1830B0
183060
186860
184C50
18CCD0
188098
19010F
1A020E
180406
181802
ENDCHAR
STARTCHAR uni50AC
ENCODING 20652
BBX 24 24 0 -3
BITMAP
040380
07730E
06630C
06630C
0E7FFC
0C200C
0C3880
1C30E0
1C31C0
2C610C
2C7FFE
4CE300
8CE300
0D6318
0E7FFC
0C6300
0C6300
0C6318
0C7FFC
0C6300
0C6300
0C6306
0C7FFF
0C6000
ENDCHAR
STARTCHAR uni50AD
ENCODING 20653
BBX 24 24 0 -3
BITMAP
040380
070300
068306
06FFFF
0CC180
0CCFF8
0CC19A
18FFFF
18C198
18C198
38CFF8
38C198
58D18C
98DFFE
18D98C
18D98C
199FFC
19998C
19998C
191FFC
1B198C
1A198C
1C19BC
181998
ENDCHAR
STARTCHAR uni50B2
ENCODING 20658
BBX 24 24 0 -3
BITMAP
083840
0E3070
0C3660
0DFF60
0C30C6
1836FF
1FFF98
180198
183A98
383098
383698
5FFFD8
986050
186C50
187E70
18CC60
18CC70
18CC50
188CD0
198C98
19198F
1A790E
1C3206
180C02
ENDCHAR
STARTCHAR uni50B3
ENCODING 20659
BBX 24 24 0 -3
BITMAP
040700
060606
07FFFF
060600
0E8618
0CFFFC
0CC618
1CC618
1CFFF8
3CC618
2CC618
4CFFF8
8CC610
0C06FC
0DFF06
0CF076
0C4062
0FFFFF
0C4060
0C3060
0C1860
0C1860
0C03E0
0C00C0
ENDCHAR
STARTCHAR uni50B4
ENCODING 20660
BBX 24 24 0 -3
BITMAP
040000
07800C
06FFFE
06C000
0CC430
0CC7F8
0CC630
18C630
18C630
38C630
38C7F0
58C000
98D34C
18DF7E
18DB6C
18DB6C
18DB6C
18DB6C
18DF7C
18DB6C
18C000
18C006
18FFFF
18C000
ENDCHAR
STARTCHAR uni50B5
ENCODING 20661
BBX 24 24 0 -3
BITMAP
040380
07030C
06FFFE
060300
0E7FF8
0C0300
0C0306
1FFFFF
1C0000
2C2030
2C3FF8
4C3030
8C3FF0
0C3030
0C3030
0C3FF0
0C3030
0C3030
0C3FF0
0C1000
0C1C60
0C381C
0C600E
0D8006
ENDCHAR
STARTCHAR uni50B7
ENCODING 20663
BBX 24 24 0 -3
BITMAP
041000
071C00
06180C
063FFE
0C3000
0C7FE0
0C5860
1C9860
1D1FE0
2E1860
2C1860
4C1FE0
8C0006
0FFFFF
0C1800
0C300C
0C7FFE
0CCD8C
0F198C
0C330C
0C6618
0D8DF8
0C3070
0C0060
ENDCHAR
STARTCHAR uni50BE
ENCODING 20670
BBX 24 24 0 -3
BITMAP
040006
071FFF
0600C0
060080
0DC50C
0D87FE
0D860C
19B60C
19B60C
39A7FC
39C60C
59860C
99860C
19A7FC
19A60C
19B60C
19F60C
18E7FC
180210
180388
18070C
180E06
181807
186003
ENDCHAR
STARTCHAR uni50C2
ENCODING 20674
BBX 24 24 0 -3
BITMAP
040700
074630
067FF8
066630
0C6636
0FFFFF
0C6630
1C6630
1C7FF0
3C8608
2CFFFC
4CC618
8CC618
0CFFF8
0CCC18
0C0C06
0FFFFF
0C1860
0C3060
0C7FC0
0C61C0
0C0778
0C3C1C
0FC00C
ENDCHAR
STARTCHAR uni50C5
ENCODING 20677
BBX 24 24 0 -3
BITMAP
041CE0
0718C0
0618CC
07FFFE
0C18C0
0C18C0
0C4018
1C7FFC
1C6318
2C6318
2C6318
4C7FF8
8C6318
0C0300
0C030C
0CFFFE
0C0300
0C0318
0C7FFC
0C0300
0C0300
0C0306
0FFFFF
0C0000
ENDCHAR
STARTCHAR uni50C9
ENCODING 20681
BBX 24 24 0 -3
BITMAP
003800
003800
007400
006200
00C100
0182C0
037F60
060038
0C001F
386436
CFF7FA
0C6630
0C6630
0C6630
0C6630
0FE7F0
026130
0381C0
030180
0381C0
064330
066318
0C660C
30180C
ENDCHAR
STARTCHAR uni50CA
ENCODING 20682
BBX 24 24 0 -3
BITMAP
040000
060006
07FFFF
061980
0E9998
0CFFFC
0CD998
1CD998
1CD998
3CFFF8
2CC618
4C0606
8FFFFF
0C0C40
0C1830
0C3FFF
0C606E
0CC062
0F7FE8
0C6068
0C6008
0C600C
0C7FFC
0C3FF8
ENDCHAR
STARTCHAR uni50CD
ENCODING 20685
BBX 24 24 0 -3
BITMAP
080670
0E1F60
0DF860
0C3060
1C3666
1BFFFF
183066
1A3666
3BFF66
3B3666
5B3666
5BFE66
9B3666
1B3666
1BFE66
1B36C6
1830C6
1BFEC6
18308C
18318C
1FFF0C
1BC2F8
1A0438
180830
ENDCHAR
STARTCHAR uni50CF
ENCODING 20687
BBX 24 24 0 -3
BITMAP
021000
039C00
0318C0
073FE0
063180
066218
0C7FFC
0CE318
1D6318
1E6318
2C7FF8
4C6718
8C0C88
0C1E8E
0C6E9C
0D9B60
0C3740
0C6F20
0D9B38
0C331F
0C630E
0D9E06
0C0E00
0C0C00
ENDCHAR
STARTCHAR uni50D1
ENCODING 20689
BBX 24 24 0 -3
BITMAP
040030
0701F8
067F80
060300
0C060C
0DFFFE
0C0C40
181820
183FF0
386CDF
38CCCE
5B0FC6
980CC0
18800C
18FFFE
18C00C
18C8CC
18CFEC
18CCCC
18CCCC
18CFCC
18CCCC
18C03C
18C018
ENDCHAR
STARTCHAR uni50D5
ENCODING 20693
BBX 24 24 0 -3
BITMAP
048EE8
074CCE
066CCC
066CD0
0E0CCC
0DFFFE
0C1020
1C0C70
1C084C
2DFFFE
2C0300
4C0318
8CFFFC
0C0300
0C0306
0FFFFF
0C0680
0C0680
0C0C40
0C0C60
0C1838
0C301F
0CC00E
0F0002
ENDCHAR
STARTCHAR uni50D6
ENCODING 20694
BBX 24 24 0 -3
BITMAP
040700
070600
060606
07FFFF
0E0600
0C0630
0CFFF8
1C0000
1C4030
2C7FF8
2C6030
4C6030
8C7FF0
0C1040
0C0CE0
0C0886
0FFFFF
0C0000
0C4030
0C7FF8
0C6030
0C6030
0C7FF0
0C6030
ENDCHAR
STARTCHAR uni50DA
ENCODING 20698
BBX 24 24 0 -3
BITMAP
080E00
0E0C00
0C0C0C
0FFFFE
0C1904
1A1886
19B0CC
19A068
387FF0
38E07F
59606E
5A7FE6
9C6060
186060
187FE0
188600
18E640
18C630
18C618
19860C
19060E
1A0606
1C3E00
180C00
ENDCHAR
STARTCHAR uni50DE
ENCODING 20702
BBX 24 24 0 -3
BITMAP
0400E0
0707F0
06FF10
068438
0E6330
0C3320
0C5140
1C7FF8
1C6030
2C6030
2C7FFC
4C6018
8C6018
0C601A
0C7FFF
0C6246
0CC966
0CC5A6
0C9686
0D9606
0D300C
0E307C
0C0038
0C0030
ENDCHAR
STARTCHAR uni50E3
ENCODING 20707
BBX 24 24 0 -3
BITMAP
043870
073060
06366C
07FFFE
0E3060
0C3666
0FFFFF
1C3060
1C68D0
2C6CD8
2CCD8F
4C8506
8D2232
0E3FF8
0C3030
0C3030
0C3030
0C3FF0
0C3030
0C3030
0C3030
0C3030
0C3FF0
0C3030
ENDCHAR
STARTCHAR uni50E5
ENCODING 20709
BBX 24 24 0 -3
BITMAP
040700
070630
077FF8
060600
0E060C
0FFFFE
0C0000
1C3870
1C366C
2DFFFE
2C3060
4C3060
8C3E66
0FF3FF
0DC000
0C000C
0DFFFE
0C1180
0C1D82
0C3982
0C3182
0C6183
0CC1FF
0F00FE
ENDCHAR
STARTCHAR uni50E7
ENCODING 20711
BBX 24 24 0 -3
BITMAP
042020
071838
060C70
068C46
0EFFFF
0CC306
0CC306
1CFFFE
1CC306
2CC306
2CC306
4CFFFE
8CC006
0C2018
0C3FFC
0C3018
0C3018
0C3018
0C3FF8
0C3018
0C3018
0C3018
0C3FF8
0C3018
ENDCHAR
STARTCHAR uni50ED
ENCODING 20717
BBX 24 24 0 -3
BITMAP
043870
073060
06366C
07FFFE
0DB360
0DB360
0DB366
1FFFFF
1CB162
2CF3E2
2CB563
4DBB7F
8D323E
0D2410
0E3FF8
0C3030
0C3030
0C3030
0C3FF0
0C3030
0C3030
0C3030
0C3FF0
0C3030
ENDCHAR
STARTCHAR uni50EE
ENCODING 20718
BBX 24 24 0 -3
BITMAP
040700
070600
060630
06FFF8
0E2040
0C10E0
0C188C
1FFFFE
1C0000
2CFFF8
2CC630
4CC630
8CFFF0
0CC630
0CC630
0CFFF0
0CC630
0C0600
0C0618
0DFFFC
0C0600
0C0606
0FFFFF
0C0000
ENDCHAR
STARTCHAR uni50F5
ENCODING 20725
BBX 24 24 0 -3
BITMAP
04000C
07FFFE
060000
067FF8
0E6630
0C6630
0C7FF0
1C6630
1C6630
3C7FF0
2C0006
4FFFFF
8C0000
0C7FF8
0C6630
0C6630
0C7FF0
0C6630
0C6630
0C7FF0
0C6030
0C0006
0FFFFF
0C0000
ENDCHAR
STARTCHAR uni50F9
ENCODING 20729
BBX 24 24 0 -3
BITMAP
040006
07FFFF
060CC0
068CCC
0EFFFE
0CCCCC
0CCCCC
1CFFFC
1CC00C
3C3FF0
2C3030
4C3030
8C3FF0
0C3030
0C3030
0C3FF0
0C3030
0C3030
0C3FF0
0C0800
0C1CE0
0C381C
0C600F
0F8003
ENDCHAR
STARTCHAR uni50FB
ENCODING 20731
BBX 24 24 0 -3
BITMAP
080038
0F0C30
0DFE30
0D8C36
1D8FFF
198D08
198C8E
19FCCC
398CC8
398016
5983FF
598C30
99FE30
19CC30
1ACC36
1ACFFF
1ACC30
1CCC30
18CC30
18FC30
18CC30
18C030
180030
180030
ENDCHAR
STARTCHAR uni5100
ENCODING 20736
BBX 24 24 0 -3
BITMAP
042080
0719C0
061118
0DFFFC
0C0600
0C0630
19FFF8
180600
38060C
3BFFFE
580800
983DD0
19F198
18318A
1BFFFF
183190
1832DC
183CD8
1BF0F0
19B062
1930F2
1833BB
19FC1F
186006
ENDCHAR
STARTCHAR uni5101
ENCODING 20737
BBX 24 24 0 -3
BITMAP
041080
071CE0
0638C0
063118
0E7FFC
0C6300
0CE310
1CFFF8
1D6300
2E6310
2C7FF8
4C6300
8C630C
0C7FFE
0C6000
0C8C86
0CFEFF
0CCCC6
0CCCC6
0CCFC6
0CCCC6
0CC006
0CC03E
0CC00C
ENDCHAR
STARTCHAR uni5102
ENCODING 20738
BBX 24 24 0 -3
BITMAP
040EE0
074CD8
067FFC
066CD8
0E6CD8
0C7FF8
0C6CD8
1C6CD8
1C7FF8
2C800C
2CFFFE
4CC000
8CCFF8
0CC006
0CFFFF
0CCC88
0CCC8E
0CCC5C
0C8C60
0D8C30
0D0DD8
0EFE1F
0C700E
0C4006
ENDCHAR
STARTCHAR uni5104
ENCODING 20740
BBX 24 24 0 -3
BITMAP
020380
038300
03030C
07FFFE
061040
060CE0
0C0886
0DFFFF
1C0000
1C3FF0
2C3030
2C3030
4C3FF0
8C3030
0C3030
0C3FF0
0C0210
0C2D8C
0C2CC6
0C6CD3
0C4C13
0DCC18
0D8FF8
0C07F0
ENDCHAR
STARTCHAR uni5109
ENCODING 20745
BBX 24 24 0 -3
BITMAP
040600
070600
060D00
060C80
0E1860
0C30B8
0C6FDF
1CC00E
1F0002
2C8C8C
2CFEFE
4CCCCC
8CCCCC
0CCCCC
0CFCFC
0CCCCC
0C2020
0C3838
0C3030
0C6830
0C6C68
0CC666
0D84C3
0E0303
ENDCHAR
STARTCHAR uni5112
ENCODING 20754
BBX 24 24 0 -3
BITMAP
040018
077FFC
060300
0E8306
0CFFFF
0D8306
199314
187B78
380300
381310
587B78
980300
180006
1BFFFF
180600
18840C
18FFFE
18CCCC
18CCCC
18CCCC
18CCCC
18CCCC
18CCFC
18C018
ENDCHAR
STARTCHAR uni5114
ENCODING 20756
BBX 24 24 0 -3
BITMAP
040700
060618
07FFFC
060600
0E0630
0CFFF8
0C0006
1DFFFF
1C0046
2C7FE8
2C0600
4C0630
8CFFF8
0C0006
0FFFFF
0C0030
0D1836
0DFFFF
0D9C30
0D9BB0
0DF9B0
0D9830
0C00F0
0C0060
ENDCHAR
STARTCHAR uni5115
ENCODING 20757
BBX 24 24 0 -3
BITMAP
040700
070600
060606
07FFFF
0E1184
0C0D5E
0FF678
1CB668
1CB668
2CB66C
2D6677
4DE6E6
8E4642
0C3038
0C3FF0
0C3030
0C3030
0C3FF0
0C3030
0C6030
0C6030
0C4030
0C8030
0F0030
ENDCHAR
STARTCHAR uni5116
ENCODING 20758
BBX 24 24 0 -3
BITMAP
040040
078670
06FF60
06CC60
0ECCC6
0CFFFF
0CC300
1CC300
1CFF0C
2CCCFE
2CCD00
4CFF80
8CC000
0C400C
0C7FFE
0C66CC
0C66CC
0C66CC
0C66CC
0C66CC
0C66CC
0C66CC
0FFFFF
0C0000
ENDCHAR
STARTCHAR uni5118
ENCODING 20760
BBX 24 24 0 -3
BITMAP
080E00
0E0C60
0DFFF0
0C0C60
0C0C66
1BFFFF
180C60
180C60
39FFE0
380C60
580C0C
5FFFFE
989110
19998C
1B1986
1B0886
190018
19FFFC
199998
199998
199998
19999A
1FFFFF
180000
ENDCHAR
STARTCHAR uni511A
ENCODING 20762
BBX 24 24 0 -3
BITMAP
041CE0
0618C6
07FFFF
0618C0
0E800C
0CFFFE
0CCCCC
1CCCCC
1CFFFC
2CC00C
2D0006
4DFFFF
8F0C06
0F0C38
0C1FF0
0C1830
0C3460
0C66C0
0D8580
0C0300
0C0600
0C0C00
0C3000
0DC000
ENDCHAR
STARTCHAR uni511F
ENCODING 20767
BBX 24 24 0 -3
BITMAP
0443A0
073338
069B30
069346
0EFFFF
0D8006
0D9FE4
1D9868
1C1FE0
2C2030
2C3FF8
4C3030
8C3FF0
0C3030
0C3030
0C3FF0
0C3030
0C3030
0C3FF0
0C1000
0C1C60
0C381C
0C600E
0D8006
ENDCHAR
STARTCHAR uni5121
ENCODING 20769
BBX 24 24 0 -3
BITMAP
042030
073FF8
063330
063330
0E3330
0C3FF0
0C3330
183330
183330
383FF0
383030
580000
990C86
19FEFF
19ACD6
19ACD6
19ACD6
19FCFE
19ACD6
19ACD6
19ACD6
19ACD6
19FCFE
198CC6
ENDCHAR
STARTCHAR uni512A
ENCODING 20778
BBX 24 24 0 -3
BITMAP
04000C
07FFFE
060C00
0E3FE0
0C3060
0C3FE0
183060
18BFE0
18B066
39FFFF
3B0406
5B5B44
985930
19CF98
199018
1818C0
181FE0
1830C0
187180
18CB00
1B0E00
1819FF
18603E
1B8006
ENDCHAR
STARTCHAR uni5132
ENCODING 20786
BBX 24 24 0 -3
BITMAP
0830E0
0DF8C8
0E00CE
0C18CC
0FFFFC
1800C8
1800D8
1830D6
19FFFF
380060
3800C0
58308C
59F9FE
98038C
18058C
19198C
19FDFC
19998C
19998C
19998C
19998C
19F9FC
19998C
19818C
ENDCHAR
STARTCHAR uni5137
ENCODING 20791
BBX 24 24 0 -3
BITMAP
080C06
0FFEFF
0C0000
0DFEFF
0DCCE6
19ACD6
19ACD6
19030C
19FFFE
399980
399998
59FFFC
999998
199998
19FFF8
198018
19B9C0
19B58C
193F9C
1B31F2
1A3182
1DFF83
18E1FF
1880FE
ENDCHAR
STARTCHAR uni513A
ENCODING 20794
BBX 24 24 0 -3
BITMAP
08FC40
0ED870
0CDA6C
0FFF6E
18D8C8
1A0494
1BFDFE
336DB0
336FB0
736DB0
73FDB4
B36DFE
3061B0
33FDB0
3061B0
3065B4
37FFFE
3061B0
30D1B0
30C9B0
308DB0
318DB6
3301FF
3C0180
ENDCHAR
STARTCHAR uni513B
ENCODING 20795
BBX 24 24 0 -3
BITMAP
084720
0E3638
0CB670
0C8686
0CFFFF
198006
1B3FE8
1B30D0
383FC0
388030
58FFF8
58C630
98FFF0
18C630
18FFF0
18C630
180608
19FFFC
180602
1FFFFF
184488
188846
1B9863
1B1863
ENDCHAR
STARTCHAR uni513C
ENCODING 20796
BBX 24 24 0 -3
BITMAP
04468C
077EFE
0666CC
0E66CC
0C7EFC
0C66CC
190006
19FFFF
198240
39BF70
398C60
59FFE6
99B67F
19B6D8
19BED8
19B758
19B650
19BE50
19B630
193630
1B3E58
1AF64F
1CC686
180702
ENDCHAR
STARTCHAR uni513F
ENCODING 20799
BBX 24 24 0 -3
BITMAP
038E00
030C00
030C00
030C00
030C00
030C00
030C00
030C00
030C00
030C00
030C00
030C00
030C00
030C00
030C00
060C00
060C00
060C02
060C02
0C0C02
0C0C02
180C03
300FFF
C007FE
ENDCHAR
STARTCHAR uni5140
ENCODING 20800
BBX 24 23 0 -3
BITMAP
000006
FFFFFF
030600
030600
030600
030600
030600
030600
030600
030600
030600
030600
030600
030600
060600
060600
060602
060602
0C0602
0C0602
180603
3007FF
C003FE
ENDCHAR
STARTCHAR uni5141
ENCODING 20801
BBX 24 24 0 -3
BITMAP
004000
007000
006000
006100
00C0C0
008030
010018
7FFFFC
3FC60E
20C606
00C600
00C600
00C600
00C600
00C600
018600
018600
018600
030602
030602
060602
040603
1807FF
E003FE
ENDCHAR
STARTCHAR uni5143
ENCODING 20803
BBX 24 23 0 -3
BITMAP
000018
3FFFFC
000000
000000
000000
000000
000006
FFFFFF
018C00
018C00
018C00
018C00
018C00
018C00
030C00
030C00
030C02
060C02
060C02
0C0C03
180FFF
3007FE
C00000
ENDCHAR
STARTCHAR uni5144
ENCODING 20804
BBX 24 24 0 -3
BITMAP
080030
0FFFF8
0C0030
0C0030
0C0030
0C0030
0C0030
0C0030
0C0030
0C0030
0FFFF0
0C8630
00E600
00C600
00C600
00C600
00C600
018600
018602
030602
060602
0C0603
3007FF
C003FE
ENDCHAR
STARTCHAR uni5145
ENCODING 20805
BBX 24 24 0 -3
BITMAP
001C00
001800
001800
001806
FFFFFF
004000
007000
006180
00C060
010030
7FFFF8
3FC61C
20C60C
00C600
00C600
00C600
00C600
018600
018602
030602
060602
0C0603
3007FF
C003FE
ENDCHAR
STARTCHAR uni5146
ENCODING 20806
BBX 24 24 0 -3
BITMAP
00E700
00C600
00C600
00C600
20C610
18C61C
0CC638
0CC660
0CC680
00C600
01C600
02C780
0CC660
18C630
F0C618
60C61C
41860C
018600
018602
030602
060602
0C0603
3007FF
C003FE
ENDCHAR
STARTCHAR uni5147
ENCODING 20807
BBX 24 24 0 -3
BITMAP
000200
1C039C
198718
186618
183C18
181C18
183618
186318
18C398
1B0198
180018
1FFFF8
18C618
00C600
00C600
00C600
00C600
018600
018602
030602
060602
0C0603
3007FF
C003FE
ENDCHAR
STARTCHAR uni5148
ENCODING 20808
BBX 24 24 0 -3
BITMAP
001C00
041800
071800
061800
061818
0FFFFC
0C1800
181800
101800
201800
401806
FFFFFF
00C300
00C300
00C300
00C300
00C300
018300
018302
030302
060302
0C0303
3003FF
C001FE
ENDCHAR
STARTCHAR uni5149
ENCODING 20809
BBX 24 24 0 -3
BITMAP
001C00
001800
101820
0C1838
061830
031860
031840
031880
001900
001806
FFFFFF
00C600
00C600
00C600
00C600
00C600
018600
018600
018602
030602
060602
0C0603
3007FF
C003FE
ENDCHAR
STARTCHAR uni514B
ENCODING 20811
BBX 24 24 0 -3
BITMAP
001C00
001800
001800
001806
FFFFFF
001800
001800
041860
07FFF0
060060
060060
060060
060060
07FFE0
06C660
00C600
00C600
018600
018602
030602
060602
0C0603
3007FF
C003FE
ENDCHAR
STARTCHAR uni514C
ENCODING 20812
BBX 24 24 0 -3
BITMAP
040100
0301C0
018180
00C300
00C400
0408C0
07FFE0
0600C0
0600C0
0600C0
0600C0
0600C0
07FFC0
060CC0
068C00
00EC00
00CC00
01CC02
018C02
030C02
060C02
0C0C03
300FFF
C007FE
ENDCHAR
STARTCHAR uni514D
ENCODING 20813
BBX 24 24 0 -3
BITMAP
008000
00E000
01C180
01FFC0
030300
060600
0C0818
1FFFFC
381818
D81818
181818
181818
1FFFF8
188618
00E600
00C600
00C600
018600
018602
030602
060602
0C0603
3007FF
C003FE
ENDCHAR
STARTCHAR uni514E
ENCODING 20814
BBX 24 24 0 -3
BITMAP
000038
000FFC
3FFE00
001800
001800
101818
1FFFFC
181818
181818
181818
181818
1FFFF8
180618
008600
00E640
00C630
00C618
018618
018602
030602
060602
0C0603
3007FF
C003FE
ENDCHAR
STARTCHAR uni5150
ENCODING 20816
BBX 24 24 0 -3
BITMAP
1C2018
183FFC
183018
183018
183018
183FF8
183018
183018
183018
183018
183FF8
183018
183018
010700
01C600
018600
018600
018600
030600
030602
060602
0C0603
3007FF
C003FE
ENDCHAR
STARTCHAR uni5152
ENCODING 20818
BBX 24 24 0 -3
BITMAP
003000
007800
08F060
0F8FF0
0C0060
0C0060
0CC060
0FEFE0
0C0060
0C0060
0C0060
0C0060
0FFFE0
0C8C60
0CEC60
00CC00
01CC00
018C02
018C02
030C02
060C03
0C0C03
300FFF
C007FE
ENDCHAR
STARTCHAR uni5154
ENCODING 20820
BBX 24 24 0 -3
BITMAP
008000
00E000
01C300
01FF80
030600
060400
0C0830
1FFFF8
2C1830
CC1830
0C1830
0C1830
0FFFF0
0C8C30
00EC80
00CC40
00CC60
018C30
018C32
030C02
060C02
0C0C03
300FFF
C007FE
ENDCHAR
STARTCHAR uni515A
ENCODING 20826
BBX 24 24 0 -3
BITMAP
041C40
031870
0198E0
119880
101906
1FFFFF
100006
3200C8
73FFE0
6300C0
0300C0
0300C0
0300C0
03FFC0
008600
00E600
00C600
018600
018602
030602
060602
0C0603
3007FF
C003FE
ENDCHAR
STARTCHAR uni515C
ENCODING 20828
BBX 24 24 0 -3
BITMAP
022000
03B800
27330C
38FF7E
30C30C
30C30C
30C30C
30FF0C
30C30C
30C30C
34C30C
3EFF7C
30C30C
300000
010700
01C600
018600
018600
030600
030602
060602
0C0603
3007FF
C003FE
ENDCHAR
STARTCHAR uni5162
ENCODING 20834
BBX 24 24 0 -3
BITMAP
0700E0
0600C0
0630C6
FFFFFF
0600C0
0600C0
2664CC
3FF7FE
30660C
30660C
30660C
30660C
3FE7FC
13626C
1B0360
1B0360
1B0360
1B1660
132662
334462
238C62
230863
42107F
80203E
ENDCHAR
STARTCHAR uni5165
ENCODING 20837
BBX 24 23 0 -3
BITMAP
000C00
0FFE00
000800
000800
001800
001800
001800
001C00
003400
003400
003200
006200
006200
006100
00C180
018080
0180C0
030060
060030
0C0038
18001F
30000E
C00006
ENDCHAR
STARTCHAR uni5168
ENCODING 20840
BBX 24 23 0 -2
BITMAP
001800
001800
003400
003400
006200
006100
00C180
0180C0
030070
06003F
0FFFEE
301802
C01800
001800
001860
0FFFF0
001800
001800
001800
001800
001800
00180C
7FFFFE
ENDCHAR
STARTCHAR uni5169
ENCODING 20841
BBX 24 23 0 -3
BITMAP
000006
FFFFFF
001800
001800
20180C
3FFFFE
30180C
33198C
3F9FCC
31188C
31188C
33198C
3399CC
32994C
36FB7C
34DA6C
385C2C
30180C
30180C
30180C
30180C
30187C
300018
ENDCHAR
STARTCHAR uni516A
ENCODING 20842
BBX 24 24 0 -3
BITMAP
003000
003000
006800
006400
00C300
018180
0306E0
06FF7F
18001E
E00006
106210
1FF39C
186318
1C6318
1B6630
1B6C60
1C6840
1B6420
1B6630
186318
186318
18618C
1BE18C
18C18C
ENDCHAR
STARTCHAR uni516B
ENCODING 20843
BBX 24 23 0 -2
BITMAP
000400
009E00
00E400
00C400
00C400
00C200
00C200
00C200
00C200
018100
018100
018180
018080
030080
0300C0
020040
060060
040030
0C0038
08001C
10001F
20000E
C00006
ENDCHAR
STARTCHAR uni516C
ENCODING 20844
BBX 24 24 0 -3
BITMAP
008400
00E400
00C200
00C200
018100
018180
0300C0
032060
063870
043038
08301F
10300E
206006
C06000
004000
00C200
008180
0180C0
010060
020030
041FF8
7FF01C
3F000C
20000C
ENDCHAR
STARTCHAR uni516D
ENCODING 20845
BBX 24 23 0 -2
BITMAP
001C00
001800
001800
001800
001800
001806
FFFFFF
000000
000000
010000
01C100
018080
018040
030020
030030
060018
04000C
0C000C
08000E
100006
200006
400006
800000
ENDCHAR
STARTCHAR uni516E
ENCODING 20846
BBX 24 24 0 -3
BITMAP
008400
00E400
00C200
018300
018180
0300C0
060070
0C01BF
1BFFCE
30C006
C0C000
0180C0
01FFE0
0300C0
0300C0
0000C0
0000C0
000180
000180
000180
000300
003F00
000E00
000C00
ENDCHAR
STARTCHAR uni5171
ENCODING 20849
BBX 24 24 0 -3
BITMAP
01C1C0
018180
018180
018180
018180
01818C
7FFFFE
018180
018180
018180
018180
018180
018186
FFFFFF
000000
000000
010200
01C180
0380C0
030070
060038
0C001C
30000E
C00006
ENDCHAR
STARTCHAR uni5175
ENCODING 20853
BBX 24 24 0 -3
BITMAP
000180
0007C0
021C00
03E000
030000
030000
030018
03FFFC
030180
030180
030180
030180
030180
030186
FFFFFF
000000
010000
01C100
038080
030060
060030
0C0018
18001C
60000C
ENDCHAR
STARTCHAR uni5176
ENCODING 20854
BBX 24 24 0 -3
BITMAP
01C1C0
018180
018180
01818C
7FFFFE
018180
018180
01FF80
018180
018180
018180
01FF80
018180
018180
018186
FFFFFF
000000
010000
01C180
038060
070030
0C001C
30000E
C00006
ENDCHAR
STARTCHAR uni5177
ENCODING 20855
BBX 24 24 0 -3
BITMAP
0200C0
03FFE0
0300C0
0300C0
0300C0
03FFC0
0300C0
0300C0
0300C0
03FFC0
0300C0
0300C0
0300C0
03FFC0
0300C0
000006
FFFFFF
000000
010000
01C180
038060
070038
0C001C
70000C
ENDCHAR
STARTCHAR uni5178
ENCODING 20856
BBX 24 24 0 -3
BITMAP
00E700
00C600
00C600
10C630
1FFFF8
18C630
18C630
18C630
18C630
18C630
1FFFF0
18C630
18C630
18C630
18C630
18C636
FFFFFF
000000
020000
038180
070070
0E001C
38000E
C00006
ENDCHAR
STARTCHAR uni517C
ENCODING 20860
BBX 24 24 0 -3
BITMAP
020100
0181C0
00C380
00C20C
7FFFFE
006600
006630
1FFFF8
006630
006636
FFFFFF
006630
006630
006630
1FFFF0
01E730
036680
0366C0
066660
0C6630
18661F
30660E
C06602
006600
ENDCHAR
STARTCHAR uni5180
ENCODING 20864
BBX 24 24 0 -3
BITMAP
00E718
00C67C
7FC7E2
00C602
03C603
FCC7FF
70C3FE
440000
07FFF0
061860
07FFE0
061860
061860
07FFE0
00C318
3FFFFC
00C300
00C306
FFFFFF
008000
01E3C0
038078
1E001E
E00006
ENDCHAR
STARTCHAR uni5182
ENCODING 20866
BBX 23 24 1 -3
BITMAP
80000C
FFFFFE
C0000C
C0000C
C0000C
C0000C
C0000C
C0000C
C0000C
C0000C
C0000C
C0000C
C0000C
C0000C
C0000C
C0000C
C0000C
C0000C
C0000C
C0000C
C0000C
C0000C
C0007C
C00018
ENDCHAR
STARTCHAR uni5185
ENCODING 20869
BBX 21 24 2 -3
BITMAP
007000
006000
006000
806030
FFFFF8
C06030
C06030
C06030
C0D030
C0C830
C08430
C18630
C10330
C20330
C40330
D80030
C00030
C00030
C00030
C00030
C00030
C00030
C001F0
C00060
ENDCHAR
STARTCHAR uni5186
ENCODING 20870
BBX 21 24 2 -3
BITMAP
800030
FFFFF8
C06030
C06030
C06030
C06030
C06030
C06030
C06030
C06030
FFFFF0
C00030
C00030
C00030
C00030
C00030
C00030
C00030
C00030
C00030
C00030
C00030
C001F0
C00060
ENDCHAR
STARTCHAR uni5189
ENCODING 20873
BBX 24 24 0 -3
BITMAP
001C00
001800
001800
041860
07FFF0
061860
061860
061860
061860
07FFE0
061860
061860
061860
061866
FFFFFF
060060
060060
060060
060060
060060
060060
060060
0603E0
0600C0
ENDCHAR
STARTCHAR uni518A
ENCODING 20874
BBX 24 24 0 -3
BITMAP
100030
1FFFF8
18C630
18C630
18C630
18C630
18C630
18C630
18C630
18C636
FFFFFF
18C630
18C630
18C630
18C630
18C630
18C630
18C630
18C630
18C630
18C630
18C630
1801F0
180060
ENDCHAR
STARTCHAR uni518C
ENCODING 20876
BBX 24 24 0 -3
BITMAP
10C430
1FE7F8
18C630
18C630
18C630
18C630
18C630
18C630
18C636
FFFFFF
18C630
18C630
18C630
18C630
18C630
18C630
18C630
30CC30
30CC30
30CC30
20C830
60D830
47D1F0
81A060
ENDCHAR
STARTCHAR uni518D
ENCODING 20877
BBX 24 24 0 -3
BITMAP
000006
FFFFFF
001800
001800
001800
081830
0FFFF8
0C1830
0C1830
0C1830
0FFFF0
0C1830
0C1830
0C1830
0C1836
FFFFFF
0C0030
0C0030
0C0030
0C0030
0C0030
0C0030
0C01F0
0C0060
ENDCHAR
STARTCHAR uni518F
ENCODING 20879
BBX 23 24 1 -3
BITMAP
80000C
FFFFFE
C1180C
C1D80C
C1980C
C3180C
C3180C
C61FEC
CC0FEC
F0000C
C2060C
C3FF0C
C3060C
C3060C
C3060C
C3060C
C3060C
C3FE0C
C3060C
C3060C
C0000C
C0000C
C0007C
C00018
ENDCHAR
STARTCHAR uni5190
ENCODING 20880
BBX 19 24 3 -3
BITMAP
8000C0
FFFFE0
C000C0
C004C0
DFFEC0
C000C0
C004C0
DFFEC0
C000C0
000000
100600
1FFF00
180600
180600
1FFE00
180600
180600
1FFE00
180600
180600
180600
180600
183E00
180C00
ENDCHAR
STARTCHAR uni5191
ENCODING 20881
BBX 19 24 3 -3
BITMAP
00E000
80C0C0
FFFFE0
C0C0C0
C0C0C0
FFFFC0
C0C0C0
C0C0C0
FFFFC0
C000C0
200300
3FFF80
300300
301300
37FB00
300300
301300
37FB00
300300
300300
300300
300300
301F00
300600
ENDCHAR
STARTCHAR uni5192
ENCODING 20882
BBX 19 24 3 -3
BITMAP
8000C0
FFFFE0
C000C0
C000C0
FFFFC0
C000C0
C000C0
C000C0
FFFFC0
C000C0
200300
3FFF80
300300
300300
3FFF00
300300
300300
3FFF00
300300
300300
300300
3FFF00
300300
300300
ENDCHAR
STARTCHAR uni5193
ENCODING 20883
BBX 24 24 0 -3
BITMAP
00E380
00C318
3FFFFC
00C300
00C330
1FFFF8
00C300
00C306
FFFFFF
001800
041860
07FFF0
061860
061860
07FFE0
061860
061866
FFFFFF
060060
060060
060060
060060
0603E0
0600C0
ENDCHAR
STARTCHAR uni5195
ENCODING 20885
BBX 24 24 0 -3
BITMAP
040060
07FFF0
060060
060260
06FF60
060060
060260
06FF60
00C000
01FF00
030C00
061030
1FFFF8
EC1830
0C1830
0FFFF0
0C8C30
00EC00
01CC02
038C02
070C02
0C0C03
300FFF
C007FE
ENDCHAR
STARTCHAR uni5196
ENCODING 20886
BBX 24 6 0 7
BITMAP
200004
20000E
3FFFFF
600006
C00008
C00010
ENDCHAR
STARTCHAR uni5197
ENCODING 20887
BBX 24 24 0 -3
BITMAP
100000
100006
1FFFFF
100006
30000C
700010
610300
01FF80
018300
018300
018300
018300
018300
018300
018300
018300
030300
030302
030302
060302
0C0303
180303
3003FF
C001FE
ENDCHAR
STARTCHAR uni5199
ENCODING 20889
BBX 24 24 0 -3
BITMAP
100000
100006
1FFFFF
300006
31C00C
618010
618060
01FFF0
018000
030000
0300C0
07FFE0
0600C0
0000C0
0000C6
FFFFFF
000180
000180
000300
000300
000600
007E00
001C00
001800
ENDCHAR
STARTCHAR uni51A0
ENCODING 20896
BBX 24 24 0 -3
BITMAP
100000
100006
1FFFFF
300006
700004
60C038
1FE030
000036
000FFF
003030
7FFC30
0CC230
0CC330
0CC330
0CC030
0CC030
0CC030
18C032
18C1F2
10C062
30C003
20FFFF
407FFE
800000
ENDCHAR
STARTCHAR uni51A2
ENCODING 20898
BBX 24 24 0 -3
BITMAP
200000
200006
3FFFFF
600006
C00008
C00060
1FFFF0
007408
00E41E
01B218
033230
0E7A60
70D980
018D00
031C80
0C3CC0
706C60
00CC38
038C1F
0E0C0E
F01806
00F802
007000
006000
ENDCHAR
STARTCHAR uni51A4
ENCODING 20900
BBX 24 24 0 -3
BITMAP
200000
200006
3FFFFF
604006
C0F008
C0C310
01FF80
030600
060830
0FFFF8
3C1830
CC1830
0C1830
0FFFF0
0C8C30
00ED00
00CCC0
01CC60
018C32
030C32
060C02
0C0C03
300FFF
C007FE
ENDCHAR
STARTCHAR uni51A5
ENCODING 20901
BBX 24 24 0 -3
BITMAP
100000
100006
1FFFFF
300006
700004
6200C8
03FFE0
0300C0
0300C0
03FFC0
0300C0
0300C0
03FFC0
0300C0
001C00
001806
FFFFFF
000000
010100
03C0C0
070030
0C001C
30000E
C00006
ENDCHAR
STARTCHAR uni51A6
ENCODING 20902
BBX 24 24 0 -3
BITMAP
200000
200006
3FFFFF
600006
C00388
C0C310
3FE318
0003FC
000300
003330
7FFFF8
0CC430
0CC260
0CC160
0CC1C0
0CC0C0
0CC1A0
18C332
18C61A
10D81A
30C003
20FFFF
407FFE
800000
ENDCHAR
STARTCHAR uni51A8
ENCODING 20904
BBX 23 24 1 -3
BITMAP
200000
20000C
3FFFFE
60000C
E00188
CFFFD0
000000
020300
03FF80
030300
030300
03FF00
030300
100060
1FFFF0
183060
183060
183060
1FFFE0
183060
183060
183060
1FFFE0
180060
ENDCHAR
STARTCHAR uni51A9
ENCODING 20905
BBX 24 24 0 -3
BITMAP
200000
200006
3FFFFF
600006
E03008
C4F0D0
078FE0
0600C0
0640C0
07EFC0
0600C0
0600C0
07FFC0
0180C0
03000C
07FFFE
1C040C
E1230C
04998C
04CD98
086C18
3860F8
300070
000060
ENDCHAR
STARTCHAR uni51AA
ENCODING 20906
BBX 24 24 0 -3
BITMAP
200000
200006
3FFFFF
60C606
C0C630
DFFFF8
00C600
03FFE0
0300C0
03FFC0
0300C0
0300C0
03FFC0
006006
FFFFFF
019900
0718E0
1FFFFF
E6186E
061862
061860
061BE0
0618C0
001800
ENDCHAR
STARTCHAR uni51AB
ENCODING 20907
BBX 11 22 7 -2
BITMAP
2000
1000
1800
0C00
0C20
0C40
0080
0100
0100
0200
0600
0400
0C00
F800
3800
1800
1800
1800
1800
1C00
1C00
0C00
ENDCHAR
STARTCHAR uni51AC
ENCODING 20908
BBX 24 24 0 -3
BITMAP
008000
00E000
00C0C0
01FFE0
018180
030300
068600
0C4C00
183800
603000
006800
00C600
018380
0320F0
0C183F
300C0E
C00C02
000000
038000
007000
001C00
000700
000380
000180
ENDCHAR
STARTCHAR uni51B0
ENCODING 20912
BBX 24 24 0 -3
BITMAP
400700
200600
300600
180600
190708
19070E
02370C
03FE98
0236B0
0436C0
043680
0C36C0
086640
186640
F86660
70C620
30C630
308618
31861F
31060E
360606
380602
183E00
000C00
ENDCHAR
STARTCHAR uni51B1
ENCODING 20913
BBX 24 23 0 -2
BITMAP
400000
20000C
33FFFE
183000
183000
193000
013060
023FF0
023060
063060
046060
0C6060
086060
186060
F8FFE0
70C060
30C060
300060
300060
300060
380060
380066
1FFFFF
ENDCHAR
STARTCHAR uni51B2
ENCODING 20914
BBX 24 24 0 -3
BITMAP
400380
200300
300300
180300
188306
18FFFF
01C306
02C306
02C306
04C306
04C306
0CC306
08C306
18FFFE
F8C306
70C306
300300
300300
300300
300300
380300
380300
180300
000300
ENDCHAR
STARTCHAR uni51B3
ENCODING 20915
BBX 24 24 0 -3
BITMAP
400E00
200C00
300C00
180C00
180C30
19FFF8
010C30
020C30
020C30
040C30
040C30
0C0C36
0FFFFF
181A00
F81A00
701900
301900
303080
3030C0
306060
386038
38C01F
11800E
0E0006
ENDCHAR
STARTCHAR uni51B4
ENCODING 20916
BBX 24 24 0 -3
BITMAP
20000C
187FFE
0C0C60
0C0C60
0C0C60
000C60
010C60
020C60
020C66
05FFFF
0C01E0
0801E0
180360
300360
F00660
700660
300C60
301860
303060
386060
38C060
198060
0603E0
0000C0
ENDCHAR
STARTCHAR uni51B5
ENCODING 20917
BBX 24 24 0 -3
BITMAP
400000
204030
307FF8
186030
186030
196030
016030
026030
026030
047FF0
0461B0
0C1180
081D80
181980
F81980
701980
303180
303182
303182
306182
386182
38C183
1981FF
0600FE
ENDCHAR
STARTCHAR uni51B6
ENCODING 20918
BBX 24 24 0 -3
BITMAP
200200
180380
0C0300
060600
060600
060440
000820
000818
02100C
03FFFE
04F807
0C8003
080000
182018
383FFC
F03018
703018
303018
303018
303018
383018
383FF8
183018
003018
ENDCHAR
ENDFONT
